<svg id="Layer_1" data-name="Layer 1" xmlns="http://www.w3.org/2000/svg" viewBox="0 0 150 100"><defs><style>.cls-1{fill:#fff;opacity:0;}.cls-2{fill:#cfcfce;}.cls-3{fill:#7894cb;}.cls-4{fill:#52bb71;}.cls-4,.cls-8{fill-rule:evenodd;}.cls-5{fill:#d89c5a;}.cls-6{fill:#d8d9d8;}.cls-7{fill:#f6aa5e;}.cls-8{fill:#c94642;}.cls-9{fill:#5abce9;}.cls-10{fill:#7761aa;}.cls-11{fill:#7056a4;}</style></defs><title>why-ivy-1</title><rect class="cls-1" width="150" height="100"/><path class="cls-2" d="M126.08,46.25l-3.82-1.58a.44.44,0,0,0-.58.24l0,.07a.45.45,0,0,0,.24.58l.78.32L116,62.05l2.26.94,6.69-16.17.77.32a.44.44,0,0,0,.58-.24l0-.07A.43.43,0,0,0,126.08,46.25Z"/><path class="cls-2" d="M125.71,51.2,119,48.44a.23.23,0,0,0-.31.13.22.22,0,0,0,.13.31l.33.14-8.4,20.32,1.87.78-.29.7.39.16-.17.42.63.26-3.09,7.47.39-.28,2.93-7.09.63.25.17-.42.39.16.29-.7,1.87.78,8.4-20.33.34.14a.23.23,0,0,0,.31-.13A.24.24,0,0,0,125.71,51.2Z"/><rect class="cls-3" x="114.39" y="54.7" width="5.29" height="16.08" rx="0.18" ry="0.18" transform="translate(32.83 -39.94) rotate(22.45)"/><rect class="cls-3" x="113.25" y="69.3" width="1.28" height="2.07" rx="0.04" ry="0.04" transform="translate(35.49 -38.17) rotate(22.45)"/><path class="cls-4" d="M131.94,24.09,119.08,37A.81.81,0,0,1,118,37l-.07-.08a1.77,1.77,0,0,1-.44-.3l-7-6.89a.79.79,0,0,1,0-1.12L111.93,27a.79.79,0,0,1,1.12,0l5.38,5.31,10.88-10.89a.8.8,0,0,1,1.11,0L131.94,23A.78.78,0,0,1,131.94,24.09Z"/><path class="cls-5" d="M80,76.24a1.07,1.07,0,0,1-.79,1,25.92,25.92,0,0,1-6.37.91,26,26,0,0,1-6.38-.91,1.07,1.07,0,0,1-.79-1V54a3,3,0,0,1,3-3H77a3,3,0,0,1,3,3Z"/><rect class="cls-5" x="69.69" y="47.56" width="6.31" height="6.31"/><rect class="cls-6" x="69.18" y="45.09" width="7.34" height="3.01" rx="0.11" ry="0.11"/><rect class="cls-7" x="65.68" y="59.58" width="14.33" height="6.03"/><path class="cls-8" d="M75.08,29.21l6.41,6.41a.79.79,0,0,1,0,1.12l-1.11,1.11a.79.79,0,0,1-1.12,0l-6.41-6.41-6.42,6.41a.78.78,0,0,1-1.11,0L64.2,36.74a.81.81,0,0,1,0-1.12l6.42-6.41L64.2,22.8a.81.81,0,0,1,0-1.12l1.12-1.12a.8.8,0,0,1,1.11,0L72.85,27l6.41-6.42a.81.81,0,0,1,1.12,0l1.11,1.12a.79.79,0,0,1,0,1.12Z"/><path class="cls-9" d="M25.36,60.25c-2.34.7-3.58,3.46-2.78,6.16L24,71.14l8.48-2.52-1.41-4.73C30.26,61.18,27.71,59.56,25.36,60.25Z"/><path class="cls-6" d="M25.4,75.87c.8,2.7,3.35,4.33,5.7,3.63s3.58-3.45,2.78-6.15l-1.41-4.73L24,71.14Z"/><path class="cls-10" d="M21.21,46.68a6.26,6.26,0,0,0,1.27,7.56l5.75-10.63A6.24,6.24,0,0,0,21.21,46.68Z"/><path class="cls-10" d="M32.19,52.62a6.23,6.23,0,0,0-1.26-7.55L25.18,55.7A6.23,6.23,0,0,0,32.19,52.62Z"/><path class="cls-11" d="M29.67,44.16a6,6,0,0,0-1.44-.55L22.48,54.24a6.32,6.32,0,0,0,1.25.9,6.58,6.58,0,0,0,1.45.56l5.75-10.63A6,6,0,0,0,29.67,44.16Z"/><path class="cls-8" d="M28.93,29.21l6.42,6.41a.79.79,0,0,1,0,1.12l-1.12,1.11a.78.78,0,0,1-1.11,0L26.7,31.44l-6.41,6.41a.79.79,0,0,1-1.12,0l-1.11-1.11a.79.79,0,0,1,0-1.12l6.41-6.41L18.06,22.8a.79.79,0,0,1,0-1.12l1.11-1.12a.81.81,0,0,1,1.12,0L26.7,27l6.42-6.42a.8.8,0,0,1,1.11,0l1.12,1.12a.79.79,0,0,1,0,1.12Z"/></svg>