<svg id="Layer_1" data-name="Layer 1" xmlns="http://www.w3.org/2000/svg" viewBox="0 0 150 100"><defs><style>.cls-1{fill:#fff;opacity:0;}.cls-2{fill:#cfcfce;}.cls-3{fill:#7894cb;}.cls-4{fill:#d89c5a;}.cls-5{fill:#d8d9d8;}.cls-6{fill:#f6aa5e;}.cls-7{fill:#5abce9;}.cls-8{fill:#7761aa;}.cls-9{fill:#7056a4;}.cls-10{fill:#c94642;}.cls-11{fill:#52bb71;}</style></defs><title>why-ivy-2</title><rect class="cls-1" width="150" height="100"/><path class="cls-2" d="M128.32,51.16l-3.82-1.58a.46.46,0,0,0-.59.24l0,.07a.43.43,0,0,0,.24.58l.77.32L118.22,67l2.27.94,6.68-16.17.78.32a.45.45,0,0,0,.58-.24l0-.07A.45.45,0,0,0,128.32,51.16Z"/><path class="cls-2" d="M128,56.11l-6.68-2.76a.23.23,0,0,0-.32.13.24.24,0,0,0,.13.31l.34.14L113,74.25l1.87.77-.29.7.39.17-.18.42.63.26L112.35,84l.39-.28,2.94-7.1.62.26.18-.42.39.16.29-.7,1.87.77,8.4-20.32.33.14a.25.25,0,0,0,.32-.13A.24.24,0,0,0,128,56.11Z"/><rect class="cls-3" x="116.62" y="59.61" width="5.29" height="16.08" rx="0.18" ry="0.18" transform="translate(34.88 -40.42) rotate(22.45)"/><rect class="cls-3" x="115.49" y="74.21" width="1.28" height="2.07" rx="0.04" ry="0.04" transform="translate(37.54 -38.65) rotate(22.45)"/><path class="cls-4" d="M82.25,81.15a1.07,1.07,0,0,1-.79,1,26.11,26.11,0,0,1-6.38.9,26.09,26.09,0,0,1-6.37-.9,1.07,1.07,0,0,1-.79-1V58.93a3,3,0,0,1,3-3h8.32a3,3,0,0,1,3,3Z"/><rect class="cls-4" x="71.93" y="52.47" width="6.31" height="6.31"/><rect class="cls-5" x="71.41" y="50" width="7.34" height="3.01" rx="0.11" ry="0.11"/><rect class="cls-6" x="67.92" y="64.49" width="14.33" height="6.03"/><path class="cls-7" d="M27.6,65.16c-2.34.7-3.59,3.46-2.78,6.16l1.4,4.73,8.49-2.52L33.3,68.8C32.49,66.09,29.94,64.46,27.6,65.16Z"/><path class="cls-5" d="M27.63,80.78c.81,2.7,3.36,4.33,5.7,3.63s3.59-3.45,2.78-6.16l-1.4-4.72-8.49,2.52Z"/><path class="cls-8" d="M23.45,51.59a6.24,6.24,0,0,0,1.26,7.56l5.76-10.63A6.24,6.24,0,0,0,23.45,51.59Z"/><path class="cls-8" d="M34.43,57.53A6.23,6.23,0,0,0,33.16,50L27.41,60.61A6.24,6.24,0,0,0,34.43,57.53Z"/><path class="cls-9" d="M31.91,49.07a6.18,6.18,0,0,0-1.44-.55L24.71,59.15a6.39,6.39,0,0,0,1.26.9,6.7,6.7,0,0,0,1.44.56L33.16,50A6.32,6.32,0,0,0,31.91,49.07Z"/><rect class="cls-10" x="40.08" y="33.2" width="7.38" height="9.8"/><rect class="cls-10" x="30.53" y="34.86" width="7.38" height="8.13"/><rect class="cls-10" x="11.6" y="37.1" width="7.38" height="5.89"/><rect class="cls-10" x="21.06" y="31.94" width="7.38" height="11.06"/><rect class="cls-10" x="85.63" y="36.47" width="7.38" height="6.53"/><rect class="cls-10" x="76.09" y="34.31" width="7.38" height="8.68"/><rect class="cls-10" x="57.16" y="35.77" width="7.38" height="7.22"/><rect class="cls-10" x="66.62" y="34.86" width="7.38" height="8.13"/><rect class="cls-11" x="131.02" y="18.03" width="7.38" height="24.96"/><rect class="cls-11" x="121.47" y="20.12" width="7.38" height="22.87"/><rect class="cls-11" x="102.54" y="15.43" width="7.38" height="27.57"/><rect class="cls-11" x="112.01" y="18.73" width="7.38" height="24.26"/></svg>