<svg id="Layer_1" data-name="Layer 1" xmlns="http://www.w3.org/2000/svg" viewBox="0 0 150 100"><defs><style>.cls-1{fill:#fff;opacity:0;}.cls-2{fill:#c94642;}.cls-2,.cls-3{fill-rule:evenodd;}.cls-3{fill:#f7b219;}</style></defs><title>why-ivy-4</title><rect class="cls-1" width="150" height="100"/><path class="cls-2" d="M62.9,53.16h0c-4.61-4.61-4.45-11.34,0-16.11,2.17-2.31,8.36-10.16,8.36-10.16s6.19,7.85,8.35,10.16c4.46,4.77,4.62,11.5,0,16.11h0A11.81,11.81,0,0,1,62.9,53.16Z"/><path class="cls-2" d="M46.76,32.56h0a7.84,7.84,0,0,1,0-11.23c1.51-1.62,5.83-7.09,5.83-7.09s4.31,5.47,5.82,7.09a7.83,7.83,0,0,1,0,11.23h0A8.25,8.25,0,0,1,46.76,32.56Z"/><path class="cls-2" d="M81.8,32.13h0c-3.79-3.79-3.66-9.31,0-13.22,1.78-1.91,6.86-8.35,6.86-8.35s5.08,6.44,6.86,8.35c3.66,3.91,3.79,9.43,0,13.22h0A9.7,9.7,0,0,1,81.8,32.13Z"/><path class="cls-3" d="M97.66,89.22c-1.06-1.52-2.1-3-3.17-4.54Q90,78.35,85.55,72.05c-1-1.48-1-2.37.19-3.69l-4.31-6.07c-.73.33-1.51.72-2.32,1a22.08,22.08,0,0,1-30.27-19c-.07-1-.05-2-.07-3L49.51,37c.16-.41.33-.83.47-1.25a22,22,0,0,1,19.2-14.89c1.09-.08,2.17-.07,3.26-.09l4.33.74c1,.38,2,.7,3,1.15,8.1,3.84,12.6,10.25,13.13,19.19a21.18,21.18,0,0,1-7.09,17.27l-.33.31a.31.31,0,0,0,0,.07l4.28,6A7.16,7.16,0,0,1,91,65.22a2.46,2.46,0,0,1,2.17,1.27l12,17c.14.2.3.37.44.55l-.13.77c-.37.24-.76.48-1.12.74-1.81,1.29-3.62,2.6-5.43,3.9ZM88,45.84A17.41,17.41,0,1,0,67.85,60,17.39,17.39,0,0,0,88,45.84Z"/></svg>