<svg id="Layer_1" data-name="Layer 1" xmlns="http://www.w3.org/2000/svg" viewBox="0 0 66.57 66.57"><defs><style>.cls-1{fill:#fff;}.cls-2{fill:#f0d0a6;}.cls-3,.cls-6{fill:#d6b18c;}.cls-3{stroke:#d6b18c;stroke-linecap:round;stroke-miterlimit:10;stroke-width:0.75px;}.cls-4{fill:#232323;}.cls-5{fill:#010101;}.cls-7{fill:#c75839;}</style></defs><title>btn-teen-white</title><path class="cls-1" d="M66.57,14.79V52.08c-.09.47-.22.94-.27,1.42A14,14,0,0,1,55,66c-1,.2-1.92.36-2.87.53H14.5a11.44,11.44,0,0,0-1.13-.25A14,14,0,0,1,.5,54.65c-.2-1-.33-2.11-.5-3.17V14.79c.09-.52.21-1,.28-1.56C1.06,7.24,4.17,3,9.91,1a34.37,34.37,0,0,1,5.18-1H51.78a11.94,11.94,0,0,0,1.43.26A14,14,0,0,1,66,11.63C66.25,12.68,66.4,13.74,66.57,14.79Z" transform="translate(0 0)"/><path class="cls-2" d="M55.18,36.64h-.1c.05-.68.07-1.36.07-2,0-14-9.61-23-21.57-23s-21.72,9-21.72,23c0,.69,0,1.38.07,2.06-4.27.2-4.2,6.83.19,6.83a3.63,3.63,0,0,0,1.07-.17c2.19,7,4.5,12.6,10.5,15.16A49.23,49.23,0,0,0,33.43,60a49.24,49.24,0,0,0,9.89-1.47c6-2.57,8.35-8.18,10.53-15.24a3.66,3.66,0,0,0,1.33.25C59.65,43.49,59.64,36.64,55.18,36.64Z" transform="translate(0 0)"/><path class="cls-3" d="M55.42,41.39A1.2,1.2,0,1,0,55.78,39" transform="translate(0 0)"/><path class="cls-3" d="M12.33,41.27a1.21,1.21,0,0,1-1.38-1,1.2,1.2,0,0,1,1-1.36" transform="translate(0 0)"/><path class="cls-4" d="M55,21.29c-.32-1.07-1.51-7-11.21-11-8.79-3.58-15-3.68-16-3.67a.12.12,0,0,0-.11.17,11.14,11.14,0,0,0,1.76,3c.1.11,0,.27-.17.22-5.52-2.33-12.68-2.18-16.53-.75-.1,0-.18.09-.19.19C12.49,10.79,13.91,14,16,15.52a.18.18,0,0,1-.08.32c-5.61.65-7.21,2.82-7.77,3.5a.3.3,0,0,0,0,.36A19.85,19.85,0,0,0,11.22,23a.75.75,0,0,1,.28.77c-.85,4.14-1.15,11-.27,13.36.95,2.59,3.25,1.38,3.35-.95a59.84,59.84,0,0,1,1.57-9c.54.38,9.78,2.68,18.12,1.42a45.21,45.21,0,0,0,10.64-3.11,4.87,4.87,0,0,1,4.12.08,4.78,4.78,0,0,1,2.47,3.26,52.53,52.53,0,0,1,1.19,7.34c.1,2.33,2.39,3.54,3.34.95C57.13,34.16,56,24.41,55,21.29Z" transform="translate(0 0)"/><circle class="cls-5" cx="41.31" cy="38.55" r="1.93"/><circle class="cls-5" cx="25.25" cy="38.55" r="1.93"/><path class="cls-6" d="M33.14,45.32h0c-.81,0-1.62-.11-1.62-.52l.15-1.7c0-.41.66-.75,1.47-.75h0c.8,0,1.46.34,1.46.75l.16,1.7C34.76,45.21,33.94,45.32,33.14,45.32Z" transform="translate(0 0)"/><path class="cls-4" d="M23,32.47a.69.69,0,0,1-.74-.48.68.68,0,0,1,.46-.85,14.25,14.25,0,0,1,3.43-.59.69.69,0,0,1,.06,1.37,12.57,12.57,0,0,0-3.1.52Z" transform="translate(0 0)"/><path class="cls-4" d="M43.69,32.47A.68.68,0,0,0,44,31.14a14.41,14.41,0,0,0-3.44-.59.7.7,0,0,0-.71.66.7.7,0,0,0,.66.71,12.57,12.57,0,0,1,3.09.52Z" transform="translate(0 0)"/><path class="cls-7" d="M34,51.36a6.41,6.41,0,0,1-4-.81.53.53,0,0,1,.54-.92,5.38,5.38,0,0,0,5.27,0,.54.54,0,0,1,.73.21.53.53,0,0,1-.21.72A6.17,6.17,0,0,1,34,51.36Z" transform="translate(0 0)"/></svg>