<svg id="Layer_1" data-name="Layer 1" xmlns="http://www.w3.org/2000/svg" viewBox="0 0 66.57 66.57"><defs><style>.cls-1{fill:#81c7dd;}.cls-2{fill:#e0af56;}.cls-3{fill:#efc7b1;}.cls-4,.cls-6{fill:#cfa38c;}.cls-4{stroke:#cfa38c;stroke-linecap:round;stroke-linejoin:round;stroke-width:0.63px;}.cls-5{fill:#412312;}.cls-7{fill:#cb6b4f;}.cls-8{fill:#838bc5;}</style></defs><title>btn-child-blue</title><path class="cls-1" d="M66.57,14.79V52.08c-.09.47-.22.94-.27,1.42A14,14,0,0,1,55,66c-1,.2-1.92.36-2.87.53H14.5a11.44,11.44,0,0,0-1.13-.25A14,14,0,0,1,.5,54.65c-.2-1-.33-2.11-.5-3.17V14.79c.09-.52.21-1,.28-1.56C1.06,7.24,4.17,3,9.91,1a34.37,34.37,0,0,1,5.18-1H51.78a11.94,11.94,0,0,0,1.43.26A14,14,0,0,1,66,11.63C66.25,12.68,66.4,13.74,66.57,14.79Z" transform="translate(0 0)"/><path class="cls-2" d="M12.39,35.41V32.18c0-12.39,8.87-22.53,19.72-22.53h2.35c10.85,0,19.73,10.14,19.73,22.53v3.23c0,11.06,2.59,20.22-5.6,21.69a10.27,10.27,0,0,0,.14-3.24.59.59,0,0,0-1.18,0c-.28,1.37-.81,3.48-2.19,3.39H19.77A2.75,2.75,0,0,1,17.13,56c-1.34-2.2-.76-5.14-2.08-4.92,0,0-.49,1.18,0,4.74C10.5,52.15,12.39,44.87,12.39,35.41Z" transform="translate(0 0)"/><path class="cls-3" d="M50.53,33.65h-.08c0-.55,0-1.1,0-1.66,0-11.42-7.7-18.7-17.28-18.7S15.8,20.57,15.8,32c0,.56,0,1.12.06,1.67-3.42.16-3.37,5.56.15,5.56a2.92,2.92,0,0,0,.86-.14c1.75,5.72,5.57,10.25,10.38,12.33a17.34,17.34,0,0,0,5.84,1.2,18.16,18.16,0,0,0,6-1.2c4.83-2.08,8.65-6.65,10.4-12.4a2.72,2.72,0,0,0,1.07.21C54.11,39.22,54.1,33.65,50.53,33.65Z" transform="translate(0 0)"/><path class="cls-4" d="M50.21,37.44a1,1,0,0,0,.29-1.93" transform="translate(0 0)"/><path class="cls-4" d="M16.18,37.41a1,1,0,0,1-1.11-.81,1,1,0,0,1,.82-1.11" transform="translate(0 0)"/><path class="cls-2" d="M52.08,27.37a11.83,11.83,0,0,0-1.56-3.74,1.94,1.94,0,0,1-.35-1.05C50.08,20.31,48.1,18,45.24,17a7,7,0,0,0-1.13-.29,1.88,1.88,0,0,1-1.48-1.77,4.1,4.1,0,0,0-.16-1,4.39,4.39,0,0,0-.64-1.28C39.12,8.93,30.24,8.51,25,10.49c-5.77,2.18-12.89,9.42-11.45,14.32a5.87,5.87,0,0,0,3.74,3.56c3.66,1.49,9.11,1.33,13-.13A24.29,24.29,0,0,0,37.09,24a1.6,1.6,0,0,1,2.29.11,8.08,8.08,0,0,0,3.43,2.22,7.71,7.71,0,0,0,2.58.43,1.84,1.84,0,0,1,1.78,1.54l.12.55c.79,3.27,2.51,5.58,3.83,5.17S52.87,30.64,52.08,27.37Z" transform="translate(0 0)"/><circle class="cls-5" cx="25.45" cy="33.8" r="1.96"/><circle class="cls-5" cx="41.09" cy="33.8" r="1.96"/><path class="cls-6" d="M33.27,39.75h0c-.75,0-1.51-.11-1.51-.48l.14-.77a1.57,1.57,0,0,1,1.37-1.23h0a1.56,1.56,0,0,1,1.36,1.23l.15.77C34.78,39.64,34,39.75,33.27,39.75Z" transform="translate(0 0)"/><path class="cls-7" d="M32.65,45.38a4.7,4.7,0,0,1-2.81-1.1.63.63,0,1,1,.84-.93c1.38,1.23,4.21.88,5.18,0a.63.63,0,1,1,.84.94A5.84,5.84,0,0,1,32.65,45.38Z" transform="translate(0 0)"/><path class="cls-2" d="M23,28.82a.45.45,0,0,1-.34-.15.46.46,0,0,1,0-.65A3.64,3.64,0,0,1,26,27.2a.45.45,0,1,1-.23.88,2.73,2.73,0,0,0-2.48.62A.47.47,0,0,1,23,28.82Z" transform="translate(0 0)"/><path class="cls-2" d="M43.52,28.88a.45.45,0,0,0,.34-.15.46.46,0,0,0,0-.65,3.64,3.64,0,0,0-3.33-.82.45.45,0,1,0,.23.88,2.7,2.7,0,0,1,2.48.62A.47.47,0,0,0,43.52,28.88Z" transform="translate(0 0)"/><path class="cls-8" d="M52,30.69a.32.32,0,0,1-.62.12,39.7,39.7,0,0,0-2-4.53,37.79,37.79,0,0,0-3.16-5.12,35.87,35.87,0,0,0-3.87-4.47,33.26,33.26,0,0,0-3.57-3.07c-.28-.22-.11-.72.22-.66a12.53,12.53,0,0,1,4.53,1.84,18,18,0,0,1,4.7,4.49,20.19,20.19,0,0,1,3,6.05A17,17,0,0,1,52,30.69Z" transform="translate(0 0)"/></svg>