<svg id="Layer_1" data-name="Layer 1" xmlns="http://www.w3.org/2000/svg" viewBox="0 0 66.57 66.57"><defs><style>.cls-1{fill:#fff;}.cls-2{fill:#c3996b;}.cls-3{fill:#412312;}.cls-3,.cls-6{opacity:0.7;}.cls-4,.cls-8{fill:#a87d50;}.cls-4{stroke:#a87d50;stroke-linecap:round;stroke-miterlimit:10;stroke-width:0.5px;}.cls-5{fill:#231f20;}.cls-7{fill:#c75839;}.cls-9{fill:#00a79c;}.cls-10{fill:#009c94;}</style></defs><title>btn-baby-white</title><path class="cls-1" d="M53.21.26A14,14,0,0,1,66,11.63c.22,1,.37,2.11.54,3.16V52.08c-.09.47-.22.94-.27,1.42A14,14,0,0,1,55,66c-1,.2-1.92.36-2.87.53H14.5a11.44,11.44,0,0,0-1.13-.25A14,14,0,0,1,.5,54.65c-.2-1-.33-2.11-.5-3.17V14.79c.09-.52.21-1,.28-1.56C1.06,7.24,4.17,3,9.91,1a34.37,34.37,0,0,1,5.18-1" transform="translate(0 0)"/><path class="cls-2" d="M51.56,33.9c0-.52.06-1,.06-1.57,0-10.69-8.22-17.51-18.28-17.51S15.21,21.64,15.21,32.33c0,.53,0,1.05,0,1.56h-.08a2.62,2.62,0,1,0,0,5.22,3.24,3.24,0,0,0,1.12-.19,19.16,19.16,0,0,0,7.78,10,17.11,17.11,0,0,0,9.32,2.86,18,18,0,0,0,12.47-5.35A19.41,19.41,0,0,0,50.5,39a3.56,3.56,0,0,0,.9.12A2.6,2.6,0,1,0,51.56,33.9Z" transform="translate(0 0)"/><path class="cls-3" d="M31.19,22.1a3.54,3.54,0,0,1-.36-2.31A3.7,3.7,0,0,1,32,17.71a3.3,3.3,0,0,1,4.56.34,2.61,2.61,0,0,1,.49,2.46,2.39,2.39,0,0,1-1.88,1.66A2.14,2.14,0,0,1,33,21a1.61,1.61,0,0,1,.84-2.15A.13.13,0,0,1,34,19a.15.15,0,0,1-.07.17,1.23,1.23,0,0,0-.49,1.67,1.59,1.59,0,0,0,1.62.72,1.78,1.78,0,0,0,1.3-1.23A1.85,1.85,0,0,0,36,18.54a2.62,2.62,0,0,0-3.57-.34,3.32,3.32,0,0,0-1,3.79.13.13,0,0,1-.07.17A.14.14,0,0,1,31.19,22.1Z" transform="translate(0 0)"/><path class="cls-4" d="M15.18,37.31a.76.76,0,1,1-.22-1.5" transform="translate(0 0)"/><circle class="cls-5" cx="40.55" cy="34.87" r="2.02"/><circle class="cls-5" cx="26.98" cy="34.87" r="2.02"/><g class="cls-6"><path class="cls-3" d="M25,29.73a.43.43,0,0,1-.31-.13.42.42,0,0,1,0-.59,3.31,3.31,0,0,1,3-.74.42.42,0,0,1,.29.51.41.41,0,0,1-.5.29,2.47,2.47,0,0,0-2.23.55A.38.38,0,0,1,25,29.73Z" transform="translate(0 0)"/></g><g class="cls-6"><path class="cls-3" d="M42.52,29.68a.42.42,0,0,0,.31-.13.42.42,0,0,0,0-.59,3.3,3.3,0,0,0-3-.74A.41.41,0,0,0,40,29a2.42,2.42,0,0,1,2.23.55A.43.43,0,0,0,42.52,29.68Z" transform="translate(0 0)"/></g><path class="cls-4" d="M51.49,37.31a.76.76,0,0,0,.86-.64.74.74,0,0,0-.63-.86" transform="translate(0 0)"/><path class="cls-7" d="M33.93,44.31a4.62,4.62,0,0,1-2.24-.6.44.44,0,0,1-.18-.59.45.45,0,0,1,.6-.18,3.7,3.7,0,0,0,3.7,0,.44.44,0,0,1,.59.19.44.44,0,0,1-.19.59A5,5,0,0,1,33.93,44.31Z" transform="translate(0 0)"/><path class="cls-8" d="M33.9,39.58h0c-.64,0-1.27,0-1.27-.24l.11-.76c0-.19.52-.34,1.16-.34h0c.63,0,1.15.15,1.15.34l.12.76C35.17,39.53,34.53,39.58,33.9,39.58Z" transform="translate(0 0)"/><path class="cls-9" d="M41.6,45.41a4,4,0,0,0-3.93-4.15,7.42,7.42,0,0,0-2.8.93,2.65,2.65,0,0,1-2.49,0,7.17,7.17,0,0,0-2.72-1,4,4,0,0,0-4.07,4,3.43,3.43,0,0,0,1,2.67,6,6,0,0,0,2,1.17,15.58,15.58,0,0,0,5.86.84,11.28,11.28,0,0,0,5.35-1.24A3.68,3.68,0,0,0,41.6,45.41Z" transform="translate(0 0)"/><circle class="cls-10" cx="33.59" cy="45.1" r="3.5"/></svg>