<svg id="Layer_1" data-name="Layer 1" xmlns="http://www.w3.org/2000/svg" viewBox="0 0 306 306"><defs><style>.cls-1{fill:#dff3fb;}.cls-2{fill:#81c7dd;}.cls-3{fill:#fff;}.cls-4{fill:#1867a5;}.cls-5{fill:#975f2a;}.cls-6{fill:#00a79c;}.cls-7{fill:#84cba8;}.cls-8{fill:#c3996b;}.cls-9{fill:#c75839;}.cls-10{fill:#412312;opacity:0.7;}.cls-11,.cls-13{fill:#a87d50;}.cls-11{stroke:#a87d50;}.cls-11,.cls-16{stroke-linecap:round;stroke-miterlimit:10;stroke-width:0.5px;}.cls-12{fill:#231f20;}.cls-14{fill:#009c94;}.cls-15{fill:#a56d35;}.cls-16,.cls-18{fill:#8c562a;}.cls-16{stroke:#8c562a;}.cls-17{fill:#736458;}.cls-19{fill:#6d2812;}.cls-20{fill:#f3f3f3;opacity:0.2;}.cls-21{fill:#333;}.cls-22{fill:none;}</style></defs><title>scene-encourage</title><path class="cls-1" d="M153,0A153,153,0,0,0,19.85,228.4l13.54-42.64c2.22-6.28,9.23-9.92,16.2-10.25a6,6,0,0,1,1.83-.29l42.2-8h9.79l42.2,8c7.67,0,8.41,13.44,6.52,18.5-3,8-4.17,9.5-4.66,16.55l-.1,27.75c4.8,4.06,6.52,8.59,12.08,14.22l13-8.32a6.27,6.27,0,0,1,8.63,1.91l11.13,17.45a6.27,6.27,0,0,1-1.9,8.63l-43.21,27.56,0,6.41c2,.07,3.92.12,5.9.12a154.53,154.53,0,0,0,28.73-2.7l-5.94-16.05a3.94,3.94,0,0,1,2.32-5.05l12.21-4.52a4,4,0,0,1,5.05,2.32l6.23,16.83a4.29,4.29,0,0,1,.22,1.21A153,153,0,0,0,153,0Z"/><circle class="cls-2" cx="220.85" cy="109.84" r="51.21"/><path class="cls-2" d="M153.61,138.54l30-24a1.62,1.62,0,0,1,2.28.25l14.87,18.58A1.63,1.63,0,0,1,199.7,136l-44.88,5.44A1.63,1.63,0,0,1,153.61,138.54Z"/><path class="cls-3" d="M248.17,93c-3.23.17-6.48,0-9.72,0-.44,0-.89,0-1.57-.09a17,17,0,0,1,.72-1.56,19.49,19.49,0,0,0,2.87-11.53c-.23-5.91-3.58-9.31-9.49-9.36a3.27,3.27,0,0,0-3.25,1.78,21.21,21.21,0,0,0-1.92,5.09c-.74,3.85-1.78,7.47-4.86,10.18a15.33,15.33,0,0,0-1.36,1.62c-2.37,2.78-4.73,5.58-7.15,8.32a4.3,4.3,0,0,1-1.86,1.18c-2.12.67-2.72,1.37-2.73,3.61V116c0,4.51,0,9,0,13.53a3.14,3.14,0,0,0,2.26,3.17c3.33.92,6.69,1.74,10,2.84a52.33,52.33,0,0,0,22.58,2.63c5.83-.62,8.76-4.58,8.85-9.93a3,3,0,0,1,.41-1.71,10.82,10.82,0,0,0,2.16-7.93,3.22,3.22,0,0,1,.33-1.74,9.4,9.4,0,0,0,1.11-6.66,5.22,5.22,0,0,1,.75-3.78C260,99.3,254.62,92.62,248.17,93Z"/><path class="cls-3" d="M202.11,98.7H190.27c-2.54,0-3.5.93-3.52,3.45,0,4.5,0,9,0,13.52h0c0,4.7,0,9.4,0,14.09a2.75,2.75,0,0,0,3.08,3h12.26a2.93,2.93,0,0,0,3.22-3.23q0-13.8,0-27.62A2.92,2.92,0,0,0,202.11,98.7Z"/><path class="cls-4" d="M193.07,251.54l-39.37-71.3c-3.41-5.72-11-7.91-17.9-6.87l-32.39-6.12H93.62l-42.2,8a6,6,0,0,0-1.83.29c-7,.33-14,4-16.2,10.25L19.85,228.4a153.67,153.67,0,0,0,25.26,33.08l4.65-11.89.08,16.4a153.3,153.3,0,0,0,21.65,16.5l10-14.29c.36-.66.74-1.32,1.18-2l1.41-1.72,2.72-3.88a4.23,4.23,0,0,1,1.56-1.33l13.9-17c4.58-6.83,13.84-18,20.46-14.66,9.53,4.82,14,3.86,20.4,7.43l21.42,33.43a16.64,16.64,0,0,0,22.75,5.76h0A16.65,16.65,0,0,0,193.07,251.54Z"/><path class="cls-5" d="M98.84,195.3h-.66a17.39,17.39,0,0,1-17.39-17.39l-2.66-33.19h40.76l-2.66,33.19A17.38,17.38,0,0,1,98.84,195.3Z"/><rect class="cls-6" x="127.91" y="227.39" width="17.53" height="44.06" rx="3.3" ry="3.3" transform="translate(162 -33.87) rotate(33.83)"/><rect class="cls-7" x="96.67" y="211.01" width="22.91" height="36.48" rx="4.31" ry="4.31" transform="matrix(0.82, -0.57, 0.57, 0.82, -111.38, 102.49)"/><path class="cls-7" d="M109.31,232.59l-15.16-6.68a4.32,4.32,0,0,1-4.26-4.36l1.19-21.34A4.32,4.32,0,0,1,95.44,196l14.28.16a4.32,4.32,0,0,1,4.26,4.36l-.31,27.86A4.32,4.32,0,0,1,109.31,232.59Z"/><rect class="cls-8" x="92.91" y="181.92" width="20.88" height="25.79" rx="3.93" ry="3.93" transform="translate(13.24 -6.47) rotate(3.83)"/><rect class="cls-7" x="154.02" y="249.45" width="22.91" height="36.48" rx="4.31" ry="4.31" transform="translate(-131.51 371.81) rotate(-77.6)"/><path class="cls-1" d="M45.11,261.48c1.54,1.53,3.12,3,4.73,4.51l-.08-16.4Z"/><path class="cls-7" d="M140.71,305.51l1.61-3L138,305.27Q139.38,305.41,140.71,305.51Z"/><path class="cls-7" d="M82.68,266.22c-.44.66-.82,1.32-1.18,2l2.59-3.7Z"/><path class="cls-8" d="M195.37,280a4,4,0,0,0-5.05-2.32l-12.21,4.52a3.94,3.94,0,0,0-2.32,5.05l5.94,16.05A152.7,152.7,0,0,0,201.82,298a4.29,4.29,0,0,0-.22-1.21Z"/><path class="cls-7" d="M86.81,260.62l-2.72,3.88,4.28-5.21A4.23,4.23,0,0,0,86.81,260.62Z"/><path class="cls-7" d="M147.37,238a24,24,0,0,0-2.35-1.76h0c-7.43-5-11.85-3.31-22.29-8.59-6.62-3.35-15.88,7.83-20.46,14.66l-13.9,17-4.28,5.21-2.59,3.7-10,14.29q5.46,3.45,11.21,6.43,4.5,2.34,9.19,4.38l1.91.82L147.28,260l12.17-7.76C153.89,246.61,152.17,242.08,147.37,238Z"/><rect class="cls-7" x="166.45" y="257.58" width="22.91" height="36.48" rx="4.31" ry="4.31" transform="translate(-117.68 133.13) rotate(-31.41)"/><path class="cls-4" d="M192.24,263.28l-11.13-17.45a6.27,6.27,0,0,0-8.63-1.91l-13,8.32L147.28,260,93.8,294.12A152,152,0,0,0,138,305.27l4.28-2.73-1.61,3c2.12.17,4.25.28,6.39.37l0-6.41,43.21-27.56A6.27,6.27,0,0,0,192.24,263.28Z"/><path class="cls-4" d="M89.27,297l0,0,0,0Z"/><circle class="cls-3" cx="136.76" cy="249.28" r="1.72"/><circle class="cls-3" cx="133.07" cy="254.79" r="1.72"/><circle class="cls-3" cx="129.37" cy="260.3" r="1.72"/><path class="cls-9" d="M150.43,230.15a9.63,9.63,0,0,1-3.15-3.6.91.91,0,1,1,1.61-.84,7.65,7.65,0,0,0,6.34,4.24.91.91,0,0,1-.2,1.8A10.26,10.26,0,0,1,150.43,230.15Z"/><path class="cls-8" d="M190.57,235.19c.74-.78,1.45-1.6,2.13-2.45,13.84-17.21,9.44-38.81-6.75-51.83s-38-12.5-51.85,4.71c-.68.85-1.32,1.71-1.93,2.59l-.12-.12a5.41,5.41,0,1,0-6.76,8.4,6.8,6.8,0,0,0,2,1.14,39.62,39.62,0,0,0-.4,26.16,35.27,35.27,0,0,0,11.31,16.65,37,37,0,0,0,27,7.52,40,40,0,0,0,17.07-6,7.1,7.1,0,0,0,1.28,1.37C189.53,248.14,196.15,240.08,190.57,235.19Z"/><path class="cls-10" d="M173.06,189.84a7.32,7.32,0,0,1,2.41-4.18,7.65,7.65,0,0,1,4.62-1.8A6.78,6.78,0,0,1,187,190.3a5.34,5.34,0,0,1-2.39,4.6,4.92,4.92,0,0,1-5.16.23,4.42,4.42,0,0,1-2-4.64,3.31,3.31,0,0,1,4.13-2.38.3.3,0,0,1,.19.36.3.3,0,0,1-.33.2,2.53,2.53,0,0,0-3,2,3.23,3.23,0,0,0,1.68,3.26,3.65,3.65,0,0,0,3.67-.3,3.79,3.79,0,0,0,1.66-3.33,5.44,5.44,0,0,0-5.32-5.17,6.84,6.84,0,0,0-6.53,4.8.27.27,0,0,1-.33.17A.28.28,0,0,1,173.06,189.84Z"/><path class="cls-11" d="M127.62,193.61a1.57,1.57,0,1,1,1.58-2.71"/><circle class="cls-12" cx="170.61" cy="218.8" r="4.18"/><circle class="cls-12" cx="148.77" cy="201.24" r="4.18"/><path class="cls-10" d="M153.31,193.58a.81.81,0,0,1-.22-.65.85.85,0,0,1,.92-.78,6.8,6.8,0,0,1,5.31,3.54.85.85,0,0,1-.36,1.15.87.87,0,0,1-1.15-.35,5,5,0,0,0-3.95-2.64A.85.85,0,0,1,153.31,193.58Z"/><path class="cls-10" d="M179.52,218.64a.82.82,0,0,0,.62.28.86.86,0,0,0,.86-.85,6.82,6.82,0,0,0-3.05-5.61.85.85,0,0,0-1.18.25.86.86,0,0,0,.25,1.18,5.05,5.05,0,0,1,2.27,4.17A.84.84,0,0,0,179.52,218.64Z"/><path class="cls-11" d="M186.05,240.59a1.57,1.57,0,0,0,2.31-2.12"/><path class="cls-13" d="M153.4,217.49h0c-.87-1-1.67-2-1.38-2.29l1.35-.87c.28-.25,1.23.34,2.1,1.31h0c.87,1,1.35,2,1.06,2.24l-1,1.25C155.23,219.38,154.27,218.46,153.4,217.49Z"/><path class="cls-6" d="M157.36,239.63a8.35,8.35,0,0,0-.51-11.8c-1.13-1-3.62-1.82-5.63-2.34A5.53,5.53,0,0,1,147.4,222c-.7-1.9-1.73-4.25-2.86-5.26a8.35,8.35,0,0,0-11.78.75,7,7,0,0,0-2.07,5.5,12.57,12.57,0,0,0,1.61,4.6,32.07,32.07,0,0,0,8,9.25c2.87,2.35,6.28,4.61,10,5.3A7.61,7.61,0,0,0,157.36,239.63Z"/><circle class="cls-14" cx="145.28" cy="228.3" r="7.22"/><path class="cls-15" d="M151.22,105.84l-.25,0c-.09-1.63-.23-3.28-.44-4.93-4.28-33.63-31.3-52-61.5-48.14S36.86,81.24,41.14,114.88c.21,1.65.48,3.29.8,4.9-10.72,1.85-8.53,17.72,2.56,16.31a9.89,9.89,0,0,0,2.65-.75c7.68,16.14,21.4,28,37.34,32.16a58.22,58.22,0,0,0,18.87,1.2,60.56,60.56,0,0,0,18.37-5.93c14.44-8.08,24.78-23.06,28.14-40.7a9.43,9.43,0,0,0,3.44.18C164.59,120.82,162.48,104.41,151.22,105.84Z"/><path class="cls-16" d="M153.27,117.14a3.05,3.05,0,0,0,3.17-2.84,2.93,2.93,0,0,0-3-2.94"/><path class="cls-16" d="M44.35,130.71a3,3,0,0,1-3.78-2,2.92,2.92,0,0,1,2.14-3.58"/><path class="cls-17" d="M150.83,77.31c-2.9-8.77-7.51-16.8-14.27-22.93-11.22-10.19-27-13.81-41.92-13.22-14.65.58-29.39,5-40.84,14.32a52.27,52.27,0,0,0-16.35,23c-3.62,10.24-2.89,21-1,31.63.43,2.44,1,4.87,1.56,7.28s1.67,5,4,5.47c1.83.32,3.61-1.11,4.37-2.85a14.15,14.15,0,0,0,.74-5.62,145.89,145.89,0,0,1,2-23.34c.73-4.33,1.74-6.17,4.56-9.48S61,79.19,65.45,78.69c8.72-1,17.4,2,26.16,2.62,7.47.52,14.89-.67,22.27-1.65,5.79-.76,14.74-5.8,19.87-1.84a19.45,19.45,0,0,1,7.05,9.4c2.11,5.58,3.31,11.48,4.94,17.2.5,1.73,1.18,3.64,2.78,4.4,1.9.91,4.25-.37,5.26-2.23s1-4.12,1-6.26A83,83,0,0,0,150.83,77.31Z"/><circle class="cls-12" cx="119.44" cy="112.58" r="5.3"/><circle class="cls-12" cx="75.62" cy="118.15" r="5.3"/><path class="cls-18" d="M99.38,131.73h0c-3,.39-6.12.58-6.21-.13l.19-3c-.09-.71,2.33-1.6,5.37-2h0c3-.39,5.61-.12,5.7.59l1,2.84C105.48,130.76,102.42,131.35,99.38,131.73Z"/><path class="cls-19" d="M100.83,149.08a12.86,12.86,0,0,1-8-1.36,1.7,1.7,0,1,1,1.69-2.95c4.37,2.51,11.67,0,13.77-2.84a1.7,1.7,0,0,1,2.74,2C109.22,146.34,105.14,148.53,100.83,149.08Z"/><path class="cls-17" d="M67.09,105.39a2.24,2.24,0,0,1-1.65-4A16.86,16.86,0,0,1,76.61,98a2.24,2.24,0,1,1-.28,4.47A12.48,12.48,0,0,0,68.16,105,2.26,2.26,0,0,1,67.09,105.39Z"/><path class="cls-17" d="M123.93,98.16a2.23,2.23,0,0,0,1.79-1.35,2.26,2.26,0,0,0-1.2-2.94,16.89,16.89,0,0,0-11.66-.47,2.24,2.24,0,0,0,1.39,4.26,12.45,12.45,0,0,1,8.53.35A2.3,2.3,0,0,0,123.93,98.16Z"/><rect class="cls-20" x="107.03" y="111.52" width="30.42" height="18.27" rx="3.44" ry="3.44" transform="translate(-14.25 16.39) rotate(-7.25)"/><rect class="cls-20" x="59.9" y="117.51" width="30.42" height="18.27" rx="3.44" ry="3.44" transform="translate(-15.38 10.49) rotate(-7.25)"/><path class="cls-21" d="M90.18,125.45a1.77,1.77,0,0,1-1.83-.93,1.64,1.64,0,0,1,.88-2.22,30.67,30.67,0,0,1,17.9-2.27,1.63,1.63,0,0,1,1.4,1.93,1.81,1.81,0,0,1-2.1,1.34,26.9,26.9,0,0,0-15.71,2A1.82,1.82,0,0,1,90.18,125.45Z"/><circle class="cls-22" cx="153" cy="153" r="153"/></svg>