<svg id="Layer_1" data-name="Layer 1" xmlns="http://www.w3.org/2000/svg" viewBox="0 0 306 306"><defs><style>.cls-1{fill:#dff3fb;}.cls-2{fill:#c3996b;}.cls-3{fill:#01a79d;}.cls-4,.cls-5{fill:#068079;}.cls-5{stroke:#068079;stroke-width:0.53px;}.cls-10,.cls-18,.cls-5,.cls-8{stroke-linecap:round;}.cls-10,.cls-5,.cls-8{stroke-linejoin:round;}.cls-6{fill:#a7a9ac;}.cls-7{fill:#7b1e1d;}.cls-22,.cls-8{fill:none;}.cls-8{stroke:#a7a9ac;stroke-width:1.64px;}.cls-10,.cls-9{fill:#a87d50;}.cls-10{stroke:#a87d50;stroke-width:0.57px;}.cls-11{fill:#010101;}.cls-12{fill:#cb6b4f;}.cls-13{fill:#1a1a1a;}.cls-14{fill:#5e361f;}.cls-15{fill:#282560;}.cls-16,.cls-18{fill:#482a1a;}.cls-17{fill:#57341e;}.cls-18{stroke:#482a1a;stroke-miterlimit:10;}.cls-19{fill:#f3f3f3;opacity:0.2;}.cls-20{fill:#4e4e4e;}.cls-21{fill:#551e0d;}</style></defs><title>scene-ask-help</title><circle class="cls-1" cx="153" cy="153" r="153"/><path class="cls-2" d="M135.16,197.16h.76a9.74,9.74,0,0,1,9.74,9.74v68.2a4.51,4.51,0,0,1-4.51,4.51H129.94a4.51,4.51,0,0,1-4.51-4.51v-68.2a9.74,9.74,0,0,1,9.74-9.74Z"/><path class="cls-2" d="M138.75,215.54l-2,.61c-4.81,1.49-9.88-1.68-11.28-7.05l-15.85-55c-1.4-5.36,2.79-11.4,7.59-12.89l2-.61c4.8-1.49,11.28,1.25,12.68,6.62l13,55.84C146.35,208.45,143.56,214.05,138.75,215.54Z" transform="translate(0 0)"/><path class="cls-2" d="M134.22,257.77h.89a11.34,11.34,0,0,1,11.34,11.34v9.65a6.06,6.06,0,0,1-6.06,6.06H128.93a6.06,6.06,0,0,1-6.06-6.06V269.1a11.34,11.34,0,0,1,11.34-11.34Z"/><path class="cls-3" d="M141.12,183.13l-8.07-34.95c-1.5-5.85-8.38-8.9-13.48-7.33l-3.41,1a10.83,10.83,0,0,0-7.08,13l9.69,33.71A65.86,65.86,0,0,0,141.12,183.13Z" transform="translate(0 0)"/><path class="cls-2" d="M17.26,103.83H28.17a4.66,4.66,0,0,1,4.66,4.66v68a9.74,9.74,0,0,1-9.74,9.74h-.76a9.74,9.74,0,0,1-9.74-9.74v-68A4.66,4.66,0,0,1,17.26,103.83Z" transform="translate(31.14 -1.53) rotate(12.19)"/><path class="cls-2" d="M24.28,97.56H36.55a5.65,5.65,0,0,1,5.65,5.65v10.06a11.34,11.34,0,0,1-11.34,11.34H30a11.34,11.34,0,0,1-11.34-11.34V103.21A5.65,5.65,0,0,1,24.28,97.56Z" transform="translate(24.14 -3.92) rotate(12.19)"/><path class="cls-2" d="M7,180.11l1,1.82c2.36,4.44,8.2,5.76,13,2.94l41.88-23c4.77-2.82,6-10.06,3.69-14.5l-1-1.82c-2.36-4.44-8.89-7.06-13.66-4.24L11.4,166.9C6.63,169.72,4.66,175.67,7,180.11Z" transform="translate(0 0)"/><path class="cls-3" d="M28.18,155.44l22.24-14.26c5.19-3.09,12.22-.41,14.73,4.3l1.75,3.08a10.82,10.82,0,0,1-4.17,14.24L40.22,175A55.51,55.51,0,0,1,28.18,155.44Z" transform="translate(0 0)"/><path class="cls-4" d="M70.68,219.89c-7.69,0-15.74,5.76-15.74,12.8l1,38.57a152.85,152.85,0,0,0,29,18.8l1.47-57.37C86.42,225.65,78.36,219.89,70.68,219.89Z" transform="translate(0 0)"/><path class="cls-4" d="M120.28,232.46c0-7.05-8.06-12.81-15.75-12.81h0c-7.68,0-15.74,5.76-15.74,12.81l1.54,60.15a151.53,151.53,0,0,0,28.15,9.48c0-.13,0-.27,0-.4Z" transform="translate(0 0)"/><path id="_Path_" data-name="&lt;Path&gt;" class="cls-3" d="M125.09,152c1.26-3.26,2.24-11.73-2.87-11.73l-33.54-4.87h-2.1L53,140.26c-5.11,0-4.13,8.47-2.87,11.73,2,5.12,2.77,6.24,3.09,10.74a1.48,1.48,0,0,1,0,.21l.09,67.19a2.56,2.56,0,0,0,2.56,2.56h63.42a2.56,2.56,0,0,0,2.56-2.56l.09-67.19a1.48,1.48,0,0,1,0-.21C122.32,158.23,123.12,157.11,125.09,152Z" transform="translate(0 0)"/><path class="cls-5" d="M55,235c0,8.54,7.63,15.53,16.95,15.53h31.28c9.32,0,17-7,17-15.53l.06-2.28H55Z" transform="translate(0 0)"/><path class="cls-6" d="M104.48,201.66c-8,0-8-9-8-12.81v-5.21a1.33,1.33,0,0,1,2.66,0v5.21c0,7.3,1.49,10.15,5.32,10.15a1.33,1.33,0,0,1,0,2.66Z" transform="translate(0 0)"/><circle class="cls-7" cx="104.5" cy="200.62" r="2.77"/><path class="cls-6" d="M112.63,201.63c8,0,8-9,8-12.81v-5.21a1.33,1.33,0,1,0-2.66,0v5.21c0,7.3-1.49,10.15-5.32,10.15a1.33,1.33,0,0,0,0,2.66Z" transform="translate(0 0)"/><circle class="cls-7" cx="112.6" cy="200.59" r="2.77"/><path class="cls-7" d="M119.15,187.38a2.66,2.66,0,0,1-2.66-2.66V174.08a7.95,7.95,0,0,0-15.89,0v10.64a2.67,2.67,0,0,1-5.33,0V174.08a13.27,13.27,0,1,1,26.54,0v10.64A2.66,2.66,0,0,1,119.15,187.38Z" transform="translate(0 0)"/><path class="cls-8" d="M125.37,185.35" transform="translate(0 0)"/><path class="cls-7" d="M108.74,164.66a2.67,2.67,0,0,1-2.66-2.67V147a9.23,9.23,0,0,0-9.21-9.22H91.4a2.66,2.66,0,0,1,0-5.32h5.47A14.56,14.56,0,0,1,111.41,147v15A2.68,2.68,0,0,1,108.74,164.66Z" transform="translate(0 0)"/><circle class="cls-6" cx="66.97" cy="168.55" r="9.36"/><circle class="cls-7" cx="67.13" cy="168.5" r="5.14"/><path class="cls-7" d="M67.23,166.93h-.09a2.66,2.66,0,0,1-2.57-2.75L65.14,147a14.54,14.54,0,0,1,14.54-14.45H86a2.66,2.66,0,1,1,0,5.32H79.68a9.23,9.23,0,0,0-9.21,9.22l-.58,17.28A2.66,2.66,0,0,1,67.23,166.93Z" transform="translate(0 0)"/><path class="cls-9" d="M87.78,160.05h0l-10.32-21.3a3.69,3.69,0,0,1-.49-1.83V123.64a3.89,3.89,0,0,1,3.89-3.89H94.69a3.9,3.9,0,0,1,3.9,3.89v13.28a3.69,3.69,0,0,1-.49,1.83Z" transform="translate(0 0)"/><path class="cls-2" d="M121.35,95.32h-.15c.07-1.12.1-2.25.1-3.39,0-23.28-14.93-38.11-33.5-38.11S54,68.66,54,91.94c0,1.14,0,2.28.11,3.41-6.62.33-6.53,11.32.3,11.32a5.45,5.45,0,0,0,1.66-.27c3.4,11.65,10.79,20.9,20.11,25.13A32.19,32.19,0,0,0,87.55,134a33.33,33.33,0,0,0,11.57-2.45c9.36-4.25,16.77-13.55,20.16-25.27a5.38,5.38,0,0,0,2.07.41C128.29,106.67,128.27,95.32,121.35,95.32Z" transform="translate(0 0)"/><path class="cls-10" d="M121,103.05a1.9,1.9,0,0,0,2.14-1.66,2,2,0,0,0-1.58-2.26" transform="translate(0 0)"/><path class="cls-10" d="M54.77,103a1.9,1.9,0,0,1-2.14-1.66,2,2,0,0,1,1.58-2.26" transform="translate(0 0)"/><path class="cls-11" d="M95.19,50.78c16.33,3,26.78,10.93,25.16,15.2,0,0,7.09,11.12,3.75,27.73-.83,4.08-5.2,2.06-5.36-1.42-.2-4.29-2.66-15.2-4.25-19.12-5.83,3-17.32,5-30.56,5a100.12,100.12,0,0,1-22.82-2.38c-1.48,4.91-3.18,12.92-3.35,16.45s-3.83,5.29-5.35,1.42S51.51,79.05,53,73C43.69,66.36,66.25,45.44,95.19,50.78Z" transform="translate(0 0)"/><circle class="cls-11" cx="73.3" cy="98.45" r="3.26"/><circle class="cls-11" cx="102.48" cy="98.45" r="3.26"/><path class="cls-4" d="M268.88,221.55c-4.9-4.31-14.47-7.31-20.1-7.31s-14.93,2.92-19.89,7.14c-4.95-4.22-14.33-7.14-19.89-7.14-7.8,0-23.18,5.76-23.18,12.8l5.39,69.24a6.32,6.32,0,0,0,.09,1.06l.19,3.77a152.1,152.1,0,0,0,32-12.27c1.37-.72,2.74-1.46,4.09-2.21l1.34-17.31,1.24,15.84a153.76,153.76,0,0,0,35.7-28.83,11.29,11.29,0,0,1,.16-1.82l1.12-6.08a11,11,0,0,1,2.44-5.11Z" transform="translate(0 0)"/><path class="cls-9" d="M87.88,110.54h0c-1.34,0-2.69-.23-2.69-1.08l.25-3.51c0-.85,1.1-1.18,2.44-1.18h0c1.34,0,2.44.33,2.44,1.18l.26,3.51C90.58,110.31,89.22,110.54,87.88,110.54Z" transform="translate(0 0)"/><path class="cls-12" d="M86.77,121.16a8.52,8.52,0,0,1-5-2,1.13,1.13,0,0,1-.09-1.59,1.12,1.12,0,0,1,1.58-.09c2.48,2.21,7.53,1.59,9.27,0a1.12,1.12,0,1,1,1.5,1.67A10.48,10.48,0,0,1,86.77,121.16Z" transform="translate(0 0)"/><path class="cls-11" d="M68.71,89.85a1.5,1.5,0,0,1-.75-2.8,11.36,11.36,0,0,1,7.7-1.3,1.5,1.5,0,1,1-.56,3,8.34,8.34,0,0,0-5.64,1A1.48,1.48,0,0,1,68.71,89.85Z" transform="translate(0 0)"/><path class="cls-11" d="M106.84,89.85a1.5,1.5,0,0,0,.75-2.8,11.39,11.39,0,0,0-7.71-1.3,1.5,1.5,0,0,0,.57,3,8.35,8.35,0,0,1,5.64,1A1.43,1.43,0,0,0,106.84,89.85Z" transform="translate(0 0)"/><path class="cls-13" d="M207.26,128.73c-3.1,4.35-10.54,4.36-16.63,0s-8.51-11.37-5.41-15.72,11.72-6.38,17.81-2S210.35,124.39,207.26,128.73Z" transform="translate(0 0)"/><path id="_Clipping_Path_" data-name="&lt;Clipping Path&gt;" class="cls-3" d="M263.79,138.08l-33.61-6.49h-2.61L194,138.08c-5.19,0-2.63,10.09-1.35,13.35,1.84,4.68,1.24,34.24,1,35.51l-7.76,36.94c-1.43,8.85-2.24,21.2.13,21.2h85.71c2.36,0,1.55-12.35.13-21.2l-7.76-36.94c-.2-1.27-.8-30.83,1-35.51C266.41,148.17,269,138.08,263.79,138.08Z" transform="translate(0 0)"/><path class="cls-14" d="M290.54,196.26c0-.23,0-.47,0-.7A8.87,8.87,0,0,0,290,193l-.71-1.95-16.7-45.38c-2-5.31-8.34-8.27-14.2-6.58s-9,7.42-7.09,12.72l16.87,45.85.74,23.92.67,21.77a11,11,0,0,0-2.44,5.11L266,254.51a11.29,11.29,0,0,0-.16,1.82,153,153,0,0,0,25.4-37.67Z" transform="translate(0 0)"/><path class="cls-14" d="M148.75,109.1h0c5.92-1.72,12,1.28,13.41,6.66l13,48c1.46,5.38-2.2,11.19-8.13,12.9h0c-5.93,1.72-12-1.28-13.42-6.66l-12.95-48C139.16,116.62,142.82,110.81,148.75,109.1Z" transform="translate(0 0)"/><path class="cls-14" d="M152.43,127.31h0c-6.79.58-13.08-4-14-10.23l-.9-6.11c-.91-6.2,3.9-11.75,10.69-12.32h0c6.78-.57,13.08,4,14,10.23l.9,6.12C164,121.2,159.21,126.74,152.43,127.31Z" transform="translate(0 0)"/><path class="cls-14" d="M155.16,172h0c-3.39-5.06-2.13-11.5,2.78-14.3l34.12-18.46c4.91-2.79,11.7-.94,15.09,4.13h0c3.38,5.07,2.13,11.5-2.79,14.3l-34.11,18.46C165.33,178.89,158.54,177,155.16,172Z" transform="translate(0 0)"/><path class="cls-3" d="M171,149.42l22-11c5.41-2.82,12.31.24,14.55,5.08l1.57,3.18a10.89,10.89,0,0,1-5.07,14l-22.12,9A55,55,0,0,1,171,149.42Z" transform="translate(0 0)"/><path class="cls-3" d="M285.29,178.24l-12.91-33.83c-2.32-5.65-9.57-7.76-14.4-5.5l-3.25,1.41a10.9,10.9,0,0,0-5.18,14l14.35,32.37A55,55,0,0,0,285.29,178.24Z" transform="translate(0 0)"/><path class="cls-6" d="M212.53,199.6c8,0,8-9,8-12.81v-5.21a1.33,1.33,0,1,0-2.66,0v5.21c0,7.31-1.49,10.15-5.32,10.15a1.33,1.33,0,0,0,0,2.66Z" transform="translate(0 0)"/><circle class="cls-15" cx="212.51" cy="198.56" r="2.77"/><path class="cls-6" d="M204.38,199.57c-8,0-8-9-8-12.81v-5.21a1.33,1.33,0,1,1,2.66,0v5.21c0,7.31,1.49,10.15,5.32,10.15a1.33,1.33,0,1,1,0,2.66Z" transform="translate(0 0)"/><circle class="cls-15" cx="204.4" cy="198.53" r="2.77"/><path class="cls-15" d="M197.86,185.32a2.66,2.66,0,0,0,2.66-2.66V172a7.95,7.95,0,0,1,15.89,0v10.64a2.66,2.66,0,1,0,5.32,0V172a13.27,13.27,0,1,0-26.54,0v10.64A2.67,2.67,0,0,0,197.86,185.32Z" transform="translate(0 0)"/><path class="cls-8" d="M191.64,183.29" transform="translate(0 0)"/><path class="cls-15" d="M208.26,162.6a2.67,2.67,0,0,0,2.66-2.66v-15a9.24,9.24,0,0,1,9.22-9.22h5.47a2.66,2.66,0,0,0,0-5.32h-5.47a14.55,14.55,0,0,0-14.54,14.54v15A2.67,2.67,0,0,0,208.26,162.6Z" transform="translate(0 0)"/><circle class="cls-6" cx="250.83" cy="166.23" r="9.36"/><circle class="cls-15" cx="250.67" cy="166.18" r="5.14"/><path class="cls-15" d="M250.57,164.61h.1a2.66,2.66,0,0,0,2.57-2.75l-.58-17.19a14.53,14.53,0,0,0-14.54-14.45h-6.3a2.66,2.66,0,0,0,0,5.32h6.3a9.24,9.24,0,0,1,9.22,9.22l.58,17.28A2.65,2.65,0,0,0,250.57,164.61Z" transform="translate(0 0)"/><polygon class="cls-16" points="228.65 155.37 228.65 155.37 217.27 136.13 216.89 115.73 240.33 115.73 239.95 136.13 228.65 155.37"/><path class="cls-17" d="M266.63,99.92l-.18,0c.08-1.17.13-2.35.13-3.54,0-24.23-17-39.68-38.09-39.68S190.12,72.17,190.12,96.4c0,1.2,0,2.38.13,3.55-7.53.35-7.42,11.8.33,11.8a6.57,6.57,0,0,0,1.89-.29c3.87,12.14,10.67,16.37,21.26,20.78a54.68,54.68,0,0,0,14.48,2.55A56.46,56.46,0,0,0,243,132.24c10.64-4.43,17.45-8.72,21.31-20.93a6.35,6.35,0,0,0,2.35.44C274.51,111.75,274.5,99.92,266.63,99.92Z" transform="translate(0 0)"/><path class="cls-18" d="M265.76,107.28a2.05,2.05,0,0,0,2.34-1.65,2,2,0,0,0-1.73-2.24" transform="translate(0 0)"/><path class="cls-18" d="M191.54,107.57a2.05,2.05,0,0,1-2.34-1.65,2,2,0,0,1,1.72-2.24" transform="translate(0 0)"/><circle class="cls-11" cx="244.13" cy="98.28" r="3.57"/><circle class="cls-11" cx="214.41" cy="98.28" r="3.57"/><path class="cls-16" d="M229,109.15h0c-2,0-3.94-.18-3.94-.83l.36-1.73c0-.65,1.61-1.19,3.58-1.19h0c2,0,3.57.54,3.57,1.19l.38,1.73C232.94,109,231,109.15,229,109.15Z" transform="translate(0 0)"/><path class="cls-11" d="M210,89.83a.76.76,0,0,1-.47-1.35c2.64-1.8,4-2,7.27-1.78a.73.73,0,0,1,.64.85.79.79,0,0,1-.85.65c-2.87-.08-3.83,0-6.13,1.47A.83.83,0,0,1,210,89.83Z" transform="translate(0 0)"/><path class="cls-11" d="M248.75,89.83a.75.75,0,0,0,.59-.29.74.74,0,0,0-.13-1.06c-2.63-1.8-4-2-7.27-1.78a.74.74,0,0,0-.64.85.79.79,0,0,0,.85.65c2.87-.08,3.83,0,6.13,1.47A.83.83,0,0,0,248.75,89.83Z" transform="translate(0 0)"/><rect class="cls-19" x="233.94" y="96.48" width="17.28" height="11.17" rx="2" ry="2"/><rect class="cls-19" x="207.02" y="96.48" width="17.28" height="11.17" rx="2" ry="2"/><path class="cls-20" d="M224.3,101.57a1,1,0,0,1-1-.71,1,1,0,0,1,.65-1.27,16.19,16.19,0,0,1,10.25,0,1,1,0,1,1-.63,1.93,14.21,14.21,0,0,0-9,0A1.06,1.06,0,0,1,224.3,101.57Z" transform="translate(0 0)"/><path class="cls-21" d="M228.14,119.77a7.8,7.8,0,0,1-4.77-1.45,1,1,0,0,1,1.25-1.65c2.45,1.85,7.06.9,8.55-.66a1,1,0,0,1,1.47,0,1,1,0,0,1,0,1.46A9.64,9.64,0,0,1,228.14,119.77Z" transform="translate(0 0)"/><path class="cls-13" d="M269.56,78.72c-.17-.86-.37-1.73-.59-2.58A35.58,35.58,0,0,0,259,58.89c-5.6-5.16-13-8-20.51-9.35-10.61-1.87-21.93-.78-31.45,4.28A36.46,36.46,0,0,0,187.73,84a57.45,57.45,0,0,0,.55,12.77c.28,1.77,1.09,3.93,2.88,4A2.9,2.9,0,0,0,193.68,99a15.32,15.32,0,0,0,.88-3.13A13.15,13.15,0,0,1,200.22,88c3.37-2.13,7.5-2.59,11.44-3.24a95.49,95.49,0,0,0,36-13.93c7.25,8.2,7.31,21.53,15.85,28.38,1.24,1,2.92,1.84,4.37,1.18s2-2.6,2.15-4.26A57,57,0,0,0,269.56,78.72Z" transform="translate(0 0)"/><path class="cls-22" d="M227.55,286.63l2.58-1.47-1.24-15.84Z" transform="translate(0 0)"/><path class="cls-22" d="M153,0A153,153,0,0,0,55.92,271.26l-1-38.57c0-7,8.05-12.8,15.74-12.8s15.74,5.76,15.74,12.8L85,290.06c1.78.88,3.57,1.74,5.38,2.55l-1.54-60.15c0-7.05,8.06-12.81,15.74-12.81h0c7.69,0,15.75,5.76,15.75,12.81l-1.77,69.23c0,.13,0,.27,0,.4a154.12,154.12,0,0,0,73-1l-.19-3.77a6.32,6.32,0,0,1-.09-1.06L185.82,227c0-7,15.38-12.8,23.18-12.8,5.56,0,14.94,2.92,19.89,7.14,5-4.22,14.34-7.14,19.89-7.14s15.2,3,20.1,7.31l-.74-23.92-16.87-45.85c-2-5.3,1.24-11,7.09-12.72s12.24,1.27,14.2,6.58L289.26,191a9.38,9.38,0,0,1,1.25,4.35v.19c0,.23,0,.47,0,.7l.69,22.4A153.06,153.06,0,0,0,153,0Z" transform="translate(0 0)"/><path class="cls-14" d="M290.51,195.56v-.19a9.38,9.38,0,0,0-1.25-4.35L290,193A8.87,8.87,0,0,1,290.51,195.56Z" transform="translate(0 0)"/></svg>