<svg id="Layer_1" data-name="Layer 1" xmlns="http://www.w3.org/2000/svg" viewBox="0 0 306 306"><defs><style>.cls-1{fill:#dff3fb;}.cls-2{fill:#e5c29c;}.cls-3{fill:#4c5f2b;}.cls-4{fill:#f0d0a6;}.cls-5{fill:#d6b18c;}.cls-6{fill:#232323;}.cls-7{fill:#010101;}.cls-8{fill:#c75839;}.cls-9{fill:#cc8638;}.cls-10{fill:#fcb460;}</style></defs><title>scene-cream</title><circle class="cls-1" cx="153" cy="153" r="153"/><path class="cls-2" d="M95.79,238.63h0c8.46,0,15.31-12.19,15.31-21.15v-8.34a96.76,96.76,0,0,1-14.2,1.41,104.11,104.11,0,0,1-16.42-1.83v8.76C80.48,226.44,87.34,238.63,95.79,238.63Z"/><path class="cls-3" d="M187.78,233.49,147.43,218a13,13,0,0,0-6.48-1.83l-29.85-5.08v6.41c0,9-6.85,21.15-15.31,21.15h0c-8.45,0-15.31-12.19-15.31-21.15v-6.41l-29.85,5.08a12.08,12.08,0,0,0-2,.19c-6.33,0-13,2.71-15.59,7.72l-6.91,14.5A152.84,152.84,0,0,0,152.4,306c-.06-13.82-1.34-37.16-2-48.84l21.22,6.68c.29-.36.56-.72.84-1.08a97.47,97.47,0,0,0,11.76-18.68Z"/><path class="cls-4" d="M96.9,210.55a96.76,96.76,0,0,0,14.2-1.41,120.47,120.47,0,0,0,12.84-2.62c16.47-7,22.82-22.34,28.78-41.66a9.79,9.79,0,0,0,3.64.69c11.24,0,12.1-15.87,2.65-18.38-.1.39-.21.76-.33,1.09-2.6,7.07-8.87,3.77-9.14-2.61-.19-4.36-1.58-12.48-3.24-20.05a12.86,12.86,0,0,0-18-9.13A122.75,122.75,0,0,1,99.2,125c-22.79,3.43-48.05-2.84-49.52-3.88-.4-.28-4,18.51-4.3,24.56-.28,6.38-6.55,9.68-9.15,2.61-.11-.32-.22-.66-.32-1-9.35,2.59-8.44,18.32,2.74,18.32a9.87,9.87,0,0,0,2.92-.46c6,19.21,12.31,34.45,28.71,41.43a100.73,100.73,0,0,0,10.2,2.2A104.11,104.11,0,0,0,96.9,210.55Zm61.1-57.2a3.26,3.26,0,1,1-1,6.45Zm-122.54,3.4A3.26,3.26,0,0,1,38.23,153l1,6.46A3.29,3.29,0,0,1,35.46,156.75Zm80.89-26.55a38.08,38.08,0,0,1,9.39,1.6,1.86,1.86,0,0,1-.79,3.63l-.29-.07a34.46,34.46,0,0,0-8.47-1.44,1.89,1.89,0,0,1-1.78-1.94A1.86,1.86,0,0,1,116.35,130.2Zm2.1,16.57a5.27,5.27,0,1,1-5.27,5.27A5.27,5.27,0,0,1,118.45,146.77ZM92.1,164.49c0-1.12,1.8-2,4-2s4,.92,4,2l.43,4.63c0,1.13-2.23,1.44-4.44,1.44s-4.41-.31-4.41-1.44Zm-4.9,18.37a1.46,1.46,0,0,1,2-.52,14.7,14.7,0,0,0,14.41.11A1.46,1.46,0,1,1,105,185a17.22,17.22,0,0,1-6.46,2.09,17.58,17.58,0,0,1-10.85-2.22A1.46,1.46,0,0,1,87.2,182.86ZM68.26,135.43a1.86,1.86,0,0,1-.78-3.63,38.08,38.08,0,0,1,9.39-1.6A1.86,1.86,0,0,1,78.81,132,1.89,1.89,0,0,1,77,133.92a34.46,34.46,0,0,0-8.47,1.44Zm6.27,21.88A5.27,5.27,0,1,1,79.8,152,5.27,5.27,0,0,1,74.53,157.31Z"/><path class="cls-5" d="M160.77,157.06a3.27,3.27,0,0,0-2.77-3.71l-1,6.45A3.29,3.29,0,0,0,160.77,157.06Z"/><path class="cls-5" d="M35.46,156.75a3.29,3.29,0,0,0,3.76,2.74l-1-6.46A3.26,3.26,0,0,0,35.46,156.75Z"/><path class="cls-6" d="M45.38,145.65c.26-6.05,3.9-24.84,4.3-24.56,1.47,1,26.73,7.31,49.52,3.88a122.75,122.75,0,0,0,29.07-8.5,12.86,12.86,0,0,1,18,9.13c1.66,7.57,3,15.69,3.24,20.05.27,6.38,6.54,9.68,9.14,2.61.12-.33.23-.7.33-1.09,2.42-9.23-.66-34.1-3-42.29-.85-2.92-4.12-19.27-30.64-30.07-24-9.79-40.88-10.07-43.84-10a.32.32,0,0,0-.3.45A30.45,30.45,0,0,0,86,73.38a.38.38,0,0,1-.45.59c-15.11-6.35-34.67-5.94-45.2-2-.26.1-.49.25-.51.53-.15,3.7,3.71,12.54,9.33,16.64a.48.48,0,0,1-.23.88c-15.32,1.77-19.71,7.69-21.23,9.56a.8.8,0,0,0,0,1c1.21,1.58,5.2,6.63,8.49,9.09a2.07,2.07,0,0,1,.78,2.1c-2.22,10.79-3.05,28.21-1.05,35.51.1.37.21.71.32,1C38.83,155.33,45.1,152,45.38,145.65Z"/><circle class="cls-7" cx="118.45" cy="152.04" r="5.27" transform="translate(-67.34 203.29) rotate(-67.5)"/><circle class="cls-7" cx="74.53" cy="152.04" r="5.27" transform="translate(-23.39 13.9) rotate(-9.22)"/><path class="cls-5" d="M96.1,170.56c2.21,0,4.44-.31,4.44-1.44l-.43-4.63c0-1.12-1.8-2-4-2s-4,.92-4,2l-.41,4.63C91.69,170.25,93.9,170.56,96.1,170.56Z"/><path class="cls-6" d="M78.81,132a1.86,1.86,0,0,0-1.94-1.78,38.08,38.08,0,0,0-9.39,1.6,1.86,1.86,0,0,0,.78,3.63l.3-.07A34.46,34.46,0,0,1,77,133.92,1.89,1.89,0,0,0,78.81,132Z"/><path class="cls-6" d="M116.19,133.92a34.46,34.46,0,0,1,8.47,1.44l.29.07a1.86,1.86,0,0,0,.79-3.63,38.08,38.08,0,0,0-9.39-1.6,1.86,1.86,0,0,0-1.94,1.78A1.89,1.89,0,0,0,116.19,133.92Z"/><path class="cls-8" d="M87.72,184.86a17.58,17.58,0,0,0,10.85,2.22A17.22,17.22,0,0,0,105,185a1.46,1.46,0,1,0-1.43-2.54,14.7,14.7,0,0,1-14.41-.11,1.46,1.46,0,0,0-1.47,2.52Z"/><path class="cls-9" d="M236.14,164.4l-13.34,5.91,5.46,1.82a13.55,13.55,0,0,1,6.91,5.13l5.58-2.47Z"/><path class="cls-9" d="M199.32,193.16l3.31-1.47a10.49,10.49,0,0,1,.37-5.05l2.95-8.85-11.24,5Z"/><path class="cls-10" d="M202.68,192c0-.09,0-.18-.05-.28l-3.31,1.47-4.61-10.39,11.24-5,.28-.86c2-6,9.09-9.1,15.76-6.89l.81.27,13.34-5.91,4.61,10.39-5.58,2.47a11.28,11.28,0,0,1,2,8.13l27.39-13.46-10.31-23.24L169.5,182.37l13.2,29.76,14.81-7.28,3.61-10.61A5.28,5.28,0,0,1,202.68,192Z"/><polygon class="cls-10" points="271.16 159.43 267.93 152.16 255.65 147.91 266.06 171.39 271.16 159.43"/><polygon class="cls-10" points="279.7 155.59 276.51 148.41 269.43 151.49 272.65 158.77 279.7 155.59"/><polygon class="cls-9" points="266.06 171.39 255.65 147.91 254.21 148.69 264.52 171.93 266.06 171.39"/><rect class="cls-9" x="269.48" y="151.48" width="1.63" height="7.96" transform="translate(-39.82 122.96) rotate(-23.92)"/><path class="cls-4" d="M235.17,177.26a13.55,13.55,0,0,0-6.91-5.13l-5.46-1.82L222,170c-6.67-2.21-13.76.89-15.76,6.89l-.28.86L203,186.64a10.49,10.49,0,0,0-.37,5.05c0,.1,0,.19.05.28a5.28,5.28,0,0,0-1.56,2.27l-3.61,10.61-9.73,28.64-3.6,10.58a97.47,97.47,0,0,1-11.76,18.68l21,6.46a11.63,11.63,0,0,0,5.54.42c5.19.71,9.76-1,10.91-4.34L230.71,204a5.37,5.37,0,0,0,.1-3,10.46,10.46,0,0,0,2.7-4.24l3.23-9.7a9.27,9.27,0,0,0,.39-1.68A11.28,11.28,0,0,0,235.17,177.26Z"/><polygon class="cls-10" points="218 147.75 199.28 107.19 187.26 115.33 218 147.75"/><polygon class="cls-10" points="235.09 96.41 220.76 98.74 235 141.09 235.09 96.41"/><polygon class="cls-10" points="280.83 102.75 267.78 96.41 255.04 139.24 280.83 102.75"/></svg>