<svg id="Layer_1" data-name="Layer 1" xmlns="http://www.w3.org/2000/svg" viewBox="0 0 306 306"><defs><style>.cls-1{fill:#fff;}.cls-2{fill:#b3b3b3;}.cls-3{fill:#c0bfbf;opacity:0.75;}.cls-4{fill:#9cbabd;}.cls-5{fill:#e0af56;}.cls-6{fill:#838bc5;}.cls-7{fill:#e1b7a1;}.cls-8{fill:#efc7b1;}.cls-9{fill:#cfa38c;}.cls-10{fill:#6974ae;}.cls-11{fill:#412312;}.cls-12{fill:#cb6b4f;}</style></defs><title>scene-needle-poke</title><circle class="cls-1" cx="153" cy="153" r="153"/><rect class="cls-2" x="238.26" y="98.24" width="7.79" height="55.54" transform="translate(53.28 -71.08) rotate(18.73)"/><rect class="cls-2" x="250.03" y="90.28" width="3.06" height="15.95" rx="1.1" ry="1.1" transform="translate(425.39 -108.44) rotate(108.73)"/><rect class="cls-3" x="225.24" y="110.58" width="20.64" height="69.81" transform="translate(59.19 -67.93) rotate(18.73)"/><rect class="cls-3" x="220.86" y="173.63" width="7.79" height="7.39" transform="translate(68.83 -62.78) rotate(18.73)"/><rect class="cls-3" x="221.74" y="175" width="5.12" height="7.39" transform="translate(69.25 -62.56) rotate(18.73)"/><rect class="cls-3" x="246.24" y="99.47" width="1.53" height="24.48" rx="0.59" ry="0.59" transform="translate(432.11 -86.35) rotate(108.73)"/><polygon class="cls-2" points="213.6 211.49 212.36 212.64 224.83 175.84 225.59 176.1 213.6 211.49"/><path class="cls-4" d="M222.75,151s6.92,3.71,9.36,4.54,10.18,2.1,10.18,2.1l.88-2.6-19.53-6.64Z"/><path class="cls-5" d="M46.23,194.79c2-1.47,5.52-2.78,11.75-3.83l23.65-4.39v-3.22c-.65-.24-1.11-.42-1.32-.51-16.68-7.2-29.88-22.92-36-42.73a10.16,10.16,0,0,1-3,.47c-12.19,0-12.37-18.69-.52-19.26-.13-1.91-.2-3.84-.2-5.8a79.69,79.69,0,0,1,1.29-14.43,32.49,32.49,0,0,0,3.93,1.9c12.69,5.16,31.6,4.59,44.88-.44,7.56-2.87,16.16-8.22,23.67-14.68a5.56,5.56,0,0,1,8,.39A28.08,28.08,0,0,0,134.26,96a27.29,27.29,0,0,0,8.92,1.48,6.37,6.37,0,0,1,6.18,5.35c.13.63.27,1.27.42,1.91C152.53,116,158.47,124,163,122.6a3.9,3.9,0,0,0,1.34-.76c8.87,3.17,7.76,18.74-3.38,18.74a9.87,9.87,0,0,1-3.7-.71c-6.06,19.93-19.31,35.74-36.05,43l-.51.2v4.21l20,3.71c5.23.88,8.59,1.95,10.69,3.14a12.47,12.47,0,0,1,6.12,4.6l17.27,27.22c-.37-11-1.16-22.72-1.16-34.14V116.2c0-40.2-27-73.55-61.25-77.66C99.64,35.73,83.71,36.78,72.59,41,52.83,48.5,28.5,73.08,32.78,90.06a87.17,87.17,0,0,0-4,26.14v75.58c0,11.42-.79,23.17-1.16,34.16l10.14-24.18A13.6,13.6,0,0,1,46.23,194.79ZM153.17,71.53a69.41,69.41,0,0,1,10.46,21A58.8,58.8,0,0,1,166.21,111a1.1,1.1,0,0,1-2.14.43,140.87,140.87,0,0,0-6.9-15.72A129.86,129.86,0,0,0,146.2,78,126.87,126.87,0,0,0,132.81,62.5a123.25,123.25,0,0,0-12.39-10.65c-1-.73-.38-2.48.77-2.28A43.17,43.17,0,0,1,136.89,56,62,62,0,0,1,153.17,71.53Z"/><path class="cls-5" d="M150.27,246.13l-1-1.34.09,2.05c.59,13.24-1.1,7.81-1.1,19,0,1.43.14,3.91.36,7a36,36,0,0,0,2-7c.52-2.58,3.57-2.58,4.1,0,.9,4.41-.49,11.25-.49,11.25a20.91,20.91,0,0,0,13.6-8l-16.74-23.27Z"/><path class="cls-5" d="M49.25,253.29l-.22,0-4,8.16c1.75,1.75,3.55,3.45,5.39,5.12,0-.24,0-.46,0-.65C50.44,257.15,49.42,258.49,49.25,253.29Z"/><path class="cls-6" d="M149.39,246.84l-.09-2.05-.82-1.15c10.05-3.2,19.05-10.56,26.9-16.87l2.47,3.9-3-4.75L157.57,198.7a12.47,12.47,0,0,0-6.12-4.6c-2.1-1.19-5.46-2.26-10.69-3.14l-20-3.71v20.64a5.61,5.61,0,0,1-5.61,5.61H87.24a5.61,5.61,0,0,1-5.61-5.61V186.57L58,191c-6.23,1-9.8,2.36-11.75,3.83a13.6,13.6,0,0,0-8.45,7L27.64,225.94,23.83,235a154.74,154.74,0,0,0,10.49,14.52A78.8,78.8,0,0,0,49,253.25l.22,0c.17,5.2,1.19,3.86,1.19,12.59,0,.19,0,.41,0,.65A152.49,152.49,0,0,0,151.29,306c-.7-9.65-2-24-2.64-33.06-.22-3.13-.36-5.61-.36-7C148.29,254.65,150,260.08,149.39,246.84Z"/><path class="cls-7" d="M100.56,187a59.37,59.37,0,0,1-18.93-3.65v24.54a5.61,5.61,0,0,0,5.61,5.61h27.89a5.61,5.61,0,0,0,5.61-5.61V183C118.33,184,109.43,187,100.56,187Z"/><path class="cls-8" d="M100.56,187c8.87,0,17.77-3,20.18-4l.51-.2c16.74-7.23,30-23,36.05-43a9.87,9.87,0,0,0,3.7.71c11.14,0,12.25-15.57,3.38-18.74a3.9,3.9,0,0,1-1.34.76c-4.57,1.43-10.51-6.59-13.26-17.9-.15-.64-.29-1.28-.42-1.91a6.37,6.37,0,0,0-6.18-5.35A27.29,27.29,0,0,1,134.26,96a28.08,28.08,0,0,1-11.89-7.7,5.56,5.56,0,0,0-8-.39c-7.51,6.46-16.11,11.81-23.67,14.68-13.28,5-32.19,5.6-44.88.44a32.49,32.49,0,0,1-3.93-1.9,79.69,79.69,0,0,0-1.29,14.43c0,2,.07,3.89.2,5.8-11.85.57-11.67,19.26.52,19.26a10.16,10.16,0,0,0,3-.47c6.1,19.81,19.3,35.53,36,42.73.21.09.67.27,1.32.51A59.37,59.37,0,0,0,100.56,187Zm60.34-59.26a3.37,3.37,0,0,1-1,6.67ZM126.25,99.12A12.7,12.7,0,0,1,137.79,102a1.58,1.58,0,0,1,.1,2.24,1.57,1.57,0,0,1-2.24.1,9.43,9.43,0,0,0-8.6-2.12,1.62,1.62,0,0,1-1.94-1.13A1.61,1.61,0,0,1,126.25,99.12ZM128,117a6.45,6.45,0,0,1,6.45,6.46c0,3.56-2.89,1.43-6.46,1.43s-6.45,2.12-6.45-1.44A6.46,6.46,0,0,1,128,117ZM38.12,131.51a3.37,3.37,0,0,1,2.81-3.84l1,6.67A3.37,3.37,0,0,1,38.12,131.51Zm58.33,6.58c0-1.3,2.13-4.26,4.73-4.26s4.72,3,4.72,4.26l.51,2.67c0,1.3-2.63,1.66-5.23,1.66S96,142.06,96,140.76Zm-3.09,23.79A34.05,34.05,0,0,1,108.83,163c3.6,1.12,1.68,4.78-1.92,3.66a27.09,27.09,0,0,0-12.36-.93C90.83,166.32,89.63,162.46,93.36,161.88Zm-19.1-33.27c-3.57,0-6.46-1.63-6.45-5.2a6.45,6.45,0,0,1,12.9,0C80.71,127,77.82,128.61,74.26,128.61Z"/><path class="cls-9" d="M163.72,131.58a3.37,3.37,0,0,0-2.82-3.84l-1,6.67A3.37,3.37,0,0,0,163.72,131.58Z"/><path class="cls-9" d="M38.12,131.51a3.37,3.37,0,0,0,3.82,2.83l-1-6.67A3.37,3.37,0,0,0,38.12,131.51Z"/><path class="cls-8" d="M34.32,249.55A152.32,152.32,0,0,0,45,261.41l4-8.16A78.8,78.8,0,0,1,34.32,249.55Z"/><path class="cls-8" d="M194.75,259.42l-17.87-28c-1.7,1.36-3.44,2.68-5.25,3.95a80,80,0,0,1-20.49,10.44l16.74,23.27,1.46,2,4.79,33.41a151.11,151.11,0,0,0,27.23-6.35L196.89,267A12.35,12.35,0,0,0,194.75,259.42Z"/><path class="cls-6" d="M150.27,246.13l.87-.3a80,80,0,0,0,20.49-10.44A79.47,79.47,0,0,1,150.27,246.13Z"/><path class="cls-10" d="M148.48,243.64l.82,1.15,1,1.34a79.47,79.47,0,0,0,21.36-10.74c1.81-1.27,3.55-2.59,5.25-3.95.32-.26.66-.51,1-.77l-2.47-3.9C167.53,233.08,158.53,240.44,148.48,243.64Z"/><path class="cls-9" d="M101.18,142.42c2.6,0,5.23-.36,5.23-1.66l-.51-2.67c0-1.3-2.12-4.26-4.72-4.26s-4.73,3-4.73,4.26L96,140.76C96,142.06,98.58,142.42,101.18,142.42Z"/><path class="cls-5" d="M127.05,102.2a9.43,9.43,0,0,1,8.6,2.12,1.57,1.57,0,0,0,2.24-.1,1.58,1.58,0,0,0-.1-2.24,12.7,12.7,0,0,0-11.54-2.86,1.61,1.61,0,0,0-1.14,1.95A1.62,1.62,0,0,0,127.05,102.2Z"/><path class="cls-6" d="M121.19,49.57c-1.15-.2-1.74,1.55-.77,2.28A123.25,123.25,0,0,1,132.81,62.5,126.87,126.87,0,0,1,146.2,78a129.86,129.86,0,0,1,11,17.75,140.87,140.87,0,0,1,6.9,15.72,1.1,1.1,0,0,0,2.14-.43,58.8,58.8,0,0,0-2.58-18.53,69.41,69.41,0,0,0-10.46-21A62,62,0,0,0,136.89,56,43.17,43.17,0,0,0,121.19,49.57Z"/><path class="cls-11" d="M128,124.91c3.57,0,6.46,2.13,6.46-1.43a6.46,6.46,0,0,0-12.91,0C121.57,127,124.46,124.9,128,124.91Z"/><path class="cls-11" d="M74.27,117a6.44,6.44,0,0,0-6.46,6.44c0,3.57,2.88,5.19,6.45,5.2s6.45-1.62,6.45-5.18A6.44,6.44,0,0,0,74.27,117Z"/><path class="cls-12" d="M94.55,165.75a27.09,27.09,0,0,1,12.36.93c3.6,1.12,5.52-2.54,1.92-3.66a34.05,34.05,0,0,0-15.47-1.14C89.63,162.46,90.83,166.32,94.55,165.75Z"/></svg>