<svg id="Layer_1" data-name="Layer 1" xmlns="http://www.w3.org/2000/svg" viewBox="0 0 66.36 66.36"><defs><style>.cls-1{fill:#dff3fb;}.cls-2{fill:#fed5a8;}.cls-3{fill:#cfcfce;}.cls-4{fill:#c94642;}</style></defs><title>icon_bloodwork_animation</title><circle class="cls-1" cx="33.18" cy="33.18" r="33.18"/><path class="cls-2" d="M4,49a33.18,33.18,0,0,0,56.74,2.64Z" transform="translate(0 0)"/><path class="cls-3" d="M35.8,12.47H30.56A.57.57,0,0,0,30,13v.09a.57.57,0,0,0,.57.56h1.06V35.88h3.11V13.69H35.8a.56.56,0,0,0,.56-.56V13A.56.56,0,0,0,35.8,12.47Z" transform="translate(0 0)"/><path class="cls-3" d="M37.76,18.45H28.6a.3.3,0,0,0-.31.3.31.31,0,0,0,.31.31h.46V46.94h2.56v1h.54v.58H33V58.73l.32-.51V48.48h.86V47.9h.53v-1H37.3V19.06h.46a.31.31,0,0,0,.31-.31A.3.3,0,0,0,37.76,18.45Z" transform="translate(0 0)"/><rect class="cls-4" x="29.83" y="25.98" width="6.7" height="20.39" rx="1.31" ry="1.31"/><rect class="cls-4" x="32.37" y="45.28" width="1.62" height="2.62" rx="0.81" ry="0.81"/></svg>