<svg id="Layer_1" data-name="Layer 1" xmlns="http://www.w3.org/2000/svg" viewBox="0 0 66.36 66.36"><defs><style>.cls-1{fill:#dff3fb;}.cls-2,.cls-3{fill:#f7b219;}.cls-3{fill-rule:evenodd;}.cls-4{fill:#dd6360;}</style></defs><title>icon-lower-pain</title><circle class="cls-1" cx="33.18" cy="33.18" r="33.18"/><g id="QH3GQo.tif"><path class="cls-2" d="M50.22,38.39A17.34,17.34,0,1,1,32.87,21,17.31,17.31,0,0,1,50.22,38.39Zm-2.87,0A14.47,14.47,0,1,0,32.88,52.82,14.51,14.51,0,0,0,47.35,38.4Z" transform="translate(0 0)"/><path class="cls-2" d="M32.88,42.69a5.72,5.72,0,0,0-5.43,3.81c-.37,1-1.06,1.44-1.91,1.15s-1.16-1-.82-2.06a8.66,8.66,0,0,1,16.33,0c.33,1,0,1.79-.83,2.06a1.47,1.47,0,0,1-1.88-1.1A5.74,5.74,0,0,0,32.88,42.69Z" transform="translate(0 0)"/><path class="cls-2" d="M24.22,32.56a2.88,2.88,0,1,1,2.88,2.9A2.88,2.88,0,0,1,24.22,32.56Z" transform="translate(0 0)"/><path class="cls-2" d="M41.54,32.55a2.88,2.88,0,1,1-2.92-2.85A2.88,2.88,0,0,1,41.54,32.55Z" transform="translate(0 0)"/></g><path class="cls-3" d="M44,14.07c-.27,1.07-.55,2.13-.83,3.21l2-.2-2.48,4h0c.25-1,.5-1.94.76-2.93l-1.94.28C42.38,17,43.2,15.52,44,14.07Z" transform="translate(0 0)"/><path class="cls-3" d="M58.22,18.29l-4.93,2.64,2.55,2.27L48,24.75v0l4.5-2.42-2.57-2.09,8.3-2Z" transform="translate(0 0)"/><path class="cls-3" d="M52.51,12.68c-1,1.17-2.07,2.34-3.11,3.53l2.67,1-5.72,3.53v0l2.83-3.23c-.89-.29-1.74-.58-2.64-.89,2-1.33,4-2.66,6-4Z" transform="translate(0 0)"/><g id="PaJvVe.tif"><path class="cls-4" d="M19.89,26l.45-.44L24,22a1.83,1.83,0,0,1,2.7,0c.31.31.62.61.92.93a1.77,1.77,0,0,1,0,2.66q-4.56,4.59-9.15,9.16a1.78,1.78,0,0,1-2.59,0L6.8,25.59a1.76,1.76,0,0,1,0-2.75L7.62,22a1.83,1.83,0,0,1,2.79,0c1.21,1.2,2.42,2.41,3.61,3.62a1.57,1.57,0,0,1,.25.44l.2-.14V16.24a1.82,1.82,0,0,1,2-2H18a1.81,1.81,0,0,1,1.87,1.9V26Z" transform="translate(0 0)"/></g></svg>