<svg id="Layer_1" data-name="Layer 1" xmlns="http://www.w3.org/2000/svg" viewBox="0 0 66.36 66.36"><defs><style>.cls-1{fill:#dff3fb;}.cls-2{fill:#52bb71;}.cls-3{fill:#42a0c6;}.cls-4{fill:#eeeff0;}</style></defs><title>icon-recover</title><circle class="cls-1" cx="33.18" cy="33.18" r="33.18"/><g id="yNjDhn.tif"><path class="cls-2" d="M54.39,37.24a19,19,0,1,1-19-19.06A19,19,0,0,1,54.39,37.24Zm-3.15,0A15.87,15.87,0,1,0,35.38,53.06,15.91,15.91,0,0,0,51.24,37.22Z" transform="translate(0 0)"/><path class="cls-2" d="M35.39,48.29a9.42,9.42,0,0,1-9-6.55A1.55,1.55,0,0,1,26.76,40a1.4,1.4,0,0,1,1.69-.24,2.14,2.14,0,0,1,.85,1,6.37,6.37,0,0,0,12.11,0,1.59,1.59,0,0,1,2-1.08,1.56,1.56,0,0,1,1,2.11A9.41,9.41,0,0,1,35.39,48.29Z" transform="translate(0 0)"/><path class="cls-2" d="M25.87,30.89A3.16,3.16,0,1,1,29.08,34,3.14,3.14,0,0,1,25.87,30.89Z" transform="translate(0 0)"/><path class="cls-2" d="M44.87,30.83a3.16,3.16,0,1,1-6.31,0,3.16,3.16,0,0,1,6.31,0Z" transform="translate(0 0)"/></g><rect class="cls-3" x="0.8" y="17.63" width="35.82" height="9.25" rx="4.62" ry="4.62" transform="translate(-10.05 17.98) rotate(-41.51)"/><rect class="cls-4" x="10.57" y="17.63" width="16.27" height="9.25" transform="translate(-10.05 17.98) rotate(-41.51)"/><circle class="cls-3" cx="16.25" cy="21.38" r="0.87"/><circle class="cls-3" cx="18.13" cy="19.71" r="0.87"/><circle class="cls-3" cx="20.02" cy="18.05" r="0.87"/><circle class="cls-3" cx="21.9" cy="16.38" r="0.87"/><circle class="cls-3" cx="12.48" cy="24.72" r="0.87"/><circle class="cls-3" cx="14.36" cy="23.05" r="0.87"/><circle class="cls-3" cx="17.76" cy="23.09" r="0.87"/><circle class="cls-3" cx="19.65" cy="21.42" r="0.87"/><circle class="cls-3" cx="21.53" cy="19.75" r="0.87"/><circle class="cls-3" cx="23.42" cy="18.09" r="0.87"/><circle class="cls-3" cx="13.99" cy="26.43" r="0.87"/><circle class="cls-3" cx="15.88" cy="24.76" r="0.87"/><circle class="cls-3" cx="19.27" cy="24.8" r="0.87"/><circle class="cls-3" cx="21.16" cy="23.13" r="0.87"/><circle class="cls-3" cx="23.04" cy="21.46" r="0.87"/><circle class="cls-3" cx="24.93" cy="19.79" r="0.87"/><circle class="cls-3" cx="15.5" cy="28.13" r="0.87"/><circle class="cls-3" cx="17.39" cy="26.47" r="0.87"/></svg>