<svg id="Layer_1" data-name="Layer 1" xmlns="http://www.w3.org/2000/svg" viewBox="0 0 66.36 66.36"><defs><style>.cls-1{fill:#dff3fb;}.cls-2{fill:#f26a72;fill-rule:evenodd;}</style></defs><title>icon_music</title><circle class="cls-1" cx="33.18" cy="33.18" r="33.18"/><path class="cls-2" d="M46.78,44.06v4.38c0,1.38-1.54,2.5-3.45,2.5a5.4,5.4,0,0,1-.91-.09,3.74,3.74,0,0,1-3.74,3.66H37.44V35.18h1.24a3.74,3.74,0,0,1,3.73,3.38,4.56,4.56,0,0,1,.92-.09A3.66,3.66,0,0,1,46.49,40a14.34,14.34,0,0,0,3.81-9.64c0-8.5-7.67-15.39-17.12-15.39S16.06,21.83,16.06,30.33a14.41,14.41,0,0,0,4.05,9.91,3.48,3.48,0,0,1,3.28-1.77,4.56,4.56,0,0,1,.92.09A3.75,3.75,0,0,1,28,35.18h.65V54.51H28a3.75,3.75,0,0,1-3.74-3.66,5.3,5.3,0,0,1-.91.09c-1.9,0-3.45-1.12-3.45-2.5V44.33a17.68,17.68,0,0,1-7.27-14c0-10.18,9.18-18.43,20.51-18.43S53.69,20.1,53.69,30.28A17.6,17.6,0,0,1,46.78,44.06Z" transform="translate(0 0)"/></svg>