<svg id="Layer_1" data-name="Layer 1" xmlns="http://www.w3.org/2000/svg" viewBox="0 0 66.36 66.36"><defs><style>.cls-1{fill:#dff3fb;}.cls-2{fill:#52bb71;}.cls-3{fill:#119948;}</style></defs><title>icon-stitching</title><circle class="cls-1" cx="33.18" cy="33.18" r="33.18"/><g id="m7U2B8.tif"><path class="cls-2" d="M39.62,26.59H38.33V53.27a2.28,2.28,0,0,1-1.51,2.24,2.25,2.25,0,0,1-3-2.08c0-1.76,0-3.52,0-5.28V38.44H32.53V53.33a2.26,2.26,0,0,1-2.46,2.3A2.29,2.29,0,0,1,28,53.33V26.6H26.73V36a1.93,1.93,0,0,1-3.83.45,3.4,3.4,0,0,1,0-.45c0-2.75,0-8,0-10.71a3.81,3.81,0,0,1,2.94-3.76,4.11,4.11,0,0,1,1-.1H39.59a3.81,3.81,0,0,1,3.89,3.87c0,2.77,0,8,0,10.77A1.92,1.92,0,0,1,42,38a1.88,1.88,0,0,1-2.16-1,2.7,2.7,0,0,1-.21-1c0-2.18,0-6.83,0-9Z" transform="translate(0 0)"/><path class="cls-2" d="M33.17,11.77a4.51,4.51,0,1,1-4.5,4.5A4.48,4.48,0,0,1,33.17,11.77Z" transform="translate(0 0)"/></g><g id="XkNqT3.tif"><path class="cls-3" d="M36.38,33.11c.32.47.62.89.9,1.32.16.24.43.5.07.75s-.47-.12-.62-.33c-.31-.43-.61-.87-.94-1.34-.26.18-.5.33-.73.5s-.51.32-.71,0,.08-.43.28-.57l.76-.53-.93-1.36-.85.57c-.21.13-.44.21-.61,0s0-.42.22-.56l.83-.57-.94-1.36a6.12,6.12,0,0,1-.81.52.69.69,0,0,1-.6,0c-.21-.21,0-.41.19-.55L32.7,29l-.94-1.36a5.82,5.82,0,0,1-.85.55c-.16.07-.4,0-.6,0,.07-.17.09-.4.21-.51a6.34,6.34,0,0,1,.83-.59l-.93-1.36-.81.55c-.22.14-.46.24-.64,0s0-.41.22-.55L30,25.1l-1-1.45c-.15-.22-.32-.47,0-.66s.44,0,.59.25c.32.48.65,1,1,1.46l.82-.55c.2-.14.45-.23.57.05a.6.6,0,0,1-.17.52,6.75,6.75,0,0,1-.81.57l.93,1.36.84-.56c.21-.14.46-.23.57.06a.62.62,0,0,1-.18.51,7.1,7.1,0,0,1-.81.59l.93,1.35a8.4,8.4,0,0,1,.89-.58c.14-.07.35,0,.53,0-.05.18,0,.42-.16.53a5.31,5.31,0,0,1-.85.61l.93,1.37a7.6,7.6,0,0,1,.85-.55,1.37,1.37,0,0,1,.56,0c-.06.18-.07.41-.18.52a6.94,6.94,0,0,1-.82.59L36,32.51l.79-.53c.21-.14.43-.28.62,0s0,.42-.21.56Z" transform="translate(0 0)"/></g></svg>