<svg id="Layer_1" data-name="Layer 1" xmlns="http://www.w3.org/2000/svg" viewBox="0 0 66.36 66.36"><defs><style>.cls-1{fill:#dff3fb;}.cls-2{fill:#fcb66d;}.cls-3{fill:#f4f6f7;}.cls-4{fill:#fff;}.cls-5{fill:#e39645;}.cls-6{fill:#fdc992;}</style></defs><title>icon-game</title><circle class="cls-1" cx="33.18" cy="33.18" r="33.18"/><path class="cls-2" d="M47,9.2H19.32a1.63,1.63,0,0,0-1.7,1.56V55.6a1.63,1.63,0,0,0,1.7,1.56H47a1.64,1.64,0,0,0,1.7-1.56V10.76A1.64,1.64,0,0,0,47,9.2Z" transform="translate(0 0)"/><path class="cls-3" d="M45.49,12.23H20.87a.86.86,0,0,0-.88.84V51a.86.86,0,0,0,.88.84H45.49a.87.87,0,0,0,.88-.84V13.07A.87.87,0,0,0,45.49,12.23Z" transform="translate(0 0)"/><path class="cls-4" d="M30.08,11.42a.56.56,0,1,1,0-1.12.56.56,0,1,1,0,1.12Z" transform="translate(0 0)"/><path class="cls-4" d="M39,10.86a.22.22,0,0,1-.22.21h-6.7a.22.22,0,0,1-.22-.21h0a.21.21,0,0,1,.22-.2h6.7a.21.21,0,0,1,.22.2Z" transform="translate(0 0)"/><path class="cls-4" d="M36.68,54.47a.7.7,0,0,1-.73.67H30.41a.7.7,0,0,1-.73-.67h0a.7.7,0,0,1,.73-.67H36a.7.7,0,0,1,.73.67Z" transform="translate(0 0)"/><path class="cls-5" d="M26,32.47h-.45a.7.7,0,0,0-.71.7v13a.71.71,0,0,0,.71.71h1.15a.7.7,0,0,0,.51-.22.72.72,0,0,0,.19-.52l-.7-13A.7.7,0,0,0,26,32.47Z" transform="translate(0 0)"/><path class="cls-5" d="M41.85,32.47H41.4a.7.7,0,0,0-.7.67l-.71,13a.72.72,0,0,0,.19.52.73.73,0,0,0,.52.22h1.15a.7.7,0,0,0,.7-.71v-13A.7.7,0,0,0,41.85,32.47Z" transform="translate(0 0)"/><rect class="cls-6" x="30.19" y="35.9" width="6.99" height="9.39"/><path class="cls-6" d="M37.18,46h-7a.7.7,0,0,1-.7-.7V36.61a.7.7,0,0,1,.7-.71h7a.71.71,0,0,1,.71.71v8.68A.7.7,0,0,1,37.18,46Zm-6.28-1.4h5.58v-8H30.9Z" transform="translate(0 0)"/><polygon class="cls-5" points="35.45 47.11 31.93 47.11 32.63 30.39 34.74 30.39 35.45 47.11"/><path class="cls-5" d="M35.45,47.81H31.93a.74.74,0,0,1-.51-.21.77.77,0,0,1-.2-.52l.71-16.72a.7.7,0,0,1,.7-.68h2.11a.71.71,0,0,1,.71.68l.7,16.72a.72.72,0,0,1-.19.52A.75.75,0,0,1,35.45,47.81ZM32.66,46.4h2.05l-.64-15.31h-.76Z" transform="translate(0 0)"/><rect class="cls-2" x="26.81" y="40.27" width="13.76" height="5.14"/><path class="cls-2" d="M40.57,46.36H26.81a.94.94,0,0,1-.95-1V40.27a1,1,0,0,1,.95-1H40.57a1,1,0,0,1,1,1v5.14A1,1,0,0,1,40.57,46.36ZM27.76,44.47H39.62V41.22H27.76Z" transform="translate(0 0)"/><path class="cls-5" d="M25.73,16.81a.34.34,0,0,1-.37-.37.35.35,0,0,1,.37-.38h2.59a.74.74,0,0,1,.75.75v1.44a.86.86,0,0,1-.3.73.86.86,0,0,1,.3.73v1.44a.75.75,0,0,1-.75.76H25.73a.38.38,0,0,1,0-.76h2.59V19.91c0-.42-.17-.55-.38-.55H26.47a.35.35,0,0,1-.38-.38.34.34,0,0,1,.38-.37h1.47c.21,0,.38-.13.38-.55V16.81Z" transform="translate(0 0)"/><path class="cls-5" d="M31.28,18.61h1.39a.78.78,0,0,1,.6.21.73.73,0,0,1,.23.64v1.6a.79.79,0,0,1-.18.59.72.72,0,0,1-.65.26H31a1.14,1.14,0,0,1-.5-.14l-.28-.13c-.21-.09-.43-.16-.43-.42a.37.37,0,0,1,.36-.37.5.5,0,0,1,.24.06l.22.09a1.22,1.22,0,0,0,.4.15h1.74V19.36H30.53v-3.3h2.59a.35.35,0,0,1,.38.38.34.34,0,0,1-.38.37H31.28Z" transform="translate(0 0)"/><path class="cls-5" d="M37.18,16.06a.76.76,0,0,1,.75.75v4.34a.74.74,0,0,1-.75.76H35a.74.74,0,0,1-.75-.76V16.81a.76.76,0,0,1,.75-.75Zm0,5.09V16.81H35v4.34Z" transform="translate(0 0)"/><path class="cls-5" d="M41.61,16.06a.75.75,0,0,1,.75.75v4.34a.74.74,0,0,1-.75.76H39.4a.75.75,0,0,1-.75-.76V16.81a.76.76,0,0,1,.75-.75Zm0,5.09V16.81H39.4v4.34Z" transform="translate(0 0)"/></svg>