<svg id="Layer_1" data-name="Layer 1" xmlns="http://www.w3.org/2000/svg" viewBox="0 0 66.36 66.36"><defs><style>.cls-1{fill:#dff3fb;}.cls-2{fill:#dd6360;}</style></defs><title>icon-heartbeat</title><circle class="cls-1" cx="33.18" cy="33.18" r="33.18"/><g id="Mf65tM.tif"><path class="cls-2" d="M33.17,19.88c1.65-1.25,3.22-2.57,4.92-3.69C42.93,13,48,13,53,15.55c3.93,2,5.69,5.55,6.16,9.82a15.44,15.44,0,0,1-2.47,10.11,1.21,1.21,0,0,1-1.18.67c-3.08,0-6.15,0-9.23,0a1,1,0,0,1-1.12-.71c-.86-1.79-1.8-3.55-2.66-5.33a2,2,0,0,0-2.07-1.41c-1.07.08-1.48.83-1.76,1.77-1.09,3.72-2.21,7.43-3.33,11.14-.05.17-.11.34-.25.76-.16-.5-.27-.78-.35-1.08Q32.16,32.13,29.54,23a2,2,0,0,0-1.73-1.71,1.72,1.72,0,0,0-1.81.88,3.91,3.91,0,0,0-.34,1l-3,12.19c-.07.27-.16.53-.26.86H16c-1.78,0-3.55,0-5.32,0a1.35,1.35,0,0,1-.94-.51A15,15,0,0,1,8.2,21.29c1.57-4,4.74-6.26,8.91-7.13A14.15,14.15,0,0,1,29,16.61C30.39,17.68,31.79,18.81,33.17,19.88Z" transform="translate(0 0)"/><path class="cls-2" d="M27.76,30.5c.89,3.1,1.72,6,2.54,8.86.94,3.31,1.87,6.62,2.82,9.93.33,1.16,1,1.74,1.87,1.77s1.63-.55,2-1.75Q38.87,43,40.75,36.75c.09-.29.2-.57.36-1,.55,1.07,1,2,1.46,2.87a2.07,2.07,0,0,0,2.13,1.32c2.76,0,5.52,0,8.52,0-.37.38-.61.64-.86.88l-17.65,17a1.86,1.86,0,0,1-2.87.15C25.67,52,19.5,46,13.23,40c.36,0,.61-.06.87-.06h9.31c1.51,0,2-.43,2.41-1.91.55-2.23,1.11-4.45,1.67-6.68C27.54,31.1,27.62,30.91,27.76,30.5Z" transform="translate(0 0)"/></g></svg>