<svg id="Layer_1" data-name="Layer 1" xmlns="http://www.w3.org/2000/svg" viewBox="0 0 66.36 66.36"><defs><style>.cls-1{fill:#dff3fb;}.cls-2{fill:#e39645;}.cls-3{fill:#fcb66d;}.cls-4{fill:#fdc992;}</style></defs><title>icon-pacifier</title><circle class="cls-1" cx="33.18" cy="33.18" r="33.18"/><path class="cls-2" d="M33.54,58.69A9.48,9.48,0,1,1,43,49.21,9.49,9.49,0,0,1,33.54,58.69Zm0-16.06a6.58,6.58,0,1,0,6.58,6.58A6.59,6.59,0,0,0,33.54,42.63Z" transform="translate(0 0)"/><path class="cls-2" d="M41.67,32c-2.69-.67-8.1,2.18-8.1,2.18l-.39.18-.4-.18s-5.4-2.85-8.1-2.18-7.42,1.85-7.53,5.31,8.69,6.77,15.63,6.92h.79c7-.15,15.75-3.45,15.64-6.92S44.36,32.67,41.67,32Zm-17.6,7c-1,0-1.83-.6-1.83-1.34s.82-1.35,1.83-1.35,1.82.6,1.82,1.35S25.07,39,24.07,39ZM42.5,39c-1,0-1.82-.6-1.82-1.34s.82-1.35,1.82-1.35,1.83.6,1.83,1.35S43.51,39,42.5,39Z" transform="translate(0 0)"/><path class="cls-3" d="M32.79,12.87a7.09,7.09,0,0,1,4.34,1.45c3,2.13,3.76,5.2,3.5,8.65a12.69,12.69,0,0,1-1.8,5.7,7,7,0,0,0-1.18,2.7,9.21,9.21,0,0,0,0,4,1.54,1.54,0,0,1-.79,1.71,6.68,6.68,0,0,1-7.4-.24,1.91,1.91,0,0,1-.61-2A11.72,11.72,0,0,0,29,31a4.34,4.34,0,0,0-.91-2.2,12.41,12.41,0,0,1-1.79-3.49c-1-3.4-.88-6.75,1.47-9.61A7.27,7.27,0,0,1,32.79,12.87Z" transform="translate(0 0)"/><g id="_5KjVBT.tif" data-name="5KjVBT.tif"><path class="cls-4" d="M35.77,19v-.78a.8.8,0,0,0,0-.15,4.09,4.09,0,0,1,.42-1.42c.28-.5.58-1,.91-1.48.67-1,1.36-1.92,2-2.88.13-.2.23-.41.36-.62l.07.09c.63,1,1.25,1.92,1.89,2.87A16.6,16.6,0,0,1,42.91,17a3.58,3.58,0,0,1,.29,2.39,3.75,3.75,0,0,1-4.3,2.81,3.65,3.65,0,0,1-3-2.65A4.71,4.71,0,0,1,35.77,19Z" transform="translate(0 0)"/></g><g id="_5KjVBT.tif-2" data-name="5KjVBT.tif"><path class="cls-4" d="M41.68,26.52v-.78a.8.8,0,0,0,0-.15,4.09,4.09,0,0,1,.42-1.42c.28-.5.59-1,.91-1.48.67-1,1.07-1.16,1.71-2.15.4-.62.44-1.34.69-1.35.05,0,1.33,2,2,3a15.72,15.72,0,0,1,1.42,2.36,3.58,3.58,0,0,1,.29,2.39,3.74,3.74,0,0,1-4.3,2.81,3.66,3.66,0,0,1-3-2.65C41.75,26.89,41.72,26.7,41.68,26.52Z" transform="translate(0 0)"/></g></svg>