<svg id="Layer_1" data-name="Layer 1" xmlns="http://www.w3.org/2000/svg" viewBox="0 0 66.36 66.36"><defs><style>.cls-1{fill:#dff3fb;}.cls-2{fill:#c94642;}.cls-3{fill:#ab2624;}</style></defs><title>icon-bloodwork</title><circle class="cls-1" cx="33.18" cy="33.18" r="33.18"/><path class="cls-2" d="M28.94,11.6H38a2.22,2.22,0,0,1,2.22,2.22V51.23A6.76,6.76,0,0,1,33.49,58h0a6.76,6.76,0,0,1-6.76-6.76V13.81a2.22,2.22,0,0,1,2.22-2.22Z" transform="translate(20.51 -11.72) rotate(28.31)"/><path class="cls-3" d="M35.45,21.56l8,4.32L29.81,51.2A4.54,4.54,0,0,1,23.65,53h0a4.54,4.54,0,0,1-1.84-6.16Z" transform="translate(0 0)"/><rect class="cls-2" x="35.89" y="13.68" width="16.66" height="2.54" rx="1.27" ry="1.27" transform="translate(12.38 -19.18) rotate(28.31)"/></svg>