<svg id="Layer_1" data-name="Layer 1" xmlns="http://www.w3.org/2000/svg" viewBox="0 0 66.36 66.36"><defs><style>.cls-1{fill:#dff3fb;}.cls-2{fill:#e2b344;}.cls-3{fill:#ffd46d;}</style></defs><title>icon-milk-bottle</title><circle class="cls-1" cx="33.18" cy="33.18" r="33.18"/><path class="cls-2" d="M50.27,24.41l-.18-.15.12-.14c2-2.37,1.82-5.87-.09-8.65A9,9,0,0,1,51,13.89a14,14,0,0,1,1.88-1.45,2.75,2.75,0,0,0-.67-3.8h0a2.75,2.75,0,0,0-3.86.06,14.29,14.29,0,0,1-1.07,2.12A10.47,10.47,0,0,1,45.76,12c-3-1.17-6.3-.6-8.19,1.69l-.12.15-.21-.18a2.35,2.35,0,0,0-3.3.05l-1.32,1.6a2.35,2.35,0,0,0,.58,3.25l13,10.75a2.34,2.34,0,0,0,3.29,0l1.32-1.6A2.35,2.35,0,0,0,50.27,24.41Z" transform="translate(0 0)"/><path class="cls-2" d="M43.61,30.17,32.53,21c-3-2.5-7.16-2.5-9.21,0L9,38.41c-2.06,2.49-1.27,6.54,1.76,9L21.8,56.6c3,2.5,7.15,2.5,9.21,0l14.36-17.4C47.43,36.72,46.64,32.67,43.61,30.17ZM28.07,50l-5.28-4.37a.88.88,0,0,1-.24-1.22.9.9,0,0,1,1.24,0l5.29,4.37A.89.89,0,0,1,29.32,50,.91.91,0,0,1,28.07,50Zm3.62-4.39L26.4,41.24A.89.89,0,0,1,26.17,40a.88.88,0,0,1,1.24,0l5.29,4.36a.89.89,0,0,1,.23,1.22A.88.88,0,0,1,31.69,45.6Zm4.86-4.38a.9.9,0,0,1-1.24,0L30,36.85a.89.89,0,0,1-.24-1.22h0a.91.91,0,0,1,1.25,0L36.32,40a.89.89,0,0,1,.23,1.22Zm2.38-4.39-5.29-4.36a.81.81,0,1,1,1-1.22l5.28,4.36a.8.8,0,1,1-1,1.22Z" transform="translate(0 0)"/><rect class="cls-3" x="30.24" y="17.73" width="22.74" height="7.81" rx="3.56" ry="3.56" transform="translate(23.29 -21.53) rotate(39.53)"/></svg>