<svg id="Layer_1" data-name="Layer 1" xmlns="http://www.w3.org/2000/svg" viewBox="0 0 66.36 66.36"><defs><style>.cls-1{fill:#dff3fb;}.cls-2{fill:#fed5a8;}.cls-3{fill:#cfcfce;}.cls-4{fill:#5ac5c5;}</style></defs><title>icon_iv_animation</title><circle class="cls-1" cx="33.18" cy="33.18" r="33.18"/><path class="cls-2" d="M4,49a33.18,33.18,0,0,0,56.74,2.64Z" transform="translate(0 0)"/><path class="cls-3" d="M29.06,19.5V43.15h2.56v1h.54v.58H33V54.94l.32-.51V44.69h.86v-.58h.53v-1H37.3V19.5a.43.43,0,0,0-.43-.43H29.49A.43.43,0,0,0,29.06,19.5Z" transform="translate(0 0)"/><rect class="cls-4" x="32.15" y="35.24" width="2.05" height="10.09"/><rect class="cls-4" x="32.9" y="34.03" width="0.56" height="2.85" rx="0.09" ry="0.09" transform="translate(68.64 2.28) rotate(90)"/><rect class="cls-4" x="33.07" y="39.42" width="0.21" height="14.92"/><rect class="cls-4" x="29.55" y="26.67" width="7.26" height="2.62" rx="1.31" ry="1.31" transform="translate(61.01 -5.33) rotate(89.73)"/><rect class="cls-4" x="30.49" y="27.45" width="5.37" height="0.88" transform="translate(-0.13 0.16) rotate(-0.27)"/><rect class="cls-4" x="32.82" y="28.89" width="0.75" height="6.29" transform="translate(-0.15 0.16) rotate(-0.27)"/><rect class="cls-4" x="32.8" y="11.42" width="0.76" height="14" transform="translate(-0.09 0.16) rotate(-0.27)"/></svg>