<svg id="Layer_1" data-name="Layer 1" xmlns="http://www.w3.org/2000/svg" viewBox="0 0 66.36 66.36"><defs><style>.cls-1{fill:#dff3fb;}.cls-2{fill:#ffd46d;}.cls-3{fill:#e2b344;}</style></defs><title>icon_breathe</title><circle class="cls-1" cx="33.18" cy="33.18" r="33.18"/><path class="cls-2" d="M13.13,38.14c-.63,1.44-.3,2.16,1.19,2.46,1,.21,1.09.75,1.08,1.58,0,1.92,0,1.92,1,2.64,0,.49-.25,1.12,0,1.45a6.73,6.73,0,0,1,.92,4.65c-.08,1.26.85,1.87,1.95,1.93a46.51,46.51,0,0,0,5.41-.06c2.57-.15,3.54.31,4.66,2.62s11-3.49,17.79-5.78c-1.19-4.37.61-7.9,3-11.3.92-1.29,1.65-2.7,2.46-4,2.61-4.42,2.14-8.81-.16-13.15-4.24-8-11.19-10.94-19.91-10.73-6.14.14-11.27,2.27-14.95,7.29-2.81,3.82-3.77,8-2,12.6a4.15,4.15,0,0,1-.31,3.62C14.51,35.31,13.75,36.7,13.13,38.14Z" transform="translate(0 0)"/><path class="cls-3" d="M12,49.82a23.78,23.78,0,0,1,1.09-9.34,14.38,14.38,0,0,1,5.74-7.64,14.71,14.71,0,0,1,4.51-1.94,8.55,8.55,0,0,1,5.13.4A13.09,13.09,0,0,1,32.64,34a22.68,22.68,0,0,1,3.14,3.66l-1.13.92a24.86,24.86,0,0,0-7-5.42,6.7,6.7,0,0,0-4-.62A13,13,0,0,0,19.54,34a12.3,12.3,0,0,0-3.36,2.87,15.56,15.56,0,0,0-2.29,3.88,23.05,23.05,0,0,0-1.71,9Z" transform="translate(0 0)"/><path class="cls-3" d="M38.33,42.57a27.14,27.14,0,0,0-7.95-3.8l4.39-1.22,2.6-3.73A27.11,27.11,0,0,0,38.33,42.57Z" transform="translate(0 0)"/><path class="cls-3" d="M35.18,42.81A12.52,12.52,0,0,1,32,47.07a9.63,9.63,0,0,1-5.05,2.22,10.82,10.82,0,0,1-2.84-.07,6.25,6.25,0,0,1-2.83-1.17,5.31,5.31,0,0,1-1.74-2.56,7.92,7.92,0,0,1-.35-2.87l1.55-.09a7.43,7.43,0,0,0,1.85,4,4.23,4.23,0,0,0,1.88,1,8.54,8.54,0,0,0,2.38.3c3.26,0,6.32-2.27,8.2-5.15Z" transform="translate(0 0)"/><path class="cls-3" d="M20.2,39a18.4,18.4,0,0,0,2.51,5.31l-2.77-1.22L17,43.89A17.91,17.91,0,0,0,20.2,39Z" transform="translate(0 0)"/></svg>