<svg id="Layer_1" data-name="Layer 1" xmlns="http://www.w3.org/2000/svg" viewBox="0 0 66.36 66.36"><defs><style>.cls-1{fill:#dff3fb;}.cls-2{fill:#f26a72;}.cls-3{fill:#f58f95;}</style></defs><title>icon-bell</title><circle class="cls-1" cx="33.18" cy="33.18" r="33.18"/><path class="cls-2" d="M40.53,32.56A12.54,12.54,0,0,0,36.13,18a3.45,3.45,0,0,0,.51-1.83,3.52,3.52,0,0,0-7-.52,12.54,12.54,0,0,0-12.58,8.14s-2.12,6.08-3.71,9.91S7,35.6,7,35.6l-1.14,3L39.44,50.7l1.06-2.84S35.32,46.49,37,42,40.53,32.56,40.53,32.56Z" transform="translate(0 0)"/><path class="cls-2" d="M16.15,48.28a5.39,5.39,0,0,0,10.62,1.29L16.68,45.94A5.39,5.39,0,0,0,16.15,48.28Z" transform="translate(0 0)"/><path class="cls-3" d="M49.67,45.94a5.38,5.38,0,0,1-4.85,7.73,5.27,5.27,0,0,1-2.35-.54l2-5.32Z" transform="translate(0 0)"/><path class="cls-3" d="M40.22,16.21A3.54,3.54,0,0,1,39.71,18a12.55,12.55,0,0,1,4.4,14.52L40.6,42a3.89,3.89,0,0,0,.26,3.73l19.59-7-1.13-3s-4.72,2-6.31-1.86-3.7-9.91-3.7-9.91A12.5,12.5,0,0,0,40.21,16,2.26,2.26,0,0,1,40.22,16.21Z" transform="translate(0 0)"/></svg>