<svg id="Layer_1" data-name="Layer 1" xmlns="http://www.w3.org/2000/svg" viewBox="0 0 66.36 66.36"><defs><style>.cls-1{fill:#dff3fb;}.cls-2{fill:#f26a72;}.cls-3{fill:#f58f95;}</style></defs><title>icon-bubble</title><circle class="cls-1" cx="33.18" cy="33.18" r="33.18"/><rect class="cls-2" x="40.59" y="45.82" width="8.16" height="12.73" rx="1.65" ry="1.65"/><rect class="cls-2" x="43.37" y="30.6" width="2.6" height="15.54"/><path class="cls-2" d="M44.67,31.37C41,31.37,38,27.51,38,22.59S41,13.8,44.67,13.8s6.62,3.86,6.62,8.79S48.38,31.37,44.67,31.37Zm0-15.77a3.7,3.7,0,0,0-3,1.87,8.88,8.88,0,0,0-1.48,5.12,8.91,8.91,0,0,0,1.48,5.12,3.73,3.73,0,0,0,3,1.87,3.73,3.73,0,0,0,3-1.87,8.91,8.91,0,0,0,1.48-5.12,8.88,8.88,0,0,0-1.48-5.12A3.7,3.7,0,0,0,44.67,15.6Z" transform="translate(0 0)"/><circle class="cls-3" cx="29.72" cy="14.39" r="6.57"/><circle class="cls-3" cx="30.51" cy="27.31" r="3.29"/><circle class="cls-3" cx="16.81" cy="22.2" r="5.74"/></svg>