<svg id="Layer_1" data-name="Layer 1" xmlns="http://www.w3.org/2000/svg" viewBox="0 0 66.36 66.36"><defs><style>.cls-1{fill:#dff3fb;}.cls-2{fill:#e2b344;}.cls-3{fill:#fff;}</style></defs><title>icon-sing</title><circle class="cls-1" cx="33.18" cy="33.18" r="33.18"/><path class="cls-2" d="M14.24,24.94l8.31-14.49.19.05c0,.15,0,.32,0,.43a4.68,4.68,0,0,0-.23,3.67A15.77,15.77,0,0,1,23,17a5,5,0,0,1-1.72,4.66,1.17,1.17,0,0,0-.29.7,5.81,5.81,0,0,1-2.74,4.42,21.48,21.48,0,0,0,1.58-2.48A5,5,0,0,0,20,21.15a5.17,5.17,0,0,0-1.43-2.86c-.16.25-.29.44-.41.65l-3.9,6.79A3.33,3.33,0,0,1,9.5,26.88,1.63,1.63,0,0,1,9.42,24,3.49,3.49,0,0,1,14.24,24.94ZM21,14.16c-1.05,2.5-.21,4.91.09,7.39C23,19.85,22.32,16.29,21,14.16Z" transform="translate(0 0)"/><path class="cls-2" d="M51,41.39,49.52,52a12,12,0,0,1,1.38-.76,2.91,2.91,0,0,1,2.48,0,1.53,1.53,0,0,1,.77,1.89A3.54,3.54,0,0,1,50,55.07a1.62,1.62,0,0,1-1.05-2q.83-5.91,1.67-11.84c.24-1.67.47-3.35.72-5a1.66,1.66,0,0,1,.29-.49,1.46,1.46,0,0,1,.17.51,7.71,7.71,0,0,0,1.35,4.39,10,10,0,0,1,1.67,5.06,8,8,0,0,1-1,3.89,32.57,32.57,0,0,0,.44-3.24A6.93,6.93,0,0,0,53,42.43,2,2,0,0,0,51,41.39Z" transform="translate(0 0)"/><path class="cls-2" d="M45.85,11.93l.24.78c1.1,3.5,2.14,7,3.31,10.5a3.45,3.45,0,0,1-2.69,4.18,1.6,1.6,0,0,1-1.89-2,3.47,3.47,0,0,1,3.92-2.9l-5-15.93.18-.11c.09.09.24.15.28.25a9.22,9.22,0,0,0,3.13,3.81,11.11,11.11,0,0,1,3.3,3.32,8.87,8.87,0,0,1,1,6,8.08,8.08,0,0,0-3.36-7.38A3,3,0,0,0,45.85,11.93Z" transform="translate(0 0)"/><path class="cls-2" d="M57.72,12.63a3.77,3.77,0,0,1,0,.58c-.51,5.72-1,11.44-1.54,17.16A3.37,3.37,0,0,1,52,32.91a1.58,1.58,0,0,1-.81-2.39A3.45,3.45,0,0,1,56,29.28l1.49-16.65Z" transform="translate(0 0)"/><circle class="cls-2" cx="31.45" cy="40.86" r="15.01"/><path class="cls-3" d="M38.44,50.46a16.44,16.44,0,0,1-6.24,1.32A23.08,23.08,0,0,1,26,50.46C24.27,50,22.79,49,22.79,47.29h0A3.17,3.17,0,0,1,26,44.11a16.89,16.89,0,0,0,6.24,1.32,14,14,0,0,0,6.24-1.32,3.17,3.17,0,0,1,3.17,3.18h0C41.61,49,40.1,49.91,38.44,50.46Z" transform="translate(0 0)"/><rect class="cls-3" x="22.55" y="34.91" width="6.73" height="0.83" rx="0.41" ry="0.41" transform="translate(14.67 -7.02) rotate(21.39)"/><rect class="cls-3" x="22.55" y="37.06" width="6.73" height="0.83" rx="0.41" ry="0.41" transform="translate(-11.88 12.03) rotate(-21.39)"/><rect class="cls-3" x="34.45" y="35.16" width="6.73" height="0.83" rx="0.41" ry="0.41" transform="translate(85.99 54.91) rotate(158.61)"/><rect class="cls-3" x="34.45" y="37.3" width="6.73" height="0.83" rx="0.41" ry="0.41" transform="translate(59.27 86.63) rotate(-158.61)"/><path class="cls-3" d="M28.31,32.78a3.94,3.94,0,0,0-5,0,.4.4,0,0,1-.51,0h0a.36.36,0,0,1,.1-.52,4.57,4.57,0,0,1,5.83,0,.36.36,0,0,1,.1.52h0A.4.4,0,0,1,28.31,32.78Z" transform="translate(0 0)"/><path class="cls-3" d="M39.92,32.82a4,4,0,0,0-5,0,.38.38,0,0,1-.5,0h0a.35.35,0,0,1,.09-.52,4.59,4.59,0,0,1,5.84,0,.36.36,0,0,1,.09.52h0A.38.38,0,0,1,39.92,32.82Z" transform="translate(0 0)"/></svg>