<svg id="Layer_1" data-name="Layer 1" xmlns="http://www.w3.org/2000/svg" viewBox="0 0 66.36 66.36"><defs><style>.cls-1{fill:#dff3fb;}.cls-2{fill:#42a0c6;}.cls-3{fill:#258cb4;}</style></defs><title>icon-IV</title><circle class="cls-1" cx="33.18" cy="33.18" r="33.18"/><path class="cls-2" d="M43.12,44.18,31.81,47.51c-2.53.74-5.27-1-6.11-3.81L20.16,24.88c-.84-2.84.54-5.76,3.07-6.5l11.31-3.33c2.54-.75,5.28,1,6.12,3.8L46.2,37.67C47,40.51,45.66,43.43,43.12,44.18ZM23.87,20.54a3,3,0,0,0-1.78,3.78l5.54,18.82a3,3,0,0,0,3.54,2.2L42.48,42a3,3,0,0,0,1.79-3.77L38.73,19.42a3,3,0,0,0-3.55-2.21Z" transform="translate(0 0)"/><path class="cls-3" d="M40.3,41l-7.82,2.3a2.46,2.46,0,0,1-3-1.67L25.79,29.31l12.54-3.69L42,38A2.48,2.48,0,0,1,40.3,41Z" transform="translate(0 0)"/><path class="cls-2" d="M29.21,17.79a2.53,2.53,0,0,1-3-1.88,2.55,2.55,0,0,1,1.52-3.23,2.53,2.53,0,0,1,3,1.89A2.53,2.53,0,0,1,29.21,17.79Zm-1-3.48a1,1,0,1,0,1.1.68A.91.91,0,0,0,28.18,14.31Z" transform="translate(0 0)"/><rect class="cls-2" x="32.64" y="44.51" width="9.87" height="3.39" transform="translate(-11.52 12.49) rotate(-16.41)"/><rect class="cls-2" x="35.06" y="48.67" width="7.26" height="2.62" rx="1.31" ry="1.31" transform="translate(75.7 -1.25) rotate(73.59)"/><rect class="cls-2" x="35.97" y="49.45" width="5.37" height="0.88" transform="translate(-12.52 12.95) rotate(-16.41)"/><rect class="cls-2" x="39.45" y="50.71" width="0.75" height="6.29" transform="translate(-13.59 13.44) rotate(-16.41)"/></svg>