<svg id="Layer_1" data-name="Layer 1" xmlns="http://www.w3.org/2000/svg" viewBox="0 0 1007.68 1020.68"><defs><style>.cls-1{opacity:0;}.cls-2{opacity:0.25;}.cls-10,.cls-11,.cls-12,.cls-13,.cls-3,.cls-4,.cls-5,.cls-6,.cls-7,.cls-8,.cls-9{fill:none;stroke-width:2px;}.cls-10,.cls-11,.cls-12,.cls-13,.cls-3,.cls-4,.cls-5,.cls-6{stroke:#000;}.cls-10,.cls-11,.cls-12,.cls-3,.cls-4,.cls-5,.cls-8,.cls-9{stroke-linecap:round;}.cls-13,.cls-3,.cls-7,.cls-8,.cls-9{stroke-linejoin:round;}.cls-10,.cls-11,.cls-12,.cls-4,.cls-5,.cls-6{stroke-miterlimit:10;}.cls-5{stroke-dasharray:1 4;}.cls-7,.cls-9{stroke:#221e20;}.cls-8{stroke:#010101;}.cls-10{stroke-dasharray:0 3.87;}.cls-11{stroke-dasharray:0 3.69;}.cls-12{stroke-dasharray:0 4;}</style></defs><title>background</title><rect class="cls-1" width="1007.68" height="1020.68"/><g class="cls-2"><rect class="cls-3" x="877.54" y="915" width="6" height="6"/><rect class="cls-3" x="899.54" y="906" width="6" height="6"/><rect class="cls-3" x="920.46" y="896.46" width="6" height="6" transform="translate(1823 -24.47) rotate(90)"/><line class="cls-3" x1="899.54" y1="910.22" x2="883.54" y2="918.44"/><line class="cls-3" x1="920.54" y1="899.44" x2="905.54" y2="907.14"/><path class="cls-3" d="M920.46,897.27A26,26,0,0,0,887,900.08a24.84,24.84,0,0,0-7.56,15.38" transform="translate(0.08 -0.46)"/><path class="cls-3" d="M879.46,921.46A27.35,27.35,0,0,0,887,936.85a26,26,0,0,0,36.77,0,26.62,26.62,0,0,0,2.67-34.39" transform="translate(0.08 -0.46)"/><circle cx="902.54" cy="915" r="1"/><circle cx="908.54" cy="915" r="1"/><circle cx="920.54" cy="915" r="1"/><circle cx="914.54" cy="909" r="1"/><circle cx="920.54" cy="909" r="1"/><circle cx="917.54" cy="906" r="1"/><circle cx="911.54" cy="912" r="1"/><circle cx="914.54" cy="915" r="1"/><circle cx="917.54" cy="912" r="1"/><circle cx="923.54" cy="906" r="1"/><circle cx="923.54" cy="912" r="1"/><circle cx="926.54" cy="915" r="1"/><circle cx="926.54" cy="909" r="1"/><circle cx="929.54" cy="912" r="1"/><circle cx="884.54" cy="927" r="1"/><circle cx="896.54" cy="927" r="1"/><circle cx="890.54" cy="921" r="1"/><circle cx="896.54" cy="921" r="1"/><circle cx="893.54" cy="918" r="1"/><circle cx="887.54" cy="924" r="1"/><circle cx="890.54" cy="927" r="1"/><circle cx="893.54" cy="924" r="1"/><circle cx="899.54" cy="918" r="1"/><circle cx="902.54" cy="921" r="1"/><circle cx="908.54" cy="921" r="1"/><circle cx="905.54" cy="918" r="1"/><circle cx="899.54" cy="924" r="1"/><circle cx="902.54" cy="927" r="1"/><circle cx="908.54" cy="927" r="1"/><circle cx="920.54" cy="927" r="1"/><circle cx="905.54" cy="924" r="1"/><circle cx="911.54" cy="918" r="1"/><circle cx="914.54" cy="921" r="1"/><circle cx="920.54" cy="921" r="1"/><circle cx="917.54" cy="918" r="1"/><circle cx="911.54" cy="924" r="1"/><circle cx="914.54" cy="927" r="1"/><circle cx="917.54" cy="924" r="1"/><circle cx="923.54" cy="918" r="1"/><circle cx="923.54" cy="924" r="1"/><circle cx="926.54" cy="927" r="1"/><circle cx="926.54" cy="921" r="1"/><circle cx="929.54" cy="918" r="1"/><circle cx="929.54" cy="924" r="1"/><circle cx="884.54" cy="933" r="1"/><circle cx="896.54" cy="939" r="1"/><circle cx="887.54" cy="930" r="1"/><circle cx="890.54" cy="933" r="1"/><circle cx="896.54" cy="933" r="1"/><circle cx="893.54" cy="930" r="1"/><circle cx="887.54" cy="936" r="1"/><circle cx="890.54" cy="939" r="1"/><circle cx="893.54" cy="936" r="1"/><circle cx="899.54" cy="930" r="1"/><circle cx="902.54" cy="933" r="1"/><circle cx="908.54" cy="933" r="1"/><circle cx="905.54" cy="930" r="1"/><circle cx="899.54" cy="936" r="1"/><circle cx="902.54" cy="939" r="1"/><circle cx="908.54" cy="939" r="1"/><circle cx="905.54" cy="936" r="1"/><circle cx="911.54" cy="930" r="1"/><circle cx="914.54" cy="933" r="1"/><circle cx="920.54" cy="933" r="1"/><circle cx="917.54" cy="930" r="1"/><circle cx="911.54" cy="936" r="1"/><circle cx="914.54" cy="939" r="1"/><circle cx="917.54" cy="936" r="1"/><circle cx="923.54" cy="930" r="1"/><circle cx="899.54" cy="942" r="1"/><circle cx="905.54" cy="942" r="1"/><circle cx="911.54" cy="942" r="1"/><rect class="cls-3" x="529.58" y="686.5" width="6" height="6"/><circle class="cls-3" cx="532.58" cy="741.5" r="3"/><polygon class="cls-3" points="507.59 718.5 504.09 737.44 510.8 730.5 520.09 733.16 507.59 718.5"/><rect class="cls-3" x="477.58" y="738.5" width="6" height="6"/><line class="cls-3" x1="508.7" y1="713.38" x2="529.58" y2="692.5"/><line class="cls-3" x1="483.58" y1="738.5" x2="504.46" y2="717.62"/><circle class="cls-3" cx="506.58" cy="715.5" r="3"/><circle class="cls-3" cx="480.58" cy="689.5" r="3"/><path class="cls-3" d="M506.5,713a23,23,0,0,0-23-23" transform="translate(0.08 -0.46)"/><path class="cls-3" d="M510.52,732a23,23,0,0,0,19,10" transform="translate(0.08 -0.46)"/><polygon class="cls-4" points="279.58 738.5 279.58 700.5 304.58 719.5 279.58 738.5"/><polygon class="cls-4" points="337.58 738.5 312.58 719.5 337.58 700.5 337.58 738.5"/><line class="cls-5" x1="308.58" y1="696.5" x2="308.58" y2="744.5"/><line class="cls-4" x1="326.51" y1="699.5" x2="318.78" y2="697.43"/><line class="cls-4" x1="326.51" y1="699.5" x2="328.58" y2="691.77"/><path class="cls-4" d="M290.84,699a19.09,19.09,0,0,1,17.66-12h0a19.09,19.09,0,0,1,17.66,12l.34,1" transform="translate(0.08 -0.46)"/><line class="cls-4" x1="77.58" y1="699.5" x2="81.58" y2="695.5"/><line class="cls-4" x1="77.58" y1="704.5" x2="79.58" y2="702.5"/><line class="cls-4" x1="81.58" y1="700.5" x2="81.58" y2="700.5"/><line class="cls-4" x1="83.58" y1="698.5" x2="86.58" y2="695.5"/><line class="cls-4" x1="77.58" y1="709.5" x2="86.58" y2="700.5"/><line class="cls-4" x1="88.58" y1="698.5" x2="88.58" y2="698.5"/><line class="cls-4" x1="90.58" y1="696.5" x2="91.58" y2="695.5"/><path class="cls-4" d="M99.58,727.5h6a0,0,0,0,1,0,0v11.13a.87.87,0,0,1-.87.87h-4.26a.87.87,0,0,1-.87-.87V727.5A0,0,0,0,1,99.58,727.5Z"/><rect class="cls-4" x="73.58" y="687.5" width="58" height="40"/><path class="cls-4" d="M105.5,736v3.06a.87.87,0,0,1-.87.86h-4.26a.87.87,0,0,1-.87-.86V736c-7.4.35-13,2-13,3.92,0,2.21,7.16,4,16,4s16-1.79,16-4C118.5,738,112.9,736.39,105.5,736Z" transform="translate(0.08 -0.46)"/><line class="cls-4" x1="73.58" y1="691.5" x2="131.58" y2="691.5"/><line class="cls-4" x1="73.58" y1="723.5" x2="131.58" y2="723.5"/><circle cx="287.58" cy="498" r="1"/><circle cx="293.58" cy="498" r="1"/><circle cx="290.58" cy="495" r="1"/><circle cx="299.58" cy="498" r="1"/><circle cx="287.58" cy="492" r="1"/><circle cx="293.58" cy="492" r="1"/><circle cx="299.58" cy="492" r="1"/><circle cx="296.58" cy="495" r="1"/><circle cx="287.58" cy="504" r="1"/><circle cx="293.58" cy="504" r="1"/><circle cx="290.58" cy="501" r="1"/><circle cx="299.58" cy="504" r="1"/><circle cx="296.58" cy="501" r="1"/><circle cx="302.58" cy="495" r="1"/><circle cx="302.58" cy="501" r="1"/><circle cx="302.58" cy="507" r="1"/><circle cx="287.58" cy="510" r="1"/><circle cx="293.58" cy="510" r="1"/><circle cx="290.58" cy="507" r="1"/><circle cx="299.58" cy="510" r="1"/><circle cx="305.58" cy="498" r="1"/><circle cx="305.58" cy="492" r="1"/><circle cx="305.58" cy="504" r="1"/><circle cx="308.58" cy="495" r="1"/><circle cx="308.58" cy="501" r="1"/><circle cx="308.58" cy="507" r="1"/><circle cx="305.58" cy="510" r="1"/><circle cx="311.58" cy="498" r="1"/><circle cx="311.58" cy="492" r="1"/><circle cx="311.58" cy="504" r="1"/><circle cx="311.58" cy="510" r="1"/><circle cx="296.58" cy="507" r="1"/><circle cx="302.58" cy="513" r="1"/><circle cx="287.58" cy="516" r="1"/><circle cx="293.58" cy="516" r="1"/><circle cx="290.58" cy="513" r="1"/><circle cx="299.58" cy="516" r="1"/><circle cx="308.58" cy="513" r="1"/><circle cx="305.58" cy="516" r="1"/><circle cx="311.58" cy="516" r="1"/><circle cx="296.58" cy="513" r="1"/><rect class="Rounded-2" x="279.58" y="484" width="6" height="6"/><rect class="Rounded-2" x="313.58" y="518" width="6" height="6"/><rect class="Rounded-2" x="313.58" y="484" width="6" height="6"/><rect class="Rounded-2" x="279.58" y="518" width="6" height="6"/><rect class="Rounded-2" x="331.58" y="502" width="6" height="6"/><rect class="Rounded-2" x="297.58" y="536" width="6" height="6"/><rect class="Rounded-2" x="331.58" y="536" width="6" height="6"/><polygon class="cls-4" points="331.58 508 331.58 505 316.58 505 316.58 518 313.58 518 313.58 521 300.58 521 300.58 536 303.58 536 303.58 539 331.58 539 331.58 536 334.58 536 334.58 508 331.58 508"/><polygon class="cls-4" points="313.58 490 313.58 487 285.58 487 285.58 490 282.58 490 282.58 518 285.58 518 285.58 521 313.58 521 313.58 518 316.58 518 316.58 490 313.58 490"/><rect class="cls-6" x="477.58" y="484" width="58" height="6"/><line class="cls-4" x1="477.58" y1="532" x2="535.58" y2="532"/><line class="cls-4" x1="506.58" y1="532" x2="506.58" y2="535"/><circle class="cls-4" cx="506.58" cy="539" r="3"/><rect class="cls-4" x="479.58" y="490" width="54" height="42"/><circle cx="495.58" cy="503" r="1"/><circle cx="499.58" cy="503" r="1"/><circle cx="497.58" cy="505" r="1"/><circle cx="495.58" cy="507" r="1"/><circle cx="499.58" cy="507" r="1"/><circle cx="497.58" cy="509" r="1"/><circle cx="495.58" cy="511" r="1"/><circle cx="499.58" cy="511" r="1"/><circle cx="497.58" cy="513" r="1"/><circle cx="495.58" cy="515" r="1"/><circle cx="499.58" cy="515" r="1"/><circle cx="497.58" cy="517" r="1"/><circle cx="495.58" cy="519" r="1"/><circle cx="499.58" cy="519" r="1"/><circle cx="495.58" cy="523" r="1"/><circle cx="499.58" cy="523" r="1"/><circle cx="497.58" cy="521" r="1"/><rect class="cls-4" x="488.58" y="508" width="6" height="16"/><rect class="cls-4" x="494.58" y="502" width="6" height="22"/><rect class="cls-4" x="500.58" y="512" width="6" height="12"/><rect class="cls-4" x="506.58" y="506" width="6" height="18"/><rect class="cls-4" x="512.58" y="499" width="6" height="25"/><rect class="cls-4" x="518.58" y="502" width="6" height="22"/><line class="cls-4" x1="484.58" y1="524" x2="528.58" y2="524"/><path class="cls-7" d="M93,519c0,5.25,4.25,9,9.5,9s9.5-3.75,9.5-9h11.47l-2-5A58.59,58.59,0,0,1,116,489.2V487H88v3.5a58,58,0,0,1-4.54,22.48l-2.19,6Z" transform="translate(0.08 -0.46)"/><path class="cls-7" d="M118.28,504.86a63.71,63.71,0,0,0,3.2,9.06l2,5H128Z" transform="translate(0.08 -0.46)"/><path class="cls-7" d="M85.65,506.36,77,519h4.27l2.19-6A66.75,66.75,0,0,0,85.65,506.36Z" transform="translate(0.08 -0.46)"/><line class="cls-4" x1="97.08" y1="491.5" x2="108.08" y2="491.5"/><line class="cls-4" x1="93.08" y1="498.5" x2="112.08" y2="498.5"/><line class="cls-4" x1="91.08" y1="505.5" x2="114.08" y2="505.5"/><line class="cls-4" x1="89.08" y1="511.5" x2="116.08" y2="511.5"/><line class="cls-4" x1="99.08" y1="521.5" x2="106.08" y2="521.5"/><line class="cls-4" x1="97.08" y1="516.5" x2="108.08" y2="516.5"/><path class="cls-7" d="M123.47,519H112c0,5.25-4.25,9-9.5,9s-9.5-3.75-9.5-9H77v21h51V519Z" transform="translate(0.08 -0.46)"/><rect class="cls-4" x="73.5" y="75.96" width="58" height="57" transform="translate(205.08 208.46) rotate(-180)"/><line class="cls-4" x1="79.58" y1="120.5" x2="91.58" y2="87.5"/><line class="cls-4" x1="103.58" y1="120.5" x2="91.58" y2="87.5"/><line class="cls-4" x1="108.58" y1="120.5" x2="116.58" y2="99.5"/><line class="cls-4" x1="124.58" y1="120.5" x2="116.58" y2="99.5"/><line class="cls-4" x1="83.94" y1="108.5" x2="99.21" y2="108.5"/><line class="cls-4" x1="111.63" y1="112.5" x2="121.53" y2="112.5"/><line class="cls-4" x1="121.58" y1="89.5" x2="116.58" y2="94.5"/><line class="cls-4" x1="116.58" y1="94.5" x2="111.58" y2="89.5"/><line class="cls-4" x1="116.58" y1="94.5" x2="116.58" y2="84.5"/><path class="cls-8" d="M304.5,85.05c-13.81,0-25,10-25,22.41a20.72,20.72,0,0,0,4.13,12.35c-.34,4.09-1.32,9.85-4.13,12.65,0,0,8.57-1.2,14.38-4.71a27.28,27.28,0,0,0,10.62,2.13c13.81,0,25-10,25-22.42S318.31,85.05,304.5,85.05Z" transform="translate(0.08 -0.46)"/><path class="cls-8" d="M298.47,124.7a53,53,0,0,1-4.59,3" transform="translate(0.08 -0.46)"/><path class="cls-8" d="M337.5,98.88c0-12.38-11.19-22.42-25-22.42-10,0-18.58,5.24-22.59,12.81a26.88,26.88,0,0,1,14.59-4.22c13.81,0,25,10,25,22.41a20.73,20.73,0,0,1-4.44,12.75,49,49,0,0,0,12.44,3.67c-2.81-2.81-3.79-8.57-4.13-12.66A20.69,20.69,0,0,0,337.5,98.88Z" transform="translate(0.08 -0.46)"/><line class="cls-4" x1="489.58" y1="89" x2="493.58" y2="85"/><line class="cls-4" x1="489.58" y1="94" x2="491.58" y2="92"/><line class="cls-4" x1="493.58" y1="90" x2="493.58" y2="90"/><line class="cls-4" x1="495.58" y1="88" x2="498.58" y2="85"/><line class="cls-4" x1="489.58" y1="99" x2="498.58" y2="90"/><line class="cls-4" x1="500.58" y1="88" x2="500.58" y2="88"/><line class="cls-4" x1="502.58" y1="86" x2="503.58" y2="85"/><line class="cls-4" x1="507.58" y1="78" x2="508.58" y2="78"/><path class="cls-4" d="M524.6,133.46H488.4a2.93,2.93,0,0,1-2.9-3V78.42a2.93,2.93,0,0,1,2.9-3h36.2a2.93,2.93,0,0,1,2.9,3V130.5A2.93,2.93,0,0,1,524.6,133.46Z" transform="translate(0.08 -0.46)"/><rect class="cls-4" x="485.58" y="81" width="42" height="44"/><circle class="cls-4" cx="507.58" cy="129" r="3"/><rect class="cls-6" x="279.58" y="280.5" width="58" height="58"/><circle class="cls-6" cx="285.58" cy="286.5" r="3"/><circle class="cls-6" cx="294.58" cy="286.5" r="3"/><circle class="cls-6" cx="303.58" cy="286.5" r="3"/><rect class="cls-6" x="279.58" y="280.5" width="58" height="12"/><rect class="cls-6" x="295.58" y="299.5" width="23" height="6"/><rect class="cls-6" x="295.58" y="310.5" width="23" height="6"/><rect class="cls-6" x="295.58" y="321.5" width="35" height="10"/><line class="Graphic-Style-2" x1="285.58" y1="299.5" x2="290.58" y2="299.5"/><line class="Graphic-Style-2" x1="285.58" y1="310.5" x2="290.58" y2="310.5"/><line class="Graphic-Style-2" x1="285.58" y1="321.5" x2="290.58" y2="321.5"/><line class="cls-4" x1="75.58" y1="280.5" x2="75.58" y2="338.5"/><line class="cls-4" x1="73.58" y1="336.5" x2="131.58" y2="336.5"/><line class="cls-4" x1="79.58" y1="307.5" x2="81.58" y2="307.5"/><line class="cls-4" x1="79.58" y1="303.5" x2="81.58" y2="303.5"/><line class="cls-4" x1="79.58" y1="299.5" x2="81.58" y2="299.5"/><line class="cls-4" x1="79.58" y1="295.5" x2="81.58" y2="295.5"/><line class="cls-4" x1="79.58" y1="291.5" x2="81.58" y2="291.5"/><line class="cls-4" x1="79.58" y1="287.5" x2="81.58" y2="287.5"/><line class="cls-4" x1="79.58" y1="283.5" x2="81.58" y2="283.5"/><circle class="cls-4" cx="83.59" cy="322.49" r="5"/><circle class="cls-4" cx="95.58" cy="310.5" r="5"/><circle class="cls-4" cx="126.58" cy="307.5" r="5"/><circle class="cls-4" cx="108.58" cy="323.5" r="5"/><line class="cls-4" x1="91.59" y1="313.49" x2="86.58" y2="318.5"/><line class="cls-4" x1="105.59" y1="319.51" x2="99.57" y2="313.49"/><line class="cls-4" x1="112.58" y1="320.5" x2="122.58" y2="310.5"/><path class="cls-6" d="M508.54,307.92h26.92A29,29,0,0,0,508.54,281Z" transform="translate(0.08 -0.46)"/><path class="cls-6" d="M527.85,329.58a28.89,28.89,0,0,0,7.61-17.66H510.19Z" transform="translate(0.08 -0.46)"/><path class="cls-6" d="M504.54,311.92V281a29,29,0,1,0,20.4,51.33Z" transform="translate(0.08 -0.46)"/><circle cx="511.62" cy="283.46" r="1"/><circle cx="511.62" cy="289.46" r="1"/><circle cx="514.62" cy="286.46" r="1"/><circle cx="520.62" cy="286.46" r="1"/><circle cx="517.62" cy="283.46" r="1"/><circle cx="517.62" cy="289.46" r="1"/><circle cx="523.62" cy="289.46" r="1"/><circle cx="526.62" cy="292.46" r="1"/><circle cx="514.62" cy="292.46" r="1"/><circle cx="520.62" cy="292.46" r="1"/><circle cx="532.62" cy="298.46" r="1"/><circle cx="526.62" cy="298.46" r="1"/><circle cx="529.62" cy="295.46" r="1"/><circle cx="529.62" cy="301.46" r="1"/><circle cx="511.62" cy="295.46" r="1"/><circle cx="511.62" cy="301.46" r="1"/><circle cx="514.62" cy="298.46" r="1"/><circle cx="520.62" cy="298.46" r="1"/><circle cx="517.62" cy="295.46" r="1"/><circle cx="523.62" cy="295.46" r="1"/><circle cx="517.62" cy="301.46" r="1"/><circle cx="523.62" cy="301.46" r="1"/><circle cx="532.62" cy="304.46" r="1"/><circle cx="526.62" cy="304.46" r="1"/><circle cx="514.62" cy="304.46" r="1"/><circle cx="520.62" cy="304.46" r="1"/><circle cx="526.62" cy="325.46" r="1"/><circle cx="520.62" cy="319.46" r="1"/><circle cx="517.62" cy="316.46" r="1"/><circle cx="532.62" cy="319.46" r="1"/><circle cx="526.62" cy="319.46" r="1"/><circle cx="529.62" cy="322.46" r="1"/><circle cx="523.62" cy="322.46" r="1"/><circle cx="529.62" cy="316.46" r="1"/><circle cx="523.62" cy="316.46" r="1"/><circle cx="514.62" cy="313.46" r="1"/><circle cx="520.62" cy="313.46" r="1"/><circle cx="532.62" cy="313.46" r="1"/><circle cx="526.62" cy="313.46" r="1"/><line class="cls-3" x1="312.58" y1="889" x2="312.58" y2="947"/><line class="cls-3" x1="284.58" y1="889" x2="284.58" y2="947"/><path class="cls-3" d="M305.5,908.46h34a0,0,0,0,1,0,0V926a2.46,2.46,0,0,1-2.46,2.46H308A2.46,2.46,0,0,1,305.5,926V908.46A0,0,0,0,1,305.5,908.46Z" transform="translate(-595.89 1240.5) rotate(-90)"/><path class="cls-3" d="M275,908.46H314a2.46,2.46,0,0,1,2.46,2.46v17.54a0,0,0,0,1,0,0h-44a0,0,0,0,1,0,0V910.92A2.46,2.46,0,0,1,275,908.46Z" transform="translate(1213.04 623.5) rotate(90)"/><circle cx="314.58" cy="932" r="1"/><circle cx="317.58" cy="929" r="1"/><circle cx="317.58" cy="923" r="1"/><circle cx="317.58" cy="911" r="1"/><circle cx="314.58" cy="926" r="1"/><circle cx="314.58" cy="920" r="1"/><circle cx="317.58" cy="917" r="1"/><circle cx="314.58" cy="914" r="1"/><circle cx="314.58" cy="908" r="1"/><circle cx="317.58" cy="905" r="1"/><circle cx="320.58" cy="932" r="1"/><circle cx="323.58" cy="929" r="1"/><circle cx="323.58" cy="923" r="1"/><circle cx="320.58" cy="926" r="1"/><circle cx="326.58" cy="932" r="1"/><circle cx="329.58" cy="929" r="1"/><circle cx="329.58" cy="923" r="1"/><circle cx="329.58" cy="911" r="1"/><circle cx="326.58" cy="926" r="1"/><circle cx="320.58" cy="920" r="1"/><circle cx="323.58" cy="917" r="1"/><circle cx="323.58" cy="911" r="1"/><circle cx="320.58" cy="914" r="1"/><circle cx="326.58" cy="920" r="1"/><circle cx="329.58" cy="917" r="1"/><circle cx="326.58" cy="914" r="1"/><circle cx="320.58" cy="908" r="1"/><circle cx="323.58" cy="905" r="1"/><circle cx="326.58" cy="908" r="1"/><circle cx="329.58" cy="905" r="1"/><path class="cls-4" d="M75.15,902a1.65,1.65,0,0,0-1.65,1.66V945l8-8h35.35a1.65,1.65,0,0,0,1.65-1.65V903.62a1.65,1.65,0,0,0-1.65-1.66Z" transform="translate(0.08 -0.46)"/><path class="cls-4" d="M129.85,892H88.15a1.65,1.65,0,0,0-1.65,1.66V902h30.35a1.65,1.65,0,0,1,1.65,1.66V927h11.35a1.65,1.65,0,0,0,1.65-1.65V893.62A1.65,1.65,0,0,0,129.85,892Z" transform="translate(0.08 -0.46)"/><circle class="cls-9" cx="82.58" cy="919.48" r="3"/><circle class="cls-9" cx="95.58" cy="919.48" r="3"/><circle class="cls-9" cx="108.58" cy="919.48" r="3"/><line class="cls-4" x1="495.58" y1="947" x2="495.58" y2="947"/><line class="cls-10" x1="495.58" y1="943.13" x2="495.58" y2="890.93"/><line class="cls-4" x1="495.58" y1="889" x2="495.58" y2="889"/><line class="cls-11" x1="499.27" y1="889" x2="515.86" y2="889"/><line class="cls-4" x1="517.7" y1="889" x2="517.7" y2="889"/><line class="cls-10" x1="517.7" y1="892.87" x2="517.7" y2="945.07"/><line class="cls-4" x1="517.7" y1="947" x2="517.7" y2="947"/><line class="cls-11" x1="514.02" y1="947" x2="497.42" y2="947"/><polyline class="Rounded-3" points="493.58 907 477.58 907 477.58 929 493.58 929"/><polyline class="cls-4" points="519.58 929 535.58 929 535.58 907 519.58 907"/><line class="cls-3" x1="482.58" y1="904" x2="486.58" y2="901"/><path class="cls-3" d="M495.5,889.46a13,13,0,0,0-13,13v2l-4-3" transform="translate(0.08 -0.46)"/><line class="cls-3" x1="531.58" y1="932" x2="527.58" y2="935"/><path class="cls-3" d="M518.5,947.46a13,13,0,0,0,13-13v-2l4,3" transform="translate(0.08 -0.46)"/><line class="Graphic-Style-2" x1="707.58" y1="327.5" x2="694.58" y2="327.5"/><line class="cls-4" x1="712.58" y1="331.5" x2="689.58" y2="331.5"/><rect class="cls-6" x="672.58" y="280.5" width="58" height="58"/><circle class="cls-6" cx="678.58" cy="286.5" r="3"/><circle class="cls-6" cx="687.58" cy="286.5" r="3"/><circle class="cls-6" cx="696.58" cy="286.5" r="3"/><rect class="cls-6" x="672.58" y="280.5" width="58" height="12"/><circle class="cls-4" cx="701.58" cy="310.5" r="12"/><line class="cls-4" x1="696.58" y1="310.5" x2="700.58" y2="314.5"/><line class="cls-4" x1="700.58" y1="314.5" x2="707.58" y2="307.5"/><rect class="cls-4" x="682.58" y="905.5" width="5" height="5" rx="1.04" ry="1.04"/><rect class="cls-4" x="693.58" y="905.5" width="5" height="5" rx="1.04" ry="1.04"/><rect class="cls-4" x="704.58" y="905.5" width="5" height="5" rx="1.04" ry="1.04"/><rect class="cls-4" x="715.58" y="905.5" width="5" height="5" rx="1.04" ry="1.04"/><rect class="cls-4" x="682.58" y="916.5" width="5" height="5" rx="1.04" ry="1.04"/><rect class="cls-4" x="693.58" y="916.5" width="5" height="5" rx="1.04" ry="1.04"/><rect class="cls-4" x="704.58" y="916.5" width="5" height="5" rx="1.04" ry="1.04"/><rect class="cls-4" x="715.58" y="916.5" width="5" height="5" rx="1.04" ry="1.04"/><rect class="cls-4" x="672.58" y="894.5" width="58" height="38"/><rect class="cls-4" x="687.58" y="938.5" width="28" height="3"/><line class="cls-4" x1="701.58" y1="932.5" x2="701.58" y2="937.5"/><rect class="cls-4" x="875.5" y="281.46" width="58" height="57" transform="translate(1809.08 619.46) rotate(-180)"/><line class="cls-4" x1="899.58" y1="294" x2="922.58" y2="294"/><line class="cls-4" x1="899.58" y1="310" x2="922.58" y2="310"/><line class="cls-4" x1="899.58" y1="326" x2="922.58" y2="326"/><rect class="cls-4" x="885.58" y="290" width="8" height="8"/><rect class="cls-4" x="885.58" y="306" width="8" height="8"/><rect class="cls-4" x="885.58" y="322" width="8" height="8"/><rect class="cls-6" x="921.5" y="484.46" width="12" height="12" transform="translate(1855.08 980.46) rotate(-180)"/><rect class="cls-6" x="875.5" y="484.46" width="12" height="12" transform="translate(1763.08 980.46) rotate(-180)"/><rect class="cls-6" x="921.5" y="530.46" width="12" height="12" transform="translate(1855.08 1072.46) rotate(-180)"/><rect class="cls-6" x="875.5" y="530.46" width="12" height="12" transform="translate(1763.08 1072.46) rotate(-180)"/><polygon class="cls-12" points="887.58 496 887.58 490 921.58 490 921.58 496 927.58 496 927.58 530 921.58 530 921.58 536 887.58 536 887.58 530 881.58 530 881.58 496 887.58 496"/><line class="cls-4" x1="875.58" y1="496" x2="887.58" y2="484"/><line class="cls-4" x1="875.58" y1="490" x2="881.58" y2="484"/><line class="cls-4" x1="881.58" y1="496" x2="887.58" y2="490"/><rect class="cls-3" x="674.54" y="510" width="6" height="6"/><rect class="cls-3" x="696.54" y="501" width="6" height="6"/><rect class="cls-3" x="717.46" y="491.46" width="6" height="6" transform="translate(1215 -226.47) rotate(90)"/><line class="cls-3" x1="696.54" y1="505.22" x2="680.54" y2="513.44"/><line class="cls-3" x1="717.54" y1="494.44" x2="702.54" y2="502.14"/><path class="cls-3" d="M717.46,492.27A26,26,0,0,0,684,495.08a24.84,24.84,0,0,0-7.56,15.38" transform="translate(0.08 -0.46)"/><path class="cls-3" d="M676.46,516.46A27.35,27.35,0,0,0,684,531.85a26,26,0,0,0,36.77,0,26.62,26.62,0,0,0,2.67-34.39" transform="translate(0.08 -0.46)"/><circle cx="699.54" cy="510" r="1"/><circle cx="705.54" cy="510" r="1"/><circle cx="717.54" cy="510" r="1"/><circle cx="711.54" cy="504" r="1"/><circle cx="717.54" cy="504" r="1"/><circle cx="714.54" cy="501" r="1"/><circle cx="708.54" cy="507" r="1"/><circle cx="711.54" cy="510" r="1"/><circle cx="714.54" cy="507" r="1"/><circle cx="720.54" cy="501" r="1"/><circle cx="720.54" cy="507" r="1"/><circle cx="723.54" cy="510" r="1"/><circle cx="723.54" cy="504" r="1"/><circle cx="726.54" cy="507" r="1"/><circle cx="681.54" cy="522" r="1"/><circle cx="693.54" cy="522" r="1"/><circle cx="687.54" cy="516" r="1"/><circle cx="693.54" cy="516" r="1"/><circle cx="690.54" cy="513" r="1"/><circle cx="684.54" cy="519" r="1"/><circle cx="687.54" cy="522" r="1"/><circle cx="690.54" cy="519" r="1"/><circle cx="696.54" cy="513" r="1"/><circle cx="699.54" cy="516" r="1"/><circle cx="705.54" cy="516" r="1"/><circle cx="702.54" cy="513" r="1"/><circle cx="696.54" cy="519" r="1"/><circle cx="699.54" cy="522" r="1"/><circle cx="705.54" cy="522" r="1"/><circle cx="717.54" cy="522" r="1"/><circle cx="702.54" cy="519" r="1"/><circle cx="708.54" cy="513" r="1"/><circle cx="711.54" cy="516" r="1"/><circle cx="717.54" cy="516" r="1"/><circle cx="714.54" cy="513" r="1"/><circle cx="708.54" cy="519" r="1"/><circle cx="711.54" cy="522" r="1"/><circle cx="714.54" cy="519" r="1"/><circle cx="720.54" cy="513" r="1"/><circle cx="720.54" cy="519" r="1"/><circle cx="723.54" cy="522" r="1"/><circle cx="723.54" cy="516" r="1"/><circle cx="726.54" cy="513" r="1"/><circle cx="726.54" cy="519" r="1"/><circle cx="681.54" cy="528" r="1"/><circle cx="693.54" cy="534" r="1"/><circle cx="684.54" cy="525" r="1"/><circle cx="687.54" cy="528" r="1"/><circle cx="693.54" cy="528" r="1"/><circle cx="690.54" cy="525" r="1"/><circle cx="684.54" cy="531" r="1"/><circle cx="687.54" cy="534" r="1"/><circle cx="690.54" cy="531" r="1"/><circle cx="696.54" cy="525" r="1"/><circle cx="699.54" cy="528" r="1"/><circle cx="705.54" cy="528" r="1"/><circle cx="702.54" cy="525" r="1"/><circle cx="696.54" cy="531" r="1"/><circle cx="699.54" cy="534" r="1"/><circle cx="705.54" cy="534" r="1"/><circle cx="702.54" cy="531" r="1"/><circle cx="708.54" cy="525" r="1"/><circle cx="711.54" cy="528" r="1"/><circle cx="717.54" cy="528" r="1"/><circle cx="714.54" cy="525" r="1"/><circle cx="708.54" cy="531" r="1"/><circle cx="711.54" cy="534" r="1"/><circle cx="714.54" cy="531" r="1"/><circle cx="720.54" cy="525" r="1"/><circle cx="696.54" cy="537" r="1"/><circle cx="702.54" cy="537" r="1"/><circle cx="708.54" cy="537" r="1"/><path class="cls-6" d="M915,722v7H893v-7H876.07a.06.06,0,0,0-.05.06v19.56A2.37,2.37,0,0,0,878.4,744h51.23a2.38,2.38,0,0,0,2.39-2.38V722A.06.06,0,0,0,932,722Z" transform="translate(0.08 -0.46)"/><path class="cls-6" d="M917,696v-8L933,701.14a.07.07,0,0,1,0,.1L917,715v-7.7S903,704.59,895.09,717a17.23,17.23,0,0,1,.68-6.6c2.43-8.46,10.3-14.07,19.1-14.39C915.58,695.94,916.24,695.94,917,696Z" transform="translate(0.08 -0.46)"/><path class="cls-6" d="M917,715v-7.7S903,704.59,895.09,717a17.23,17.23,0,0,1,.68-6.6,20.58,20.58,0,0,1,1.35-3.4H886l-10,15s0,0,0,0H893v7h22v-7h17s0,0,0,0l-8.42-12.61Z" transform="translate(0.08 -0.46)"/><circle class="cls-6" cx="704.58" cy="727.39" r="15"/><path class="cls-13" d="M704.5,697.86v15a15,15,0,0,1,14.44,11H730.5v-26Z" transform="translate(0.08 -0.46)"/><path class="cls-13" d="M704.5,712.86v-3.11l-11.81-20.68L672.5,723.86h17.56A15,15,0,0,1,704.5,712.86Z" transform="translate(0.08 -0.46)"/><circle cx="705.58" cy="703.39" r="1"/><circle cx="711.58" cy="703.39" r="1"/><circle cx="708.58" cy="700.39" r="1"/><circle cx="705.58" cy="709.39" r="1"/><circle cx="711.58" cy="709.39" r="1"/><circle cx="723.58" cy="709.39" r="1"/><circle cx="708.58" cy="706.39" r="1"/><circle cx="714.58" cy="700.39" r="1"/><circle cx="717.58" cy="703.39" r="1"/><circle cx="723.58" cy="703.39" r="1"/><circle cx="720.58" cy="700.39" r="1"/><circle cx="714.58" cy="706.39" r="1"/><circle cx="717.58" cy="709.39" r="1"/><circle cx="720.58" cy="706.39" r="1"/><circle cx="726.58" cy="700.39" r="1"/><circle cx="726.58" cy="706.39" r="1"/><circle cx="729.58" cy="709.39" r="1"/><circle cx="729.58" cy="703.39" r="1"/><circle cx="708.58" cy="712.39" r="1"/><circle cx="723.58" cy="721.39" r="1"/><circle cx="714.58" cy="712.39" r="1"/><circle cx="717.58" cy="715.39" r="1"/><circle cx="723.58" cy="715.39" r="1"/><circle cx="720.58" cy="712.39" r="1"/><circle cx="720.58" cy="718.39" r="1"/><circle cx="726.58" cy="712.39" r="1"/><circle cx="726.58" cy="718.39" r="1"/><circle cx="729.58" cy="721.39" r="1"/><circle cx="729.58" cy="715.39" r="1"/><polygon class="cls-3" points="701.58 132 675.58 119 675.58 87 701.58 100 701.58 132"/><polygon class="cls-3" points="701.58 132 727.58 119 727.58 87 701.58 100 701.58 132"/><polygon class="cls-3" points="675.58 87 700.58 74 727.58 87 701.58 100 675.58 87"/><circle cx="687.58" cy="100" r="1"/><circle cx="678.58" cy="91" r="1"/><circle cx="681.58" cy="94" r="1"/><circle cx="687.58" cy="94" r="1"/><circle cx="678.58" cy="97" r="1"/><circle cx="681.58" cy="100" r="1"/><circle cx="684.58" cy="97" r="1"/><circle cx="690.58" cy="97" r="1"/><circle cx="693.58" cy="100" r="1"/><circle cx="699.58" cy="100" r="1"/><circle cx="687.58" cy="112" r="1"/><circle cx="678.58" cy="103" r="1"/><circle cx="681.58" cy="106" r="1"/><circle cx="687.58" cy="106" r="1"/><circle cx="684.58" cy="103" r="1"/><circle cx="678.58" cy="109" r="1"/><circle cx="681.58" cy="112" r="1"/><circle cx="684.58" cy="109" r="1"/><circle cx="690.58" cy="103" r="1"/><circle cx="690.58" cy="109" r="1"/><circle cx="693.58" cy="112" r="1"/><circle cx="693.58" cy="106" r="1"/><circle cx="696.58" cy="103" r="1"/><circle cx="696.58" cy="109" r="1"/><circle cx="699.58" cy="112" r="1"/><circle cx="699.58" cy="106" r="1"/><circle cx="678.58" cy="115" r="1"/><circle cx="681.58" cy="118" r="1"/><circle cx="687.58" cy="118" r="1"/><circle cx="684.58" cy="115" r="1"/><circle cx="684.58" cy="121" r="1"/><circle cx="690.58" cy="115" r="1"/><circle cx="690.58" cy="121" r="1"/><circle cx="693.58" cy="118" r="1"/><circle cx="696.58" cy="115" r="1"/><circle cx="696.58" cy="121" r="1"/><circle cx="699.58" cy="118" r="1"/><rect class="cls-4" x="904.58" y="111" width="24" height="16"/><rect class="cls-4" x="908.5" y="91.46" width="16" height="24" transform="translate(1020.04 -813.5) rotate(90)"/><rect class="cls-4" x="904.58" y="79" width="24" height="16"/><rect class="cls-4" x="875.58" y="74" width="58" height="58"/><rect class="cls-4" x="880.58" y="79" width="48" height="48"/><line class="cls-4" x1="904.58" y1="79" x2="904.58" y2="127"/></g></svg>