<svg id="Layer_1" data-name="Layer 1" xmlns="http://www.w3.org/2000/svg" viewBox="0 0 1001 732"><defs><style>.cls-1{fill:#bfaed2;}.cls-2{fill:#8a76b5;}.cls-3{fill:#67328f;}.cls-4{fill:#714e9d;}.cls-5{fill:#eee2ec;}.cls-6{fill:#0c0d0e;}.cls-7{fill:#beadd2;}.cls-8{fill:#beaed2;}.cls-9{fill:#8976b5;}</style></defs><title>echo_logo</title><path class="cls-1" d="M-109.78,843.42C-118.63,845-123.27,851-126,859v8c4,9.11,9.57,15.72,20.77,15.09,7.49-.43,13.08-3.53,16.24-10.3,3.4-7.28,3.31-14.57-1.89-21C-95.68,844.77-102,842-109.78,843.42Z" transform="translate(126 -301)"/><path class="cls-1" d="M-109.74,301.39C-118.59,303-123.29,309-126,317v7c4.91,12.29,10.06,16.3,20.94,16,7.71-.21,13.36-4,16.41-11s2.79-14-2.16-20.21C-95.63,302.81-101.9,300-109.74,301.39Z" transform="translate(126 -301)"/><path class="cls-2" d="M-100.68,388.39a19.49,19.49,0,0,0,13.26-24,19.56,19.56,0,0,0-23.74-13.63c-8.18,2-12.19,7.91-14.84,15.22v7c.35.91.75,1.8,1,2.72A19.47,19.47,0,0,0-100.68,388.39Z" transform="translate(126 -301)"/><path class="cls-2" d="M-100.68,437.38a19.49,19.49,0,0,0,13.27-24,19.6,19.6,0,0,0-23.75-13.63c-8.18,2-12.19,7.91-14.84,15.22v7c.35.91.75,1.8,1,2.72A19.45,19.45,0,0,0-100.68,437.38Z" transform="translate(126 -301)"/><path class="cls-3" d="M-100.19,535.22a19.31,19.31,0,0,0,12.58-24.29,19.39,19.39,0,0,0-23.56-13.16c-8.18,2-12.19,7.91-14.83,15.23v7c.45,1.23.88,2.48,1.35,3.71A19.52,19.52,0,0,0-100.19,535.22Z" transform="translate(126 -301)"/><path class="cls-4" d="M-100.67,486.37a19.36,19.36,0,0,0,13.21-24,19.48,19.48,0,0,0-23.71-13.63c-8.16,2-12.17,7.92-14.83,15.22v7c.39,1.07.8,2.14,1.18,3.22A19.53,19.53,0,0,0-100.67,486.37Z" transform="translate(126 -301)"/><path class="cls-5" d="M163.37,993.94c-7.72-.12-13.25,3.51-16.49,10s-3,13,.71,19.48c3.06,5.36,8.45,7.1,13.41,9.6h8c.62-1.67,2.23-1.76,3.58-2.35A18.81,18.81,0,0,0,183.17,1009C180.62,998.66,174.42,994.11,163.37,993.94Z" transform="translate(126 -301)"/><path class="cls-3" d="M-100.66,633.38a19.34,19.34,0,0,0,13-24.45,19.42,19.42,0,0,0-24-13c-7.89,2.13-11.79,8-14.35,15.12v7c.35.92.73,1.83,1,2.76A19.41,19.41,0,0,0-100.66,633.38Z" transform="translate(126 -301)"/><path class="cls-3" d="M-100.65,584.38a19.35,19.35,0,0,0,13-24.45c-3.08-10.24-13.55-15.88-24-13-7.89,2.13-11.76,8-14.34,15.12v7c.35.92.73,1.83,1,2.76A19.44,19.44,0,0,0-100.65,584.38Z" transform="translate(126 -301)"/><path class="cls-3" d="M-100.67,685.53a19.68,19.68,0,0,0,13.27-24c-2.84-10.42-13.51-16.38-24.2-13.56-7.91,2.08-11.79,8-14.4,15.07v7c.31.76.67,1.49.92,2.27A19.57,19.57,0,0,0-100.67,685.53Z" transform="translate(126 -301)"/><path class="cls-2" d="M-100.69,832.48A19.55,19.55,0,0,0-87.57,808a19.56,19.56,0,0,0-25-12.85c-7.34,2.39-11,8-13.45,14.82v7a24.15,24.15,0,0,1,.94,2.24A19.47,19.47,0,0,0-100.69,832.48Z" transform="translate(126 -301)"/><path class="cls-4" d="M-100.69,734.51a19.61,19.61,0,0,0,13.27-24,19.52,19.52,0,0,0-24.17-13.57c-7.89,2.1-11.8,7.94-14.41,15.06v7c.31.75.68,1.48.92,2.25A19.55,19.55,0,0,0-100.69,734.51Z" transform="translate(126 -301)"/><path class="cls-2" d="M-100.69,783.48A19.57,19.57,0,0,0-87.57,759a19.57,19.57,0,0,0-25-12.85c-7.32,2.39-11,8-13.44,14.82v7a24.15,24.15,0,0,1,.94,2.24A19.49,19.49,0,0,0-100.69,783.48Z" transform="translate(126 -301)"/><path class="cls-6" d="M874.17,538c-.06,2.5-.16,5-.16,7.48q0,97.56,0,195.13c0,1.83.1,3.66.15,5.48l.42,0L875,746V538A1.31,1.31,0,0,0,874.17,538Z" transform="translate(126 -301)"/><path class="cls-6" d="M688.13,800.78a38.23,38.23,0,0,0,.37-5.46q0-123.48,0-247c0-11-.68-21.89-3.42-32.63-8.77-34.42-41.52-52.53-73.8-40.65-9.9,3.65-17.74,10.22-25,18.37-1.13-2.29-.69-4.13-.69-5.88q0-69.49,0-139c0-9.4-3.06-12.43-12.6-12.46h-16c-10.12,0-12.93,2.87-12.93,13.13v447c0,1,0,2,0,3,.2,6.08,3.61,9.57,9.66,9.66,6.33.1,12.66,0,19,0,10.5,0,12.86-2.4,12.86-13V547.44c0-6.33.44-12.62,2.44-18.7,4.47-13.56,15.88-21.88,29.14-21.2,15,.76,24.18,8.18,27.61,22.6A68.53,68.53,0,0,1,646.13,546q0,124.74,0,249.48c0,1.33-.06,2.67,0,4,.32,5.78,3.75,9.28,9.5,9.37,7.83.13,15.67.12,23.5,0C684.3,808.78,687.42,805.89,688.13,800.78Z" transform="translate(126 -301)"/><path class="cls-6" d="M312.06,714.17c-.19-5.13-3.67-7.57-9.3-7.66-7.16-.11-14.33-.07-21.49,0s-10.12,3.16-10.3,10.35c-.24,10.47.87,21-1,31.41-3.6,20.67-22.48,32.55-42.67,26.8-14.21-4-23.35-16.8-23.43-33.27-.12-25.83.11-51.65-.16-77.47,0-4.75,1.41-5.56,5.75-5.53,29,.19,58,.13,87,.08,9.72,0,14.65-4.56,15.67-14.2a56.4,56.4,0,0,0,.35-6q0-44.24,0-88.47A117.64,117.64,0,0,0,311,528.87c-4.12-22-15.16-39-35.8-49-17.09-8.24-35.17-9.56-53.55-6.72-22.34,3.47-40.26,14-51.09,34.65-5.89,11.25-8.32,23.42-8.38,36-.16,33-.06,66-.06,99,0,19-.16,38,0,57,.2,17.81-.83,35.63.81,53.43,2.48,26.93,19.05,47.39,44.85,55A100.46,100.46,0,0,0,251.75,811c26.5-4,45.57-17.83,55.56-43.19C314.16,750.44,312.73,732.24,312.06,714.17ZM203.81,619.09c.2-13,.08-26,.08-39H204c0-13-.26-26,.07-39,.39-15,10.15-28,23.45-32,19.89-6.06,39.27,6.5,42.53,27.5A87.47,87.47,0,0,1,271,550c0,23.16-.12,46.32.08,69.48,0,3.74-.87,4.65-4.61,4.61-19.33-.21-38.66-.25-58,0C204.3,624.18,203.76,622.69,203.81,619.09Z" transform="translate(126 -301)"/><path class="cls-6" d="M874,545.43c0-2.49.1-5,.16-7.48-.4-3.63-.6-7.29-1.23-10.88-4.53-25.63-18-43.92-43.55-51.69-13.74-4.17-27.89-4.54-42-2.29-25.6,4.09-44,17.17-52.53,42.61-3.71,11.08-4.32,22.48-4.34,33.93q-.15,87.43,0,174.87c0,8-.07,16,.57,23.94,1.53,19.23,8.16,36.19,23.56,48.75,10.6,8.65,23.05,12.89,36.49,14.31,17.67,1.86,34.93.33,50.62-8.77C863.4,790.18,872.28,770,874.16,746c0-1.82-.15-3.65-.15-5.48Q874,643,874,545.43ZM832.86,642q0,48.72,0,97.43a51.46,51.46,0,0,1-2.75,17.12c-4.65,13.29-14.7,20.4-28.26,19.91-14.19-.51-23.92-8-27.68-21.46a52.83,52.83,0,0,1-2-14.27q0-98.41,0-196.85c0-9,2-17.49,7.41-24.83,7.22-9.73,19.83-13.75,32.07-10.48,11.18,3,18.63,12.39,20.35,25.58a108.63,108.63,0,0,1,.9,14.42Q832.8,595.31,832.86,642Z" transform="translate(126 -301)"/><path class="cls-6" d="M397.74,806.72c10.14,4,20.85,5.17,31.73,5.44,34.79.87,61.85-19.36,70-53.13,4.48-18.68,2.14-37.81,2.26-56.75,0-5.11-4.18-8.19-9.5-8.26-7-.08-14,0-21,0-7.94,0-11.05,3.18-11.08,11.25-.05,12.84.18,25.67-.19,38.5-.4,13.4-8,24.18-18.93,27.91-12.13,4.14-25.92.51-34.05-9.08-6.05-7.14-7.42-15.75-7.42-24.71q0-48,0-96t0-96c0-8,1.09-15.86,5.09-23.06,6-10.9,15.62-15.66,27.65-15.17,12.38.51,20.67,7.09,24.93,18.8A53,53,0,0,1,460.12,545c0,13-.07,26,0,39,.05,6.44,3.52,9.88,9.85,9.94q11,.1,22,0c5.78-.05,9.87-3.39,9.79-9.05-.27-19.78,1.83-39.69-1.84-59.32-4.84-25.91-19.37-43.54-45.32-50.63a95,95,0,0,0-51.23.47c-21.08,5.86-35.07,19.42-41.48,40.52A94.09,94.09,0,0,0,358,543.51q0,95,0,190a151.07,151.07,0,0,0,1,20.94C362.38,778.94,374,797.42,397.74,806.72Z" transform="translate(126 -301)"/><path class="cls-1" d="M-52.16,340.28c8.95.11,20.38-8.39,19.24-19.63A19.41,19.41,0,0,0-52.34,301,19.91,19.91,0,0,0-72,320.73C-72.09,331.33-62.07,340.16-52.16,340.28Z" transform="translate(126 -301)"/><path class="cls-7" d="M1.6,386c11.41.1,19.45-7.84,19.5-19.25,0-11.72-7.61-19.63-18.93-19.78s-19.56,7.67-20,19.69C-18.17,377.17-8.94,385.91,1.6,386Z" transform="translate(126 -301)"/><path class="cls-8" d="M164,441A19.52,19.52,0,0,0,184,421.26c.06-10.42-8.77-19.18-19.42-19.26-11.46-.09-19.55,7.83-19.59,19.19S152.87,441,164,441Z" transform="translate(126 -301)"/><path class="cls-7" d="M109.8,441.05c10.8.21,20.14-7.66,19.94-19.63S120.9,402.35,110.52,402c-11.32-.4-20.77,9.83-19.61,19.22C90.86,433,98.47,440.83,109.8,441.05Z" transform="translate(126 -301)"/><path class="cls-2" d="M2.23,435c10.78-.05,19-8.45,19-19.5,0-11.31-8.14-19.55-19.43-19.57a19.71,19.71,0,0,0-19.64,19.71A19.74,19.74,0,0,0,2.23,435Z" transform="translate(126 -301)"/><path class="cls-2" d="M1.67,444.93a19.7,19.7,0,0,0-19.49,19.36C-18,475-9,484,1.87,484c11.11,0,19.39-8.36,19.38-19.65S12.89,444.85,1.67,444.93Z" transform="translate(126 -301)"/><path class="cls-1" d="M-52.62,843.05c-10.27.11-19.36,9.31-19.33,19.55A19.33,19.33,0,0,0-52.34,882c10.34,1.21,20-8.76,19.53-19.14C-33.28,851.64-41.55,842.93-52.62,843.05Z" transform="translate(126 -301)"/><path class="cls-1" d="M56.06,386c12.84,0,19.49-9.24,19.54-18.94.06-11.44-7-19.6-19.53-20-11-.38-20.31,9.28-19.17,19.52C36.9,378.22,44.58,386.05,56.06,386Z" transform="translate(126 -301)"/><path class="cls-7" d="M163.62,941.05c-10.2,0-18.7,9.06-18.69,19.87,0,11.48,7.84,19.21,19.41,19.17A19.36,19.36,0,0,0,184,960.67C184,950.15,174.55,941,163.62,941.05Z" transform="translate(126 -301)"/><path class="cls-3" d="M1.72,542.9a19.69,19.69,0,0,0-19.51,19.83A19.72,19.72,0,0,0,1.82,582a19.21,19.21,0,0,0,19.53-19.61A19.1,19.1,0,0,0,1.72,542.9Z" transform="translate(126 -301)"/><path class="cls-4" d="M1.56,493.91a19.71,19.71,0,0,0-19.34,19.48A19.73,19.73,0,0,0,2,533c11,0,19.39-8.6,19.33-19.76S12.77,493.85,1.56,493.91Z" transform="translate(126 -301)"/><path class="cls-3" d="M1.49,591.9A19.55,19.55,0,1,0,2,631a19.23,19.23,0,0,0,19.31-19.83C21.26,600.07,12.7,591.76,1.49,591.9Z" transform="translate(126 -301)"/><path class="cls-2" d="M-52.13,399a19.8,19.8,0,0,0-19.7,19.69c-.08,10.86,8.65,19.42,19.77,19.38s19.4-8.38,19.29-19.67A19.53,19.53,0,0,0-52.13,399Z" transform="translate(126 -301)"/><path class="cls-7" d="M2.17,892c-10.76.09-20.17,9.33-20.06,20s8.8,18.51,19.67,19.12c10.11.57,20.39-8.81,19.31-19.49C22.55,900.82,10.81,891.94,2.17,892Z" transform="translate(126 -301)"/><path class="cls-3" d="M-52.48,546A19.77,19.77,0,0,0-71.8,565.57a19.26,19.26,0,0,0,19.61,19.54,19,19,0,0,0,19.51-19.56A19.64,19.64,0,0,0-52.48,546Z" transform="translate(126 -301)"/><path class="cls-2" d="M-52.36,745.17a19.64,19.64,0,0,0-19.48,19.31,19.23,19.23,0,0,0,19.5,19.61c11.36,0,19.54-8.05,19.57-19.34A19.3,19.3,0,0,0-52.36,745.17Z" transform="translate(126 -301)"/><path class="cls-2" d="M164.68,882.24a19.33,19.33,0,0,0,19.15-19.53A19.74,19.74,0,0,0,164,843.17c-10.86.08-19.3,8.86-19.22,20S153.32,882.38,164.68,882.24Z" transform="translate(126 -301)"/><path class="cls-2" d="M110.45,451a19.11,19.11,0,0,0-19.69,19.4c-.07,11.31,8.12,19.67,19.31,19.68a19.54,19.54,0,1,0,.38-39.08Z" transform="translate(126 -301)"/><path class="cls-2" d="M164,892.17c-10.83.11-19.26,8.9-19.18,20s8.55,19.21,19.92,19a19.34,19.34,0,0,0,19.11-19.56A19.75,19.75,0,0,0,164,892.17Z" transform="translate(126 -301)"/><path class="cls-3" d="M-52.17,647.2A19.43,19.43,0,0,0-71.8,666.81a19.17,19.17,0,0,0,19.29,19.3c11.35.07,19.7-8,19.84-19.18A19.39,19.39,0,0,0-52.17,647.2Z" transform="translate(126 -301)"/><path class="cls-3" d="M-52.14,497A19.78,19.78,0,0,0-71.8,516.74a19.22,19.22,0,0,0,19.29,19.37c11.29.08,19.73-8.1,19.83-19.23A19.61,19.61,0,0,0-52.14,497Z" transform="translate(126 -301)"/><path class="cls-2" d="M-52.23,794.16a19.61,19.61,0,0,0-19.6,19.71,19.21,19.21,0,0,0,19.36,19.22c11.47.06,19.62-7.89,19.69-19.21A19.31,19.31,0,0,0-52.23,794.16Z" transform="translate(126 -301)"/><path class="cls-2" d="M-52.25,350a19.81,19.81,0,0,0-19.58,19.82,19.24,19.24,0,0,0,19.4,19.25c11.35,0,19.62-8.07,19.66-19.3A19.51,19.51,0,0,0-52.25,350Z" transform="translate(126 -301)"/><path class="cls-2" d="M56.09,445a18.93,18.93,0,0,0-19.34,19.15c-.09,11.53,7.82,19.85,19,19.94s20-8.59,19.93-19.33A19.61,19.61,0,0,0,56.09,445Z" transform="translate(126 -301)"/><path class="cls-4" d="M-52.18,448c-10.65-.12-19.61,8.92-19.6,19.76a19.23,19.23,0,0,0,19.29,19.34c11.29.07,19.67-8.09,19.77-19.26A19.55,19.55,0,0,0-52.18,448Z" transform="translate(126 -301)"/><path class="cls-3" d="M-52.22,595a19.75,19.75,0,0,0-19.58,19.8,19.22,19.22,0,0,0,19.36,19.3c11.26.07,19.68-8.16,19.76-19.3A19.62,19.62,0,0,0-52.22,595Z" transform="translate(126 -301)"/><path class="cls-2" d="M55.94,435.09A19.55,19.55,0,0,0,56.38,396c-11.09-.19-19.56,8.15-19.63,19.36C36.68,426.77,44.75,435.07,55.94,435.09Z" transform="translate(126 -301)"/><path class="cls-3" d="M75.7,611.78A19.75,19.75,0,0,0,56.09,592a19.17,19.17,0,0,0-19.44,19.16c-.14,11.33,8,19.86,19.07,20A19.58,19.58,0,0,0,75.7,611.78Z" transform="translate(126 -301)"/><path class="cls-4" d="M-51.95,696.21A19.4,19.4,0,0,0-71.78,715.6c-.15,10.94,8.42,19.48,19.55,19.51s19.51-8.23,19.51-19.46A19.31,19.31,0,0,0-51.95,696.21Z" transform="translate(126 -301)"/><path class="cls-1" d="M109.91,941.28a18.88,18.88,0,0,0-19.1,19.45c.4,12,7.4,19.36,19.29,19.36,10,1.37,19.7-7.8,19.67-19.27C129.74,950.26,121.9,941.31,109.91,941.28Z" transform="translate(126 -301)"/><path class="cls-3" d="M56.43,543a19.18,19.18,0,0,0-19.78,19.33c-.08,11.28,8.14,19.74,19.24,19.78a19.62,19.62,0,0,0,19.83-19.5A19.82,19.82,0,0,0,56.43,543Z" transform="translate(126 -301)"/><path class="cls-4" d="M56,533.11A19.56,19.56,0,0,0,56.33,494a19.13,19.13,0,0,0-19.64,19.41C36.64,524.69,44.87,533.1,56,533.11Z" transform="translate(126 -301)"/><path class="cls-1" d="M56.23,892.18c-10.92.06-20.71,9.37-19.33,19.65,0,11.91,7.33,19.26,19.22,19.26,11.12,0,19.3-7.91,19.56-18.9C75.92,901.71,66.92,892.13,56.23,892.18Z" transform="translate(126 -301)"/><path class="cls-2" d="M2.5,833.09c10.89-.08,18.79-8.34,18.74-19.58A19.3,19.3,0,0,0,2,794.12,19.94,19.94,0,0,0-17.8,813.73C-18,824.59-9,833.18,2.5,833.09Z" transform="translate(126 -301)"/><path class="cls-2" d="M109.93,892.2a19.44,19.44,0,0,0-19.18,19.51c-.07,11.38,8,19.51,19.32,19.53a19.36,19.36,0,0,0,19.74-19.41A20.08,20.08,0,0,0,109.93,892.2Z" transform="translate(126 -301)"/><path class="cls-4" d="M109.91,833.3A19.36,19.36,0,0,0,129.78,814a19.91,19.91,0,0,0-19.69-19.77A19.44,19.44,0,0,0,90.7,813.56C90.57,824.87,98.69,833.22,109.91,833.3Z" transform="translate(126 -301)"/><path class="cls-2" d="M110.05,843.2a19.43,19.43,0,0,0-19.29,19.4c-.1,11.44,7.86,19.58,19.2,19.64a19.37,19.37,0,0,0,19.85-19.3A20.07,20.07,0,0,0,110.05,843.2Z" transform="translate(126 -301)"/><path class="cls-3" d="M2.22,647.13a19.84,19.84,0,0,0-20,19.41A19.34,19.34,0,0,0,1.82,686.11c11.27,0,19.55-8.2,19.53-19.43A19.36,19.36,0,0,0,2.22,647.13Z" transform="translate(126 -301)"/><path class="cls-3" d="M1.89,696.12a19.84,19.84,0,0,0-19.68,19.75c.08,10.9,8.75,19.27,19.94,19.24,10.94,0,19.14-8.25,19.19-19.26A19.35,19.35,0,0,0,1.89,696.12Z" transform="translate(126 -301)"/><path class="cls-4" d="M2.14,745.14a19.81,19.81,0,0,0-19.91,19.48C-18,775.39-9.19,784.09,1.9,784.11s19.43-8.22,19.4-19.5A19.32,19.32,0,0,0,2.14,745.14Z" transform="translate(126 -301)"/><path class="cls-2" d="M1.91,843.17A19.82,19.82,0,0,0-17.8,862.85,19.35,19.35,0,0,0,1.62,882.1c11.42.07,19.56-7.89,19.63-19.21A19.21,19.21,0,0,0,1.91,843.17Z" transform="translate(126 -301)"/><path class="cls-3" d="M56.22,686.34a19.48,19.48,0,0,0,19.49-19.27,20,20,0,0,0-19.6-19.87,19.4,19.4,0,0,0-19.46,19.73C36.65,678.17,44.93,686.39,56.22,686.34Z" transform="translate(126 -301)"/><path class="cls-2" d="M56.26,833.24A19.27,19.27,0,0,0,75.67,814a20,20,0,0,0-19.59-19.84c-10.75-.09-19.35,8.7-19.33,19.77C36.76,825.31,44.82,833.27,56.26,833.24Z" transform="translate(126 -301)"/><path class="cls-9" d="M56.27,882.24A19.33,19.33,0,0,0,75.67,863a20,20,0,0,0-19.6-19.83c-10.75-.07-19.33,8.73-19.32,19.79C36.76,874.4,44.75,882.28,56.27,882.24Z" transform="translate(126 -301)"/><path class="cls-4" d="M55.78,784.3A19.43,19.43,0,0,0,75.67,765a19.93,19.93,0,0,0-19.62-19.77c-10.83,0-19.37,8.69-19.36,19.77S44.79,784.22,55.78,784.3Z" transform="translate(126 -301)"/><path class="cls-3" d="M55.91,696.21a19.36,19.36,0,0,0-19.26,19.43c-.09,11.31,8,19.63,19.27,19.71a19.52,19.52,0,0,0,19.79-19.48A20,20,0,0,0,55.91,696.21Z" transform="translate(126 -301)"/><path class="cls-2" d="M114.52,535.37a131.09,131.09,0,0,1,4.44-26c2-6.84.72-8.53-6.47-9.32a23.17,23.17,0,0,0-2.5,0c-11.09.05-19.34,8.58-19.23,19.85a19,19,0,0,0,19.35,19.24C112.92,539.13,114.28,538.43,114.52,535.37Z" transform="translate(126 -301)"/><path class="cls-3" d="M111.35,784.34a30,30,0,0,0,4-.54c3.34-.83,5.41-1.91,3.86-6.43-3.07-9-4.15-18.43-4.69-27.86-.21-3.8-2-4.42-5-4.29a19.51,19.51,0,0,0-18.8,20.37C91,776.48,99.34,784.44,111.35,784.34Z" transform="translate(126 -301)"/><path class="cls-3" d="M111,637.16c2.31-.13,3.17-.77,3.1-3.18-.16-5.47,0-11,0-16.44s-.09-11,0-16.44c0-2.39-.85-3.05-3.19-3.16a19.62,19.62,0,1,0,.1,39.22Z" transform="translate(126 -301)"/><path class="cls-4" d="M110.87,588.14c2.27-.12,3.25-.69,3.18-3.15-.17-5.33,0-10.66,0-16,0-5.5-.09-11,0-16.49.06-2.49-.64-3.47-3.35-3.57a19.61,19.61,0,1,0,.18,39.2Z" transform="translate(126 -301)"/><path class="cls-3" d="M110.66,686.4c2.55-.11,3.48-.86,3.39-3.49-.18-5.31,0-10.64,0-16s-.17-10.66.07-16c.13-3-1.29-3.69-3.8-3.78-10.46-.41-19.59,8.7-19.62,19.64A19.15,19.15,0,0,0,110.66,686.4Z" transform="translate(126 -301)"/><path class="cls-3" d="M110,696.2c-10.83-.12-19.69,9.18-19.36,20.39a19.17,19.17,0,0,0,20.26,18.81c2.33-.15,3.19-.83,3.13-3.23-.16-5.32,0-10.65,0-16s-.2-10.66.07-16C114.24,697,112.76,696.22,110,696.2Z" transform="translate(126 -301)"/></svg>