<svg id="Layer_1" data-name="Layer 1" xmlns="http://www.w3.org/2000/svg" viewBox="0 0 80.93 214.56"><defs><style>.cls-1{fill:#727272;}.cls-2{fill:#333232;}.cls-3{fill:#131313;}.cls-4{fill:#8a6126;}.cls-5{fill:#488d69;}.cls-6{fill:#367653;}.cls-7{fill:#ebc19c;}.cls-8{fill:#ccc;}.cls-9{fill:#4e4e4e;}.cls-10{fill:#e6e6e5;}.cls-11{fill:#333;}.cls-12{fill:#efc7b1;}.cls-13{fill:#2e368f;}.cls-14{fill:#272361;}.cls-15,.cls-16{fill:#dfb28b;}.cls-16{stroke:#dfb28b;stroke-linecap:round;stroke-width:0.5px;}.cls-16,.cls-18{stroke-miterlimit:10;}.cls-17{fill:#010101;}.cls-18{fill:#c75839;stroke:#c75839;stroke-width:0.52px;}.cls-19{fill:#838bc5;}.cls-20{fill:#e0af56;}.cls-21{fill:#fff;opacity:0;}</style></defs><title>figure-bear-hug</title><rect class="cls-1" x="36.46" y="123.84" width="7.08" height="18.75"/><path class="cls-2" d="M34.67,140.1H45.32a.57.57,0,0,1,.57.57v33.92a0,0,0,0,1,0,0H34.11a0,0,0,0,1,0,0V140.67A.57.57,0,0,1,34.67,140.1Z"/><path class="cls-1" d="M27.91,122.65H52.09a0,0,0,0,1,0,0V124a1,1,0,0,1-1,1H28.91a1,1,0,0,1-1-1v-1.37A0,0,0,0,1,27.91,122.65Z"/><rect class="cls-2" x="18.57" y="112.21" width="42.86" height="11.63" rx="0.63" ry="0.63"/><circle class="cls-3" cx="17.52" cy="181.26" r="4.29"/><circle class="cls-3" cx="63.12" cy="181.26" r="4.29"/><circle class="cls-3" cx="54.55" cy="189.83" r="4.29"/><circle class="cls-1" cx="54.55" cy="189.83" r="2.27"/><path class="cls-2" d="M224.64,218.68l-24.81.83L175,218.68a2.37,2.37,0,0,1-2.6-2v-2.26a2.37,2.37,0,0,1,2.6-2l24.82-1.11,24.81,1.11a2.37,2.37,0,0,1,2.6,2v2.26A2.37,2.37,0,0,1,224.64,218.68Z" transform="translate(-159.83 -41.76)"/><circle class="cls-3" cx="25.3" cy="189.83" r="4.29"/><rect class="cls-1" x="24.61" y="184.33" width="1.38" height="5.7"/><rect class="cls-1" x="53.86" y="184.33" width="1.38" height="5.7"/><circle class="cls-1" cx="25.3" cy="189.83" r="2.27"/><path class="cls-2" d="M198.13,212.78l-17.29,11.68c-1.06.6-1.63,1.56-1.29,2.16l.67,1.2c.34.6,1.47.61,2.52,0l17.87-10.65.34-.2-2.47-4.38Z" transform="translate(-159.83 -41.76)"/><path class="cls-2" d="M201.52,212.78l17.3,11.68c1.05.6,1.63,1.56,1.29,2.16l-.68,1.2c-.34.6-1.46.61-2.52,0L199,217.18l-.34-.2,2.47-4.38Z" transform="translate(-159.83 -41.76)"/><circle class="cls-1" cx="17.52" cy="181.26" r="2.27"/><circle class="cls-1" cx="63.12" cy="181.26" r="2.27"/><rect class="cls-1" x="16.83" y="176.97" width="1.38" height="4.48"/><rect class="cls-1" x="62.43" y="176.97" width="1.38" height="4.48"/><path class="cls-4" d="M223.81,83.16c-.11-1.93-.22-3.93-.22-5.87V68.77c0-11.42-9.79-20.72-21.83-20.72h-2.53c-12,0-21.83,9.3-21.83,20.72v8.52c0,1.94-.11,3.94-.21,5.88-.44,8-.86,15.58,6.72,16.7a.51.51,0,0,0,.48-.17.54.54,0,0,0,.13-.5,7.06,7.06,0,0,1-.15-2.64s0-.08.11-.08h0a.09.09,0,0,1,.1.07c.23,1,.83,3.47,2.77,3.47h27.73a3.75,3.75,0,0,0,3.29-1.33,7.64,7.64,0,0,0,1.16-3,6.35,6.35,0,0,1,.27-1,11.25,11.25,0,0,1-.19,3.36.55.55,0,0,0,.84.56C224.51,95.94,224.17,89.73,223.81,83.16Z" transform="translate(-159.83 -41.76)"/><rect class="cls-5" x="22.53" y="44.41" width="35.21" height="13.13" rx="6.03" ry="6.03"/><rect class="cls-6" x="23.41" y="44.49" width="33.52" height="8.33" rx="4.17" ry="4.17"/><path class="cls-7" d="M187.25,191.11h0a7,7,0,0,1-6.13-7.78l3.8-37c.58-3.73,6.08-6.1,10-5.56h0c3.94.54,9.42,4.42,8.85,8.15l-7.43,36.48C195.8,189.16,191.19,191.65,187.25,191.11Z" transform="translate(-159.83 -41.76)"/><path class="cls-7" d="M191,228.2h0c-4,.2-5.58-2.81-5.8-6.57l-4-37a7,7,0,0,1,6.83-7.24h0c4-.2,8.33,2.66,8.55,6.43l-.59,37.2C196.17,224.83,194.93,228,191,228.2Z" transform="translate(-159.83 -41.76)"/><path class="cls-8" d="M196.14,209.56,196,221.13c.22,3.77-1,6.93-5,7.13h0c-4,.21-5.58-2.8-5.8-6.57l-1.24-11.49Z" transform="translate(-159.83 -41.76)"/><path class="cls-9" d="M195.87,221.59c-6.24,1.86-9.12,2.31-10.85,2.2,0,0-5.22,5.15-5.23,5.17a10.68,10.68,0,0,0-2.7,3.85,4.87,4.87,0,0,0,2.89,6.06c2.51,1.12,4.82.12,7-1.12l8.06-4.51C198.3,231,199.16,228.77,195.87,221.59Z" transform="translate(-159.83 -41.76)"/><path class="cls-10" d="M178.36,229.64a5.35,5.35,0,0,1,5.66,1.42.77.77,0,0,1-1.13,1.06,3.87,3.87,0,0,0-4.19-1c-.94.33-1.28-1.19-.34-1.52Z" transform="translate(-159.83 -41.76)"/><path class="cls-10" d="M180,227.41a5.36,5.36,0,0,1,5.54,1.84c.64.77-.58,1.75-1.21,1a3.86,3.86,0,0,0-4.1-1.27c-1,.26-1.19-1.28-.23-1.54Z" transform="translate(-159.83 -41.76)"/><path class="cls-10" d="M181.78,225.32a5.37,5.37,0,0,1,5.45,2.1.78.78,0,0,1-1.26.92,3.86,3.86,0,0,0-4-1.47c-1,.21-1.13-1.34-.16-1.55Z" transform="translate(-159.83 -41.76)"/><path class="cls-7" d="M214.05,191.11h0a7,7,0,0,0,6.13-7.78l-3.8-37c-.57-3.73-6.08-6.1-10-5.56h0c-3.94.54-9.42,4.42-8.85,8.15l7.43,36.48C205.51,189.16,210.11,191.65,214.05,191.11Z" transform="translate(-159.83 -41.76)"/><path class="cls-7" d="M210.35,228.2h0c4,.2,5.58-2.81,5.8-6.57l4-37a7.05,7.05,0,0,0-6.84-7.24h0c-4-.2-8.33,2.66-8.55,6.43l.59,37.2C205.13,224.83,206.37,228,210.35,228.2Z" transform="translate(-159.83 -41.76)"/><path class="cls-8" d="M205.16,209.56l.18,11.57c-.22,3.77,1,6.93,5,7.13h0c4,.21,5.58-2.8,5.8-6.57l1.25-11.49Z" transform="translate(-159.83 -41.76)"/><path class="cls-9" d="M205.43,221.59c6.24,1.86,9.12,2.31,10.85,2.2,0,0,5.22,5.15,5.23,5.17a10.68,10.68,0,0,1,2.7,3.85,4.86,4.86,0,0,1-2.89,6.06c-2.51,1.12-4.82.12-7-1.12l-8-4.51C203,231,202.15,228.77,205.43,221.59Z" transform="translate(-159.83 -41.76)"/><path class="cls-10" d="M223,229.64a5.37,5.37,0,0,0-5.67,1.42.77.77,0,0,0,1.13,1.06,3.87,3.87,0,0,1,4.19-1c.94.33,1.28-1.19.35-1.52Z" transform="translate(-159.83 -41.76)"/><path class="cls-10" d="M221.31,227.41a5.37,5.37,0,0,0-5.55,1.84.78.78,0,0,0,1.21,1,3.86,3.86,0,0,1,4.1-1.27c1,.26,1.19-1.28.24-1.54Z" transform="translate(-159.83 -41.76)"/><path class="cls-10" d="M219.52,225.32a5.38,5.38,0,0,0-5.45,2.1.78.78,0,0,0,1.26.92,3.87,3.87,0,0,1,4-1.47c1,.21,1.12-1.34.15-1.55Z" transform="translate(-159.83 -41.76)"/><polygon class="cls-11" points="22.66 107.7 20.64 137.41 40.25 137.41 40.8 121.77 41.03 137.41 60.97 137.41 58.95 107.7 22.66 107.7"/><path id="_Path_" data-name="&lt;Path&gt;" class="cls-5" d="M213.88,97.09l-13.64-2.61h.29l-13.65,2.61a3.45,3.45,0,0,0-3.17,4.55c.62,1.67.45,5.36,1,10.61a49.69,49.69,0,0,1-.65,14.09l-1.75,13.91a75,75,0,0,0-1,10.73.87.87,0,0,0,.9.81h36.5a.87.87,0,0,0,.9-.81,75,75,0,0,0-1-10.73l-1.75-13.91a49.69,49.69,0,0,1-.65-14.09c.51-5.25.34-8.94,1-10.61A3.45,3.45,0,0,0,213.88,97.09Z" transform="translate(-159.83 -41.76)"/><path class="cls-12" d="M174.33,145.23h0c1.75-1.62,3.66-.7,5.29,1.07l11.84,11.14a4.36,4.36,0,0,1-.23,6.15h0c-1.75,1.61-4.81,1.78-6.44,0l-9.83-13C173.33,148.82,172.58,146.84,174.33,145.23Z" transform="translate(-159.83 -41.76)"/><rect class="cls-13" x="178.56" y="155.31" width="10.84" height="1.42" rx="0.31" ry="0.31" transform="translate(-216.14 135.47) rotate(-45.34)"/><path class="cls-14" d="M187.7,152.9l2.14,1.82,4.45,3.79,2.4,2.66a1,1,0,0,0,.61.28c.31,1.47-1.1,4.24-2.51,5.66-1.66,1.68-4.67,2.88-5.79,1.76l-6.21-7-1.86-2.11-.08-.09,6.75-6.83Z" transform="translate(-159.83 -41.76)"/><path class="cls-15" d="M200.49,100.08h-.22c-3.32,0-5.09-.85-5.09-4.17l-.92-11.29H206.5l-.92,11.29C205.58,99.23,203.81,100.08,200.49,100.08Z" transform="translate(-159.83 -41.76)"/><path class="cls-7" d="M219.29,72.49h-.08c0-.6.06-1.2.06-1.81,0-12.36-8.45-20.24-19-20.24s-19.1,7.88-19.1,20.24c0,.61,0,1.22.06,1.81-3.75.18-3.69,6,.17,6a3,3,0,0,0,.93-.15c1.93,6.19,6.11,11.1,11.39,13.35a19.08,19.08,0,0,0,6.41,1.3,20,20,0,0,0,6.55-1.3c5.29-2.26,9.48-7.2,11.4-13.42a3.29,3.29,0,0,0,1.17.22C223.22,78.52,223.21,72.49,219.29,72.49Z" transform="translate(-159.83 -41.76)"/><path class="cls-16" d="M219.22,76.67a1.07,1.07,0,0,0,1.21-.89,1,1,0,0,0-.89-1.19" transform="translate(-159.83 -41.76)"/><path class="cls-16" d="M181.62,76.57a1.05,1.05,0,1,1-.32-2.08" transform="translate(-159.83 -41.76)"/><path class="cls-12" d="M224,121.75l.38.48a2.88,2.88,0,0,1-.41,3.93l-11.7,10.59a3,3,0,0,1-4.07-.66l-.38-.48a3.3,3.3,0,0,1,.15-4.27l12.24-9.91A2.64,2.64,0,0,1,224,121.75Z" transform="translate(-159.83 -41.76)"/><path class="cls-4" d="M222.53,66.32a.55.55,0,0,0-.41-.37s-.32-.07-.78-.14C220.3,55.24,210.85,47,199.63,47h-2.54c-12,0-21.83,9.29-21.83,20.72a.55.55,0,0,0,.55.55h8.59a.56.56,0,0,0,.4-.17.51.51,0,0,0,.15-.39,7.06,7.06,0,0,1,.93-3,.12.12,0,0,1,.23.06,4.15,4.15,0,0,0,.53,2.9,1.67,1.67,0,0,0,1.3.63h25.43a5.51,5.51,0,0,1,4.13,1.86A4.9,4.9,0,0,1,218.72,74a3.38,3.38,0,0,1-.2.79.65.65,0,0,0,.16.79.62.62,0,0,0,.42.15,1.72,1.72,0,0,0,.87-.35A8,8,0,0,0,222.53,66.32Z" transform="translate(-159.83 -41.76)"/><path class="cls-5" d="M180.21,158.37h0a5.7,5.7,0,0,1-6.46-4.67L170,127.15a5.52,5.52,0,0,1,4.9-6.15h0a5.7,5.7,0,0,1,6.45,4.67l3.8,26.55A5.52,5.52,0,0,1,180.21,158.37Z" transform="translate(-159.83 -41.76)"/><path class="cls-10" d="M192.27,121.72a.92.92,0,0,1-.92-.92V98a.92.92,0,0,1,1.84,0v22.8A.92.92,0,0,1,192.27,121.72Z" transform="translate(-159.83 -41.76)"/><path class="cls-12" d="M226.7,145.23h0c-1.75-1.62-3.67-.7-5.3,1.07l-11.83,11.14a4.37,4.37,0,0,0,.22,6.15h0c1.76,1.61,4.81,1.78,6.44,0l9.84-13C227.7,148.82,228.45,146.84,226.7,145.23Z" transform="translate(-159.83 -41.76)"/><path class="cls-5" d="M227.14,131.39h0a5.39,5.39,0,0,0,3.2-7.1L220,99.4a5.84,5.84,0,0,0-7.44-3.05h0a5.38,5.38,0,0,0-3.2,7.09l10.39,24.9A5.84,5.84,0,0,0,227.14,131.39Z" transform="translate(-159.83 -41.76)"/><path class="cls-5" d="M220.38,158.17h0a5.7,5.7,0,0,0,6.46-4.67l3.8-26.55a5.52,5.52,0,0,0-4.9-6.15h0a5.7,5.7,0,0,0-6.45,4.67L215.48,152A5.53,5.53,0,0,0,220.38,158.17Z" transform="translate(-159.83 -41.76)"/><path class="cls-10" d="M208.26,121.6a.91.91,0,0,1-.91-.91V97.89a.92.92,0,1,1,1.83,0v22.8A.92.92,0,0,1,208.26,121.6Z" transform="translate(-159.83 -41.76)"/><path class="cls-15" d="M200.35,77.63h0c.79,0,1.58.09,1.59.44l-.15.91c0,.35-.64.63-1.43.63h0c-.79,0-1.44-.28-1.44-.62l-.16-.91C198.76,77.73,199.56,77.63,200.35,77.63Z" transform="translate(-159.83 -41.76)"/><circle class="cls-17" cx="32.85" cy="32.12" r="1.82"/><circle class="cls-17" cx="48.17" cy="32.12" r="1.82"/><path class="cls-4" d="M193.51,68.05a4.9,4.9,0,0,0-3.88,1,.6.6,0,0,0-.26.41.64.64,0,0,0,.64.75.71.71,0,0,0,.38-.12,4,4,0,0,1,3-.71.66.66,0,0,0,.7-.56.61.61,0,0,0-.14-.5A.63.63,0,0,0,193.51,68.05Z" transform="translate(-159.83 -41.76)"/><path class="cls-4" d="M211.05,69a4.9,4.9,0,0,0-3.88-1,.66.66,0,0,0-.43.23.65.65,0,0,0,.56,1.06,4,4,0,0,1,3,.71.7.7,0,0,0,.37.12.63.63,0,0,0,.51-.25.64.64,0,0,0,.14-.5A.6.6,0,0,0,211.05,69Z" transform="translate(-159.83 -41.76)"/><path class="cls-18" d="M201,85.7a6.15,6.15,0,0,1-3.82-.77.52.52,0,0,1-.18-.71.51.51,0,0,1,.7-.18,5.17,5.17,0,0,0,5.07,0,.52.52,0,0,1,.7.19.51.51,0,0,1-.2.7A5.93,5.93,0,0,1,201,85.7Z" transform="translate(-159.83 -41.76)"/><rect class="cls-13" x="211.63" y="155.31" width="10.84" height="1.42" rx="0.31" ry="0.31" transform="translate(98.79 378.31) rotate(-134.66)"/><path class="cls-14" d="M213.33,152.9l-2.14,1.82-4.45,3.79-2.41,2.66a.89.89,0,0,1-.6.28c-.32,1.47,1.09,4.24,2.51,5.66,1.66,1.68,4.67,2.88,5.79,1.76l6.21-7,1.86-2.11.08-.09-6.76-6.83Z" transform="translate(-159.83 -41.76)"/><path class="cls-19" d="M209.42,135.58,200.8,134h-.92l-8.62,1.6c-3.79.64-3.12,1.72-2.71,2.79a15.32,15.32,0,0,1,1,4.63l-.22,4.84c-.13,2.91.24,1.71.24,4.18,0,1.78-2.07,11-1.84,11h25c.23,0-1.71-9.23-1.71-11,0-2.47.37-1.27.25-4.18L211.1,143a15.59,15.59,0,0,1,1-4.63C212.54,137.3,213.21,136.22,209.42,135.58Z" transform="translate(-159.83 -41.76)"/><path class="cls-20" d="M193.05,111.66a.34.34,0,0,1-.23-.6,2.77,2.77,0,0,1,2.53-.63.36.36,0,0,1,.25.43.37.37,0,0,1-.43.25,2,2,0,0,0-1.88.46A.36.36,0,0,1,193.05,111.66Z" transform="translate(-159.83 -41.76)"/><path class="cls-20" d="M208.64,111.71a.36.36,0,0,0,.26-.11.36.36,0,0,0,0-.5,2.78,2.78,0,0,0-2.53-.62.34.34,0,0,0-.25.42.35.35,0,0,0,.42.25,2.07,2.07,0,0,1,1.89.47A.33.33,0,0,0,208.64,111.71Z" transform="translate(-159.83 -41.76)"/><path class="cls-14" d="M195.58,173.34h9.6c3.35,0,7-3.32,7.4-7.27l.31-5h-25l.33,5C188.2,170.14,192.23,173.34,195.58,173.34Z" transform="translate(-159.83 -41.76)"/><path class="cls-12" d="M180.72,120l-.46.4a2.87,2.87,0,0,0-.28,3.94l9.64,12.49a3,3,0,0,0,4.12.06l.46-.4a3.3,3.3,0,0,0,.61-4.23l-10.3-11.91A2.63,2.63,0,0,0,180.72,120Z" transform="translate(-159.83 -41.76)"/><path class="cls-19" d="M188.49,124.55,195,132a3.51,3.51,0,0,1-.58,4.54l-.77.72a2.81,2.81,0,0,1-4.07-.22l-5.92-7.65A17.85,17.85,0,0,1,188.49,124.55Z" transform="translate(-159.83 -41.76)"/><path class="cls-19" d="M216.34,139.85l-3.63-7.48a3.51,3.51,0,0,0-4.4-1.25l-1,.43a2.82,2.82,0,0,0-1.4,3.83l4,7.15A18.59,18.59,0,0,0,216.34,139.85Z" transform="translate(-159.83 -41.76)"/><path class="cls-15" d="M179.4,153.34h0a2.82,2.82,0,0,0-2.06,3.45l1.28,4.09a3,3,0,0,0,3.71,1.8h0a2.82,2.82,0,0,0,2.06-3.45l-1.28-4.09A3,3,0,0,0,179.4,153.34Z" transform="translate(-159.83 -41.76)"/><path class="cls-7" d="M179.51,156.35h0a6,6,0,0,1,8,1.21l1.75,2.32a5.08,5.08,0,0,1-1.53,7.37h0a6,6,0,0,1-8-1.21L178,163.72A5.09,5.09,0,0,1,179.51,156.35Z" transform="translate(-159.83 -41.76)"/><path class="cls-5" d="M173.45,131.59h0a5.41,5.41,0,0,1-3.21-7.1l10.4-24.89a5.85,5.85,0,0,1,7.44-3.06h0a5.4,5.4,0,0,1,3.2,7.1l-10.39,24.9A5.84,5.84,0,0,1,173.45,131.59Z" transform="translate(-159.83 -41.76)"/><path class="cls-15" d="M219.9,153.31h0a2.8,2.8,0,0,1,2.19,3.37L221,160.81a3,3,0,0,1-3.63,1.94h0a2.81,2.81,0,0,1-2.2-3.37l1.12-4.13A3,3,0,0,1,219.9,153.31Z" transform="translate(-159.83 -41.76)"/><path class="cls-7" d="M219.91,156.32h0a6,6,0,0,0-7.94,1.52l-1.65,2.39a5.09,5.09,0,0,0,1.82,7.3h0a6,6,0,0,0,7.93-1.52l1.66-2.39A5.09,5.09,0,0,0,219.91,156.32Z" transform="translate(-159.83 -41.76)"/><path class="cls-20" d="M216.75,130.81V114.22c0-9.42-6.75-17.13-15-17.13H200c-8.25,0-15,7.71-15,17.13v16.59c0,8.41-2,17.6,4.25,18.72a7.85,7.85,0,0,1-.1-2.47.45.45,0,0,1,.9,0c.2,1.05.61,2.65,1.66,2.58h19.46a2.1,2.1,0,0,0,2-.94c1-1.67.57-3.91,1.58-3.74,0,0,.37.9,0,3.6C218.19,145.77,216.75,138,216.75,130.81Z" transform="translate(-159.83 -41.76)"/><rect class="cls-21" width="80.93" height="214.56"/></svg>