<svg id="Layer_1" data-name="Layer 1" xmlns="http://www.w3.org/2000/svg" viewBox="0 0 13.61 39.78"><defs><style>.cls-1{fill:#333;}.cls-2{fill:#1867a5;}.cls-3{fill:#010101;}.cls-4{fill:#e6e6e5;}.cls-5{fill:#975f2a;}.cls-6{fill:#412312;opacity:0.7;}.cls-7{fill:#c3996b;}.cls-8{fill:#a56d35;}.cls-12,.cls-9{fill:#8c562a;}.cls-9{stroke:#8c562a;stroke-linecap:round;stroke-miterlimit:10;stroke-width:0.5px;}.cls-10{fill:#736458;}.cls-11{fill:#231f20;}.cls-13{fill:#84cba8;}.cls-14{fill:#64ad87;}.cls-15{fill:#6d2812;}.cls-16{fill:#f3f3f3;opacity:0.2;}</style></defs><title>figure-kangaroo-care</title><path class="cls-1" d="M29.87,43.76h0a1.54,1.54,0,0,1-1.58-1.49l-.16-8.07a1.69,1.69,0,0,1,1.74-1.49h0a1.73,1.73,0,0,1,1.77,1.49l-.2,8.07A1.54,1.54,0,0,1,29.87,43.76Z" transform="translate(-26.48 -13.4)"/><path class="cls-1" d="M33.6,43.76h0A1.54,1.54,0,0,1,32,42.27l-.2-8.07a1.73,1.73,0,0,1,1.78-1.49h0a1.73,1.73,0,0,1,1.78,1.49l-.2,8.07A1.54,1.54,0,0,1,33.6,43.76Z" transform="translate(-26.48 -13.4)"/><path class="cls-1" d="M29.87,52h0a1.42,1.42,0,0,1-1.38-1.58l-.2-7.9a1.57,1.57,0,0,1,1.58-1.57h0a1.57,1.57,0,0,1,1.57,1.57l-.2,7.9A1.42,1.42,0,0,1,29.87,52Z" transform="translate(-26.48 -13.4)"/><path class="cls-1" d="M33.6,51.85h0a1.42,1.42,0,0,1-1.38-1.57l-.2-7.9A1.58,1.58,0,0,1,33.6,40.8h0a1.58,1.58,0,0,1,1.58,1.58l-.2,7.9A1.42,1.42,0,0,1,33.6,51.85Z" transform="translate(-26.48 -13.4)"/><path class="cls-1" d="M30,36.32h3.53c1.42,0,1.77.21,1.86-1.35H28.13C28.16,36.53,28.27,36.32,30,36.32Z" transform="translate(-26.48 -13.4)"/><path class="cls-2" d="M35.43,26.1a3.21,3.21,0,0,1,.35-1.24c.14-.38.08-1.39-.49-1.39l-3.17-.6h-.74l-3.17.6c-.57,0-.63,1-.49,1.39a3.21,3.21,0,0,1,.35,1.24l.05,8.44c0,.16,0,.3,0,.43h7.24c0-.14,0-.3,0-.48Z" transform="translate(-26.48 -13.4)"/><path class="cls-2" d="M30,31.77h0a1.26,1.26,0,0,1-1.54-.87l-1.83-5.83a1.42,1.42,0,0,1,1.06-1.59h0a1.42,1.42,0,0,1,1.72.81l1.46,5.94A1.26,1.26,0,0,1,30,31.77Z" transform="translate(-26.48 -13.4)"/><path class="cls-2" d="M39.7,29.81h0a1.25,1.25,0,0,0,0-1.76l-4.25-4.4a1.42,1.42,0,0,0-1.9.17h0a1.43,1.43,0,0,0-.12,1.9l4.53,4.11A1.25,1.25,0,0,0,39.7,29.81Z" transform="translate(-26.48 -13.4)"/><path class="cls-3" d="M32.27,50.37a11.37,11.37,0,0,0,2.66,0l1.2.71a2.41,2.41,0,0,1,.76.61A.88.88,0,0,1,36.57,53a1.86,1.86,0,0,1-1.55.09l-1.92-.5C32.3,52.26,31.92,51.87,32.27,50.37Z" transform="translate(-26.48 -13.4)"/><rect class="cls-1" x="5.55" y="36.12" width="3.23" height="0.9" rx="0.45" ry="0.45"/><path class="cls-3" d="M31.26,50.38a12,12,0,0,1-2.66,0l-1.2.71a2.18,2.18,0,0,0-.76.61A.87.87,0,0,0,27,53a1.8,1.8,0,0,0,1.54.09l1.93-.5C31.22,52.26,31.6,51.87,31.26,50.38Z" transform="translate(-26.48 -13.4)"/><rect class="cls-1" x="28.23" y="49.52" width="3.23" height="0.9" rx="0.45" ry="0.45" transform="translate(33.21 86.55) rotate(-180)"/><polygon class="cls-4" points="1.74 21.58 4.5 22.45 5.26 21.99 6.04 22.46 8.76 21.58 1.74 21.58"/><path class="cls-5" d="M31.77,25h-.05a1.31,1.31,0,0,1-1.3-1.31l-.2-2.49h3.06l-.2,2.49A1.31,1.31,0,0,1,31.77,25Z" transform="translate(-26.48 -13.4)"/><path class="cls-6" d="M36.26,23.3a.53.53,0,0,1-.15-.33.56.56,0,0,1,.1-.36.52.52,0,0,1,.7-.13.41.41,0,0,1,.17.35.36.36,0,0,1-.22.32.32.32,0,0,1-.37-.08.25.25,0,0,1,0-.36h0s0,0,0,0a.19.19,0,0,0,0,.27.24.24,0,0,0,.27,0,.28.28,0,0,0,.15-.23.3.3,0,0,0-.13-.25.4.4,0,0,0-.55.09.51.51,0,0,0,0,.61s0,0,0,0Z" transform="translate(-26.48 -13.4)"/><path class="cls-7" d="M38,26.79c0-.08,0-.16.07-.24a2.68,2.68,0,0,0-2-3.38A2.65,2.65,0,0,0,32.64,25a1.55,1.55,0,0,0-.06.23h0c-.3,0-.35.7,0,.79a3,3,0,0,0,.74,1.82,2.62,2.62,0,0,0,1.27.82,2.76,2.76,0,0,0,2.09-.27,3,3,0,0,0,1-.91C37.91,27.65,38.22,26.89,38,26.79Z" transform="translate(-26.48 -13.4)"/><path class="cls-8" d="M35.71,18.26h0c0-.12,0-.24,0-.37a4.14,4.14,0,1,0-8.21,1.05l.06.36a.62.62,0,0,0,.19,1.23.59.59,0,0,0,.2-.06,4.42,4.42,0,0,0,2.81,2.42,4.48,4.48,0,0,0,1.41.09,4.56,4.56,0,0,0,1.38-.45,4.41,4.41,0,0,0,2.12-3.05,1,1,0,0,0,.25,0A.62.62,0,1,0,35.71,18.26Z" transform="translate(-26.48 -13.4)"/><path class="cls-9" d="M35.86,19.11a.24.24,0,0,0,.24-.22.22.22,0,0,0-.22-.22" transform="translate(-26.48 -13.4)"/><path class="cls-9" d="M27.68,20.13A.23.23,0,0,1,27.4,20a.21.21,0,0,1,.16-.27" transform="translate(-26.48 -13.4)"/><path class="cls-10" d="M35.68,16.11a4.11,4.11,0,0,0-1.07-1.72,4.46,4.46,0,0,0-3.15-1,5.16,5.16,0,0,0-3.07,1.08,3.91,3.91,0,0,0-1.23,1.73,4.64,4.64,0,0,0-.07,2.37,5.41,5.41,0,0,0,.12.55c0,.17.12.38.3.41a.33.33,0,0,0,.32-.22,1,1,0,0,0,.06-.42A10.25,10.25,0,0,1,28,17.15a1.19,1.19,0,0,1,.34-.71c.22-.26.55-.18.89-.22a10.93,10.93,0,0,1,2,.19,8.48,8.48,0,0,0,1.67-.12c.44-.06,1.11-.43,1.49-.14a1.43,1.43,0,0,1,.53.71c.16.42.25.86.38,1.29a.46.46,0,0,0,.2.33.33.33,0,0,0,.4-.17.84.84,0,0,0,.07-.47A6.4,6.4,0,0,0,35.68,16.11Z" transform="translate(-26.48 -13.4)"/><circle class="cls-11" cx="6.84" cy="5.37" r="0.4"/><circle class="cls-11" cx="3.55" cy="5.79" r="0.4"/><path class="cls-12" d="M31.81,20.2h0c-.22,0-.46.05-.46,0V20c0-.06.18-.12.41-.15h0c.22,0,.42,0,.42,0l.08.22C32.27,20.13,32,20.17,31.81,20.2Z" transform="translate(-26.48 -13.4)"/><path class="cls-13" d="M35.2,30.14h0a.74.74,0,0,0,1.11.26l.92-.58a1,1,0,0,0,.43-1.23h0a.75.75,0,0,0-1.11-.26l-.92.58A1,1,0,0,0,35.2,30.14Z" transform="translate(-26.48 -13.4)"/><path class="cls-13" d="M31.75,34.59h0a1.07,1.07,0,0,1-.7-1.13l.24-1.73a.69.69,0,0,1,.94-.59h0a1.07,1.07,0,0,1,.7,1.13L32.7,34A.71.71,0,0,1,31.75,34.59Z" transform="translate(-26.48 -13.4)"/><path class="cls-13" d="M32.12,36.65h0a1,1,0,0,1-.91-.95l-.16-1.81A.72.72,0,0,1,31.8,33h0a1,1,0,0,1,.9,1l.16,1.81A.72.72,0,0,1,32.12,36.65Z" transform="translate(-26.48 -13.4)"/><path class="cls-13" d="M35.24,35.73h0a.71.71,0,0,0,.91-.64l.17-1.75a1.07,1.07,0,0,0-.74-1.1h0a.71.71,0,0,0-.92.64l-.17,1.75A1.08,1.08,0,0,0,35.24,35.73Z" transform="translate(-26.48 -13.4)"/><path class="cls-13" d="M34.43,37.44h0a.73.73,0,0,0,1.07-.37l.56-1.59a1.07,1.07,0,0,0-.51-1.22h0a.72.72,0,0,0-1.06.36l-.56,1.6A1.05,1.05,0,0,0,34.43,37.44Z" transform="translate(-26.48 -13.4)"/><path class="cls-13" d="M33.56,34.2h0c-1.24-.38-2.44-1.19-2.28-2.48l.48-2.26c.08-.62.31-1.68.85-1.59.85.14,1.08-.29,1.73-.09h0a9,9,0,0,1,1.57.7c.55.27.56,1.75.49,2.4l-.08,2.57C36.17,34.75,34.8,34.57,33.56,34.2Z" transform="translate(-26.48 -13.4)"/><path class="cls-14" d="M33.56,34.23h0c-1.24-.37-2.44-1.18-2.28-2.48l5,1.73C36.17,34.78,34.8,34.6,33.56,34.23Z" transform="translate(-26.48 -13.4)"/><path class="cls-15" d="M31.92,21.5a.9.9,0,0,1-.6-.1.13.13,0,0,1-.05-.17.14.14,0,0,1,.18-.05,1,1,0,0,0,1-.21.13.13,0,0,1,.18,0,.14.14,0,0,1,0,.18A1.2,1.2,0,0,1,31.92,21.5Z" transform="translate(-26.48 -13.4)"/><path class="cls-10" d="M29.39,18.22a.17.17,0,0,1-.16-.06.17.17,0,0,1,0-.24,1.24,1.24,0,0,1,.83-.25.16.16,0,0,1,.16.18.17.17,0,0,1-.18.16.9.9,0,0,0-.61.18A.13.13,0,0,1,29.39,18.22Z" transform="translate(-26.48 -13.4)"/><rect class="cls-2" x="29.85" y="26.68" width="2.49" height="8.61" rx="1.25" ry="1.25" transform="translate(-39.16 14.25) rotate(-40.53)"/><rect class="cls-5" x="33.06" y="32.73" width="1.31" height="2.32" rx="0.65" ry="0.65" transform="translate(-40.42 16.64) rotate(-40.53)"/><rect class="cls-8" x="33.38" y="32.88" width="2.51" height="3.19" rx="1.25" ry="1.25" transform="translate(55.6 9.37) rotate(121.27)"/><path class="cls-10" d="M33.66,17.68a.15.15,0,0,0,.13-.1.16.16,0,0,0-.09-.22,1.24,1.24,0,0,0-.87,0,.18.18,0,0,0-.11.22.17.17,0,0,0,.21.1.94.94,0,0,1,.64,0Z" transform="translate(-26.48 -13.4)"/><rect class="cls-16" x="32.39" y="18.68" width="2.28" height="1.37" rx="0.69" ry="0.69" transform="translate(-28.66 -9.01) rotate(-7.25)"/><rect class="cls-16" x="28.85" y="19.13" width="2.28" height="1.37" rx="0.69" ry="0.69" transform="translate(-28.74 -9.45) rotate(-7.25)"/><path class="cls-1" d="M31.12,19.73a.12.12,0,0,1-.13-.07.12.12,0,0,1,.06-.17,2.32,2.32,0,0,1,1.35-.17.12.12,0,0,1,.1.15.13.13,0,0,1-.16.1,2,2,0,0,0-1.18.15Z" transform="translate(-26.48 -13.4)"/><path class="cls-13" d="M33.72,28.85h0a.75.75,0,0,1-.89.72l-1.08-.12a1,1,0,0,1-.93-.91h0a.75.75,0,0,1,.89-.72l1.07.12A1,1,0,0,1,33.72,28.85Z" transform="translate(-26.48 -13.4)"/><path class="cls-13" d="M32.22,29.17h0a.94.94,0,0,1-1.26.06l-.89-.66a.81.81,0,0,1-.25-1.16h0a1,1,0,0,1,1.26-.06L32,28A.81.81,0,0,1,32.22,29.17Z" transform="translate(-26.48 -13.4)"/><path class="cls-7" d="M30.59,28h0a.87.87,0,0,1-1.16,0l-.31-.25A.72.72,0,0,1,29,26.65h0a.88.88,0,0,1,1.16,0l.31.25A.72.72,0,0,1,30.59,28Z" transform="translate(-26.48 -13.4)"/><rect class="cls-2" x="35.02" y="26.25" width="2.49" height="8.61" rx="1.25" ry="1.25" transform="matrix(-0.54, -0.84, 0.84, -0.54, 3.54, 64.16)"/><rect class="cls-5" x="32.27" y="31.41" width="1.31" height="2.32" rx="0.65" ry="0.65" transform="translate(-3.3 64.45) rotate(-122.54)"/><rect class="cls-8" x="30.62" y="31.26" width="2.51" height="3.19" rx="1.25" ry="1.25" transform="translate(29.33 -19.56) rotate(75.66)"/></svg>