<svg id="Layer_1" data-name="Layer 1" xmlns="http://www.w3.org/2000/svg" xmlns:xlink="http://www.w3.org/1999/xlink" viewBox="0 0 80.93 214.56"><defs><style>.cls-1{fill:#5b4b43;}.cls-2{fill:#727272;}.cls-3{fill:#333232;}.cls-4{fill:#131313;}.cls-5{fill:#e4b9a3;}.cls-6{fill:#b4b4b4;}.cls-10,.cls-7,.cls-8{fill:#4f869e;}.cls-7,.cls-8{stroke:#4f869e;stroke-miterlimit:10;}.cls-14,.cls-7,.cls-8{stroke-linecap:round;}.cls-7{stroke-width:1.94px;}.cls-8{stroke-width:2.01px;}.cls-9{fill:#754d25;}.cls-11{fill:#efc7b1;}.cls-12{clip-path:url(#clip-path);}.cls-13{fill:#ddb19e;}.cls-14,.cls-17{fill:#cfa38c;}.cls-14{stroke:#cfa38c;stroke-linejoin:round;stroke-width:0.63px;}.cls-15{fill:#964f22;}.cls-16{fill:#412312;}.cls-18{fill:#cb6b4f;}.cls-19{fill:#2e368f;}.cls-20{fill:#272361;}.cls-21{fill:#e0af56;}.cls-22{fill:#838bc5;}.cls-23{fill:#e1b7a1;}.cls-24{fill:none;}.cls-25{clip-path:url(#clip-path-2);}.cls-26{fill:#fff;opacity:0;}</style><clipPath id="clip-path" transform="translate(-159.88 -41.76)"><path id="_Clipping_Path_" data-name="&lt;Clipping Path&gt;" class="cls-1" d="M204.64,188.49c3.51,1,5.14,1.42,6.11,1.32l3.08,2.95a6.19,6.19,0,0,1,1.51,2.28,3.1,3.1,0,0,1-1.64,3.72c-1.42.72-2.72.15-4-.56l-4.54-2.59C203.39,194.28,202.77,192.89,204.64,188.49Z"/></clipPath><clipPath id="clip-path-2" transform="translate(-159.88 -41.76)"><path id="_Clipping_Path_2" data-name="&lt;Clipping Path&gt;" class="cls-1" d="M195.73,188.83c-3.52,1-5.14,1.42-6.11,1.33l-3.08,2.94a6.38,6.38,0,0,0-1.52,2.29,3.12,3.12,0,0,0,1.65,3.72c1.42.72,2.72.15,4-.56l4.53-2.6C197,194.62,197.6,193.23,195.73,188.83Z"/></clipPath></defs><title>figure-joey-position</title><rect class="cls-2" x="37.25" y="124.69" width="7.08" height="18.75"/><path class="cls-3" d="M35.47,141H46.11a.57.57,0,0,1,.57.57v33.92a0,0,0,0,1,0,0H34.9a0,0,0,0,1,0,0V141.52A.57.57,0,0,1,35.47,141Z"/><path class="cls-2" d="M28.7,123.51H52.88a0,0,0,0,1,0,0v1.37a1,1,0,0,1-1,1H29.7a1,1,0,0,1-1-1v-1.37A0,0,0,0,1,28.7,123.51Z"/><rect class="cls-3" x="19.36" y="113.06" width="42.86" height="11.63" rx="0.63" ry="0.63"/><circle class="cls-4" cx="18.31" cy="182.11" r="4.29"/><circle class="cls-4" cx="63.92" cy="182.11" r="4.29"/><circle class="cls-4" cx="55.34" cy="190.69" r="4.29"/><circle class="cls-2" cx="55.34" cy="190.69" r="2.27"/><path class="cls-3" d="M225.48,219.54l-24.81.82-24.81-.82a2.37,2.37,0,0,1-2.6-2v-2.25a2.37,2.37,0,0,1,2.6-2.05l24.81-1.11,24.81,1.11a2.37,2.37,0,0,1,2.6,2.05v2.25A2.37,2.37,0,0,1,225.48,219.54Z" transform="translate(-159.88 -41.76)"/><circle class="cls-4" cx="26.09" cy="190.69" r="4.29"/><rect class="cls-2" x="25.4" y="185.19" width="1.38" height="5.7"/><rect class="cls-2" x="54.65" y="185.19" width="1.38" height="5.7"/><circle class="cls-2" cx="26.09" cy="190.69" r="2.27"/><path class="cls-3" d="M199,213.64l-17.29,11.68c-1.05.59-1.63,1.56-1.29,2.16l.67,1.19c.34.6,1.47.61,2.52,0L201.46,218l.34-.21-2.48-4.38Z" transform="translate(-159.88 -41.76)"/><path class="cls-3" d="M202.36,213.64l17.3,11.68c1.05.59,1.63,1.56,1.29,2.16l-.68,1.19c-.33.6-1.46.61-2.51,0L199.88,218l-.34-.21,2.48-4.38Z" transform="translate(-159.88 -41.76)"/><circle class="cls-2" cx="18.31" cy="182.11" r="2.27"/><circle class="cls-2" cx="63.92" cy="182.11" r="2.27"/><rect class="cls-2" x="17.62" y="177.82" width="1.38" height="4.48"/><rect class="cls-2" x="63.23" y="177.82" width="1.38" height="4.48"/><path class="cls-5" d="M165.31,139.26l1.76.5a5.92,5.92,0,0,0,7.26-3.66l12.45-32.71c.93-2.88-2.61-6.44-5.68-7.31l-1.76-.5c-3.07-.87-8.13.27-9.05,3.15l-8.88,33.72A5.44,5.44,0,0,0,165.31,139.26Z" transform="translate(-159.88 -41.76)"/><path class="cls-6" d="M164.54,116.48l5.23-16.91c1.29-3.74,6.48-5.37,10.22-4.08l1.53.52c3.74,1.29,6.83,5.77,5.54,9.51l-6.37,16.18A23.31,23.31,0,0,1,164.54,116.48Z" transform="translate(-159.88 -41.76)"/><path class="cls-5" d="M235.38,139.22l-1.76.5a5.91,5.91,0,0,1-7.26-3.66l-12.45-32.7c-.93-2.88,2.61-6.45,5.68-7.32l1.76-.5c3.07-.86,8.13.28,9.05,3.16l8.88,33.71A5.44,5.44,0,0,1,235.38,139.22Z" transform="translate(-159.88 -41.76)"/><path class="cls-6" d="M236.57,116.65l-5.23-16.91c-1.28-3.73-6.48-5.36-10.22-4.08l-1.53.53c-3.73,1.28-6.83,5.77-5.54,9.5l6.37,16.19A23.32,23.32,0,0,0,236.57,116.65Z" transform="translate(-159.88 -41.76)"/><path class="cls-7" d="M178.43,195.78h0c-4.8-1-8-4.73-7.17-8.31L178.59,152c.86-3.59,6.6-5.49,11.4-4.5h0c4.81,1,11,5.33,10.11,8.91l-11.37,34.65C187.87,194.64,183.24,196.77,178.43,195.78Z" transform="translate(-159.88 -41.76)"/><path class="cls-8" d="M185,236.62l-1.11.08c-4.6.35-8.67-2.84-9.41-11.14l-3.33-37.3a12.29,12.29,0,0,1,8-4.35l1.11-.08a12.59,12.59,0,0,1,8.7,3.07l3.32,37.29C193,232.49,189.57,236.27,185,236.62Z" transform="translate(-159.88 -41.76)"/><path class="cls-7" d="M222.07,198.9h0c4.81-1,8-4.73,7.18-8.31l-7.34-35.48c-.86-3.59-6.6-5.49-11.4-4.5h0c-4.81,1-11,5.33-10.1,8.91l11.36,34.65C212.63,197.76,217.27,199.89,222.07,198.9Z" transform="translate(-159.88 -41.76)"/><path class="cls-8" d="M215.54,239.74l1.1.08c4.6.36,8.68-2.84,9.42-11.14l3.33-37.3a12.32,12.32,0,0,0-8-4.35l-1.1-.08a12.62,12.62,0,0,0-8.7,3.07l-3.33,37.29C207.48,235.61,210.93,239.39,215.54,239.74Z" transform="translate(-159.88 -41.76)"/><path class="cls-9" d="M207.37,229.68c5,3,15.12,5.26,17.57,5.35,0,0,7.56,9.44,8.1,11.44,1,3.56-.63,7.42-4,8.45-3.65,1.1-7.37-1.57-10.39-3.46l-10.23-6.65C204,241.44,202.14,238.45,207.37,229.68Z" transform="translate(-159.88 -41.76)"/><path class="cls-6" d="M227.48,102.67c.82-1.84.22-7.43-3.1-7.43L200.8,90.87h-1.09l-23.59,4.37c-3.32,0-3.91,5.59-3.09,7.43a23.53,23.53,0,0,1,2,8l.75,32.81c.23,3.23,1,6.64,4.13,6.64h40.67c3.08,0,3.89-3.41,4.12-6.64l.75-32.81A23.56,23.56,0,0,1,227.48,102.67Z" transform="translate(-159.88 -41.76)"/><path class="cls-10" d="M178.05,151.29c0,6.72,6,9.66,12,9.66h20.35c6.06,0,12-2.94,12-9.66l.11-.79H178Z" transform="translate(-159.88 -41.76)"/><path class="cls-9" d="M193.13,226.56c-5,3-15.11,5.26-17.57,5.35,0,0-7.55,9.43-8.1,11.44-1,3.56.64,7.42,4.06,8.45,3.64,1.1,7.36-1.57,10.38-3.46l10.24-6.65C196.53,238.32,198.37,235.33,193.13,226.56Z" transform="translate(-159.88 -41.76)"/><path class="cls-11" d="M207.62,192.83h0c2.38,0,3.18-2,3.18-4.37L212,172.24a4.37,4.37,0,0,0-4.33-4.37h0c-2.38,0-4.74,1.94-4.74,4.35l1.57,16.24C204.45,190.86,205.24,192.83,207.62,192.83Z" transform="translate(-159.88 -41.76)"/><path id="_Clipping_Path_3" data-name="&lt;Clipping Path&gt;" class="cls-1" d="M204.64,188.49c3.51,1,5.14,1.42,6.11,1.32l3.08,2.95a6.19,6.19,0,0,1,1.51,2.28,3.1,3.1,0,0,1-1.64,3.72c-1.42.72-2.72.15-4-.56l-4.54-2.59C203.39,194.28,202.77,192.89,204.64,188.49Z" transform="translate(-159.88 -41.76)"/><g class="cls-12"><path class="cls-11" d="M213.82,189.91a16.29,16.29,0,0,1-5.25-4.43c-2.18-2.79-6.18,1.14-4,3.93a20.11,20.11,0,0,0,6.27,5.36,2.68,2.68,0,0,0,3.71-.91c.75-1.21.56-3.27-.72-4Z" transform="translate(-159.88 -41.76)"/></g><path class="cls-1" d="M212.84,190.94a4.51,4.51,0,0,0-4.76,2c-.55.78.46,1.68,1,.91a3.23,3.23,0,0,1,3.52-1.38c.82.22,1-1.27.23-1.49Z" transform="translate(-159.88 -41.76)"/><path class="cls-13" d="M34.56,40.66H46a1.4,1.4,0,0,1,1.4,1.4v9.86a7.13,7.13,0,0,1-7.13,7.13h0a7.13,7.13,0,0,1-7.13-7.13V42.07A1.4,1.4,0,0,1,34.56,40.66Z"/><path class="cls-5" d="M222.24,71h-.1c0-.64.07-1.29.07-1.94,0-13.31-9.85-21.79-22.11-21.79S177.83,55.73,177.83,69c0,.65,0,1.3.07,1.95a3.24,3.24,0,1,0,.2,6.47,4.09,4.09,0,0,0,1.09-.16,23.28,23.28,0,0,0,13.27,14.37,24,24,0,0,0,7.48,1.4,25,25,0,0,0,7.63-1.4,23.3,23.3,0,0,0,13.31-14.45,3.75,3.75,0,0,0,1.36.24A3.25,3.25,0,1,0,222.24,71Z" transform="translate(-159.88 -41.76)"/><path class="cls-14" d="M222.48,75.47a1.23,1.23,0,0,0,1.41-1,1.14,1.14,0,0,0-1-1.29" transform="translate(-159.88 -41.76)"/><path class="cls-14" d="M178.31,75.36a1.23,1.23,0,0,1-1.41-1,1.15,1.15,0,0,1,1-1.29" transform="translate(-159.88 -41.76)"/><path class="cls-15" d="M177.85,56.53l.32-.45a2,2,0,0,0,.47-.89,2.08,2.08,0,0,0-.11-.74A7.68,7.68,0,0,1,181,47.18a15.07,15.07,0,0,1,7.17-3.42c4.84-1.09,9.88-.94,14.83-.6,5.53.38,11.43,1.15,15.62,4.79C224.64,53.22,224.9,62,224,69.39a2.72,2.72,0,0,1-.77,1.88,2,2,0,0,1-2.68-.76,6.37,6.37,0,0,1-.63-3,32.35,32.35,0,0,0-.54-4.38,8.14,8.14,0,0,0-1.31-3.49,6.65,6.65,0,0,0-3.61-2.2,12.83,12.83,0,0,0-7.21.2,35.11,35.11,0,0,1-8.63.68,36.12,36.12,0,0,1-8.2-1.22c-2.75-.71-6.07-.64-7.92,1.51a8.53,8.53,0,0,0-1.65,4.1,38.63,38.63,0,0,0-.59,4.92,6.42,6.42,0,0,1-.57,2.82,2,2,0,0,1-2.43,1c-.83-.43-1-1.51-1.09-2.44C175.8,64.7,175.53,60,177.85,56.53Z" transform="translate(-159.88 -41.76)"/><circle class="cls-16" cx="49.01" cy="30.14" r="2"/><circle class="cls-16" cx="32.36" cy="30.14" r="2"/><path class="cls-17" d="M200.28,78.93h0c-.77,0-1.54-.22-1.54-1l.15-3.16a1.6,1.6,0,0,1,1.39-1.62h0a1.6,1.6,0,0,1,1.39,1.62l.15,3.16C201.82,78.71,201.05,78.93,200.28,78.93Z" transform="translate(-159.88 -41.76)"/><path class="cls-18" d="M199.47,85.25a4.92,4.92,0,0,1-2.85-1.18.65.65,0,0,1,0-.91.63.63,0,0,1,.9,0c1.4,1.29,4.29,1,5.3.12a.64.64,0,0,1,.91.06.65.65,0,0,1-.07.91A6,6,0,0,1,199.47,85.25Z" transform="translate(-159.88 -41.76)"/><path class="cls-15" d="M189.24,66.85a1,1,0,0,1-.48-1.8,7.3,7.3,0,0,1,5-.84,1,1,0,0,1,.77,1.13,1,1,0,0,1-1.13.77,5.4,5.4,0,0,0-3.63.61A.94.94,0,0,1,189.24,66.85Z" transform="translate(-159.88 -41.76)"/><path class="cls-15" d="M211.67,66.85a.94.94,0,0,0,.83-.48,1,1,0,0,0-.35-1.32,7.3,7.3,0,0,0-5-.84,1,1,0,1,0,.36,1.9,5.4,5.4,0,0,1,3.63.61A.91.91,0,0,0,211.67,66.85Z" transform="translate(-159.88 -41.76)"/><rect class="cls-19" x="202.38" y="173.24" width="10.84" height="1.96" rx="0.31" ry="0.31" transform="translate(276.64 278.13) rotate(172.52)"/><path class="cls-20" d="M202.71,174.12l-.57-2.76L201,165.64l-.28-3.57a.89.89,0,0,0-.3-.59c.65-1.36,3.46-2.68,5.46-2.94,2.33-.3,5.45.6,5.65,2.17l.59,9.36.17,2.8V173l-9.53,1.24Z" transform="translate(-159.88 -41.76)"/><path class="cls-21" d="M184.51,131.52V114.94c0-9.42,6.75-17.13,15-17.13h1.79c8.25,0,15,7.71,15,17.13v16.58c0,8.41,2,17.61-4.26,18.73a7.76,7.76,0,0,0,.11-2.47.45.45,0,0,0-.9,0c-.21,1-.62,2.65-1.67,2.58H190.12a2.08,2.08,0,0,1-2-.94c-1-1.68-.58-3.91-1.58-3.75,0,0-.38.9,0,3.61C183.07,146.48,184.51,138.72,184.51,131.52Z" transform="translate(-159.88 -41.76)"/><path class="cls-22" d="M209.07,131.34l-8.61-1.6h-.93l-8.62,1.6c-3.79.64-3.12,1.72-2.7,2.79a15.59,15.59,0,0,1,1,4.63L189,143.6c-.13,2.91.24,1.72.24,4.18,0,1.78-1,11-.72,11h22.91c.23,0-.72-9.23-.72-11,0-2.46.37-1.27.24-4.18l-.21-4.84a15,15,0,0,1,1-4.63C212.19,133.06,212.86,132,209.07,131.34Z" transform="translate(-159.88 -41.76)"/><path class="cls-23" d="M37,85h7a.8.8,0,0,1,.8.8v4.52a4.2,4.2,0,0,1-4.2,4.2h-.18a4.2,4.2,0,0,1-4.2-4.2V85.81A.8.8,0,0,1,37,85Z"/><path class="cls-11" d="M213.51,116.05h-.06c0-.42.05-.84.05-1.27,0-8.68-5.86-14.21-13.15-14.21s-13.24,5.53-13.24,14.21c0,.43,0,.85,0,1.27-2.6.13-2.56,4.23.12,4.23a2.21,2.21,0,0,0,.65-.11,14.69,14.69,0,0,0,7.89,9.38,13.08,13.08,0,0,0,4.44.91,13.64,13.64,0,0,0,4.54-.91,14.73,14.73,0,0,0,7.91-9.43,2.09,2.09,0,0,0,.81.16C216.24,120.29,216.23,116.05,213.51,116.05Z" transform="translate(-159.88 -41.76)"/><path class="cls-14" d="M213.27,118.93a.74.74,0,1,0,.22-1.46" transform="translate(-159.88 -41.76)"/><path class="cls-14" d="M187.39,118.92a.74.74,0,1,1-.22-1.46" transform="translate(-159.88 -41.76)"/><polygon class="cls-24" points="39.68 128.78 40.54 128.78 40.11 123.19 39.68 128.78"/><polygon class="cls-24" points="40.54 128.78 40.11 123.19 39.68 128.78 39.47 131.48 39.46 131.6 40.76 131.6 40.75 131.48 40.54 128.78"/><path class="cls-21" d="M214.69,111.28a8.83,8.83,0,0,0-1.18-2.84,1.5,1.5,0,0,1-.27-.8,5.18,5.18,0,0,0-3.74-4.25,6.93,6.93,0,0,0-.87-.22,1.43,1.43,0,0,1-1.12-1.34,3.09,3.09,0,0,0-.12-.75,3.22,3.22,0,0,0-.49-1c-2.06-2.84-8.81-3.17-12.78-1.66-4.39,1.66-9.81,7.17-8.71,10.89a4.46,4.46,0,0,0,2.84,2.71,14.87,14.87,0,0,0,9.85-.1,18.32,18.32,0,0,0,5.19-3.22,1.23,1.23,0,0,1,1.75.09,6.13,6.13,0,0,0,2.61,1.69,6,6,0,0,0,2,.32A1.4,1.4,0,0,1,211,112l.09.41c.61,2.49,1.91,4.25,2.91,3.93S215.29,113.76,214.69,111.28Z" transform="translate(-159.88 -41.76)"/><path class="cls-17" d="M200.39,120.69h0c-.57,0-1.14-.08-1.14-.36l.1-.59a1.2,1.2,0,0,1,1-.93h0a1.2,1.2,0,0,1,1,.93l.11.59C201.54,120.61,201,120.69,200.39,120.69Z" transform="translate(-159.88 -41.76)"/><path class="cls-21" d="M192.6,112.38a.36.36,0,0,1-.26-.11.36.36,0,0,1,0-.5,2.77,2.77,0,0,1,2.53-.62.34.34,0,0,1,.25.42.35.35,0,0,1-.42.25,2.07,2.07,0,0,0-1.89.47A.35.35,0,0,1,192.6,112.38Z" transform="translate(-159.88 -41.76)"/><path class="cls-21" d="M208.19,112.42a.31.31,0,0,0,.25-.11.34.34,0,0,0,0-.49,2.77,2.77,0,0,0-2.53-.63.35.35,0,0,0-.25.43.37.37,0,0,0,.43.25,2,2,0,0,1,1.88.46A.36.36,0,0,0,208.19,112.42Z" transform="translate(-159.88 -41.76)"/><path class="cls-20" d="M195.58,167.29h8.82c3.07,0,6.47-2.3,6.79-5l.29-3.46h-23l.3,3.47C188.81,165.07,192.51,167.29,195.58,167.29Z" transform="translate(-159.88 -41.76)"/><path class="cls-22" d="M214.66,113.8a.24.24,0,0,1-.47.1,32.91,32.91,0,0,0-1.51-3.45,28.82,28.82,0,0,0-2.41-3.89,27.27,27.27,0,0,0-2.94-3.4,25.71,25.71,0,0,0-2.72-2.34c-.21-.16-.08-.55.17-.5a9.45,9.45,0,0,1,3.45,1.4,13.62,13.62,0,0,1,3.57,3.42,15.13,15.13,0,0,1,2.29,4.6A13,13,0,0,1,214.66,113.8Z" transform="translate(-159.88 -41.76)"/><path class="cls-16" d="M195.9,116.52a1.42,1.42,0,0,1-2.83,0,1.42,1.42,0,0,1,2.83,0Z" transform="translate(-159.88 -41.76)"/><path class="cls-16" d="M207.63,116.52a1.42,1.42,0,0,1-2.83,0,1.42,1.42,0,0,1,2.83,0Z" transform="translate(-159.88 -41.76)"/><path class="cls-18" d="M200,126.05a2.69,2.69,0,0,1-1.62-.63.36.36,0,0,1,0-.51.35.35,0,0,1,.51,0,2.68,2.68,0,0,0,3,0,.36.36,0,0,1,.48.54A3.32,3.32,0,0,1,200,126.05Z" transform="translate(-159.88 -41.76)"/><path class="cls-11" d="M192.74,193.18h0c-2.38,0-3.17-2-3.17-4.38l-1.15-16.21a4.36,4.36,0,0,1,4.32-4.38h0c2.39,0,4.75,1.95,4.75,4.35l-1.57,16.24C195.92,191.21,195.13,193.18,192.74,193.18Z" transform="translate(-159.88 -41.76)"/><path id="_Clipping_Path_4" data-name="&lt;Clipping Path&gt;" class="cls-1" d="M195.73,188.83c-3.52,1-5.14,1.42-6.11,1.33l-3.08,2.94a6.38,6.38,0,0,0-1.52,2.29,3.12,3.12,0,0,0,1.65,3.72c1.42.72,2.72.15,4-.56l4.53-2.6C197,194.62,197.6,193.23,195.73,188.83Z" transform="translate(-159.88 -41.76)"/><g class="cls-25"><path class="cls-11" d="M186.55,190.25a16.29,16.29,0,0,0,5.25-4.43c2.18-2.79,6.18,1.15,4,3.93a20,20,0,0,1-6.28,5.36,2.68,2.68,0,0,1-3.71-.9c-.74-1.21-.55-3.27.73-4Z" transform="translate(-159.88 -41.76)"/></g><path class="cls-1" d="M187.53,191.28a4.53,4.53,0,0,1,4.76,2c.55.78-.46,1.68-1,.9a3.22,3.22,0,0,0-3.51-1.37c-.82.22-1-1.28-.23-1.5Z" transform="translate(-159.88 -41.76)"/><rect class="cls-19" x="187.15" y="173.59" width="10.84" height="1.96" rx="0.31" ry="0.31" transform="translate(-135.51 -65.35) rotate(7.48)"/><path class="cls-20" d="M197.66,174.46l.57-2.75,1.18-5.72.28-3.57a.93.93,0,0,1,.3-.6c-.66-1.35-3.47-2.67-5.46-2.93-2.34-.31-5.45.6-5.65,2.17l-.59,9.35-.18,2.81v.12l9.52,1.25Z" transform="translate(-159.88 -41.76)"/><rect class="cls-5" x="170.46" y="126.37" width="13.49" height="45.62" rx="6.25" ry="6.25" transform="translate(247.74 131.24) rotate(145.81)"/><rect class="cls-5" x="178.55" y="153.39" width="15.15" height="16.31" rx="7.58" ry="7.58" transform="translate(270.98 148.82) rotate(145.81)"/><path class="cls-11" d="M184.05,169.15h.5a3.15,3.15,0,0,0,3.26-3l0-1.39a3.2,3.2,0,0,0-3.4-2.9h-.5a3.16,3.16,0,0,0-3.26,3l0,1.39A3.19,3.19,0,0,0,184.05,169.15Z" transform="translate(-159.88 -41.76)"/><path class="cls-11" d="M183.76,166.76h.43a2.58,2.58,0,0,0,2.78-2.32l-.39-15.38a2.65,2.65,0,0,0-2.9-2.23h-.43a2.59,2.59,0,0,0-2.79,2.32l.4,15.38A2.65,2.65,0,0,0,183.76,166.76Z" transform="translate(-159.88 -41.76)"/><path class="cls-11" d="M182,151.77l.56.24a2.87,2.87,0,0,0,3.66-1.49l6.94-14.17a3,3,0,0,0-1.76-3.73l-.57-.23a3.29,3.29,0,0,0-4.06,1.32l-6.13,14.5A2.64,2.64,0,0,0,182,151.77Z" transform="translate(-159.88 -41.76)"/><path class="cls-22" d="M182.67,142.79l3.81-9.08a3.53,3.53,0,0,1,4.33-1.48l1,.38a2.79,2.79,0,0,1,1.6,3.74L189.15,145A18.1,18.1,0,0,1,182.67,142.79Z" transform="translate(-159.88 -41.76)"/><rect class="cls-5" x="214.64" y="123.62" width="13.49" height="45.62" rx="6.25" ry="6.25" transform="translate(-8.87 -151.26) rotate(41.14)"/><rect class="cls-5" x="203.47" y="149.47" width="15.15" height="16.31" rx="7.58" ry="7.58" transform="translate(-4.06 -141.69) rotate(41.14)"/><path class="cls-11" d="M217.09,168h-.51a3.15,3.15,0,0,1-3.42-2.84l0-1.39a3.2,3.2,0,0,1,3.24-3.08h.5a3.15,3.15,0,0,1,3.42,2.84l0,1.38A3.2,3.2,0,0,1,217.09,168Z" transform="translate(-159.88 -41.76)"/><path class="cls-11" d="M216.77,165.94h-.43a2.59,2.59,0,0,1-2.91-2.17L213,148.4a2.65,2.65,0,0,1,2.78-2.38h.43a2.57,2.57,0,0,1,2.9,2.16l.44,15.38A2.64,2.64,0,0,1,216.77,165.94Z" transform="translate(-159.88 -41.76)"/><path class="cls-11" d="M217.69,150.88l-.56.26a2.87,2.87,0,0,1-3.73-1.29l-7.7-13.77a3,3,0,0,1,1.56-3.81l.55-.27a3.31,3.31,0,0,1,4.13,1.1l6.91,14.15A2.64,2.64,0,0,1,217.69,150.88Z" transform="translate(-159.88 -41.76)"/><path class="cls-22" d="M215.88,140.56l-3.62-7.48a3.53,3.53,0,0,0-4.41-1.24l-1,.43a2.8,2.8,0,0,0-1.39,3.83l4,7.14A18.39,18.39,0,0,0,215.88,140.56Z" transform="translate(-159.88 -41.76)"/><rect class="cls-26" width="80.93" height="214.56"/></svg>